<mxfile host="Electron" modified="2023-11-23T02:39:30.088Z" agent="Mozilla/5.0 (Windows NT 10.0; Win64; x64) AppleWebKit/537.36 (KHTML, like Gecko) draw.io/22.0.3 Chrome/114.0.5735.289 Electron/25.8.4 Safari/537.36" etag="uCYuIWaVJYJnYCpA61z9" version="22.0.3" type="device">
  <diagram id="mye7cpsdecRdVJIh1ltE" name="Page-1">
    <mxGraphModel dx="3072" dy="828" grid="1" gridSize="10" guides="1" tooltips="1" connect="1" arrows="1" fold="1" page="1" pageScale="1" pageWidth="1654" pageHeight="2336" background="none" math="0" shadow="0">
      <root>
        <mxCell id="0" />
        <mxCell id="1" parent="0" />
        <mxCell id="GoWqnwifKlF_Yr-xNYbi-38" style="edgeStyle=none;rounded=1;orthogonalLoop=1;jettySize=auto;html=1;exitX=0;exitY=0.5;exitDx=0;exitDy=0;entryX=1;entryY=0.5;entryDx=0;entryDy=0;labelBackgroundColor=none;strokeColor=#006658;fontColor=default;" parent="1" source="GoWqnwifKlF_Yr-xNYbi-1" target="GoWqnwifKlF_Yr-xNYbi-3" edge="1">
          <mxGeometry relative="1" as="geometry">
            <mxPoint x="-370" y="470" as="targetPoint" />
          </mxGeometry>
        </mxCell>
        <mxCell id="qn3d2HcTWaKksIYHcs9O-18" style="edgeStyle=none;rounded=1;orthogonalLoop=1;jettySize=auto;html=1;exitX=1;exitY=0.5;exitDx=0;exitDy=0;labelBackgroundColor=none;strokeColor=#006658;fontColor=default;" parent="1" source="GoWqnwifKlF_Yr-xNYbi-1" edge="1">
          <mxGeometry relative="1" as="geometry">
            <mxPoint x="-110" y="470" as="targetPoint" />
          </mxGeometry>
        </mxCell>
        <mxCell id="GoWqnwifKlF_Yr-xNYbi-1" value="&lt;font color=&quot;#f00505&quot;&gt;Я&lt;/font&gt;&lt;font color=&quot;#0d0d0d&quot;&gt;&lt;b&gt;ндекс&lt;/b&gt;&lt;/font&gt; Маршруты" style="rounded=1;whiteSpace=wrap;html=1;arcSize=22;labelBackgroundColor=none;fillColor=#f5f5f5;strokeColor=#666666;gradientColor=#b3b3b3;" parent="1" vertex="1">
          <mxGeometry x="-300" y="450" width="120" height="40" as="geometry" />
        </mxCell>
        <mxCell id="GoWqnwifKlF_Yr-xNYbi-52" style="edgeStyle=orthogonalEdgeStyle;rounded=1;orthogonalLoop=1;jettySize=auto;html=1;exitX=0;exitY=0.5;exitDx=0;exitDy=0;entryX=1;entryY=0.5;entryDx=0;entryDy=0;labelBackgroundColor=none;fontColor=default;fillColor=#b0e3e6;strokeColor=#0e8088;curved=1;" parent="1" source="GoWqnwifKlF_Yr-xNYbi-3" target="A5lYPsGRQJ1GHH2UrvJ9-7" edge="1">
          <mxGeometry relative="1" as="geometry">
            <mxPoint x="-895" y="1060" as="targetPoint" />
          </mxGeometry>
        </mxCell>
        <mxCell id="OxW7yi1mNQBKnJ8u3WXz-1" style="rounded=1;orthogonalLoop=1;jettySize=auto;html=1;exitX=0;exitY=0.5;exitDx=0;exitDy=0;entryX=1;entryY=0.5;entryDx=0;entryDy=0;labelBackgroundColor=none;fontColor=default;fillColor=#b0e3e6;strokeColor=#0e8088;edgeStyle=orthogonalEdgeStyle;curved=1;" parent="1" source="GoWqnwifKlF_Yr-xNYbi-3" target="GoWqnwifKlF_Yr-xNYbi-45" edge="1">
          <mxGeometry relative="1" as="geometry" />
        </mxCell>
        <mxCell id="OxW7yi1mNQBKnJ8u3WXz-3" style="edgeStyle=orthogonalEdgeStyle;rounded=1;orthogonalLoop=1;jettySize=auto;html=1;exitX=0;exitY=0.5;exitDx=0;exitDy=0;entryX=1;entryY=0.5;entryDx=0;entryDy=0;labelBackgroundColor=none;fontColor=default;fillColor=#b0e3e6;strokeColor=#0e8088;curved=1;" parent="1" source="GoWqnwifKlF_Yr-xNYbi-3" target="OxW7yi1mNQBKnJ8u3WXz-2" edge="1">
          <mxGeometry relative="1" as="geometry">
            <Array as="points">
              <mxPoint x="-570" y="470" />
              <mxPoint x="-570" y="1095" />
            </Array>
          </mxGeometry>
        </mxCell>
        <mxCell id="OxW7yi1mNQBKnJ8u3WXz-5" style="edgeStyle=orthogonalEdgeStyle;rounded=1;orthogonalLoop=1;jettySize=auto;html=1;exitX=0;exitY=0.5;exitDx=0;exitDy=0;entryX=1;entryY=0.5;entryDx=0;entryDy=0;labelBackgroundColor=none;fontColor=default;fillColor=#b0e3e6;strokeColor=#0e8088;curved=1;" parent="1" source="GoWqnwifKlF_Yr-xNYbi-3" target="Jd_oDnFanChOWd87wpwM-80" edge="1">
          <mxGeometry relative="1" as="geometry">
            <mxPoint x="-640" y="480" as="targetPoint" />
          </mxGeometry>
        </mxCell>
        <mxCell id="GoWqnwifKlF_Yr-xNYbi-3" value="Интерфейс" style="rounded=1;whiteSpace=wrap;html=1;arcSize=22;labelBackgroundColor=none;fillColor=#b0e3e6;strokeColor=#0e8088;" parent="1" vertex="1">
          <mxGeometry x="-500" y="450" width="120" height="40" as="geometry" />
        </mxCell>
        <mxCell id="oigtg8h2ie4QQOlHJKOF-9" style="edgeStyle=orthogonalEdgeStyle;rounded=1;orthogonalLoop=1;jettySize=auto;html=1;exitX=1;exitY=0.5;exitDx=0;exitDy=0;entryX=0;entryY=0.5;entryDx=0;entryDy=0;labelBackgroundColor=none;strokeColor=#006658;fontColor=default;curved=1;" parent="1" source="GoWqnwifKlF_Yr-xNYbi-4" target="A5lYPsGRQJ1GHH2UrvJ9-61" edge="1">
          <mxGeometry relative="1" as="geometry">
            <mxPoint x="320" y="400" as="targetPoint" />
          </mxGeometry>
        </mxCell>
        <mxCell id="oigtg8h2ie4QQOlHJKOF-10" style="edgeStyle=orthogonalEdgeStyle;rounded=1;orthogonalLoop=1;jettySize=auto;html=1;exitX=1;exitY=0.5;exitDx=0;exitDy=0;entryX=0;entryY=0.5;entryDx=0;entryDy=0;labelBackgroundColor=none;strokeColor=#006658;fontColor=default;curved=1;" parent="1" source="GoWqnwifKlF_Yr-xNYbi-4" target="A5lYPsGRQJ1GHH2UrvJ9-62" edge="1">
          <mxGeometry relative="1" as="geometry">
            <mxPoint x="320" y="440" as="targetPoint" />
          </mxGeometry>
        </mxCell>
        <mxCell id="GoWqnwifKlF_Yr-xNYbi-4" value="Проверка правильности ввода данных в поля" style="rounded=1;whiteSpace=wrap;html=1;arcSize=22;labelBackgroundColor=none;fillColor=#21C0A5;strokeColor=#006658;fontColor=#5C5C5C;" parent="1" vertex="1">
          <mxGeometry x="82.5" y="451.25" width="120" height="40" as="geometry" />
        </mxCell>
        <mxCell id="oigtg8h2ie4QQOlHJKOF-12" style="edgeStyle=orthogonalEdgeStyle;rounded=1;orthogonalLoop=1;jettySize=auto;html=1;exitX=1;exitY=0.5;exitDx=0;exitDy=0;entryX=0;entryY=0.5;entryDx=0;entryDy=0;labelBackgroundColor=none;strokeColor=#006658;fontColor=default;curved=1;" parent="1" source="b9gM4gOocdvL3oOeD4PQ-210" target="A5lYPsGRQJ1GHH2UrvJ9-131" edge="1">
          <mxGeometry relative="1" as="geometry">
            <mxPoint x="595.75" y="2220.2400000000002" as="targetPoint" />
            <mxPoint x="565.75" y="2315.2400000000002" as="sourcePoint" />
          </mxGeometry>
        </mxCell>
        <mxCell id="GoWqnwifKlF_Yr-xNYbi-5" value="Выбор вида транспорта и режима" style="rounded=1;whiteSpace=wrap;html=1;arcSize=22;labelBackgroundColor=none;fillColor=#21C0A5;strokeColor=#006658;fontColor=#5C5C5C;" parent="1" vertex="1">
          <mxGeometry x="210" y="2192.7400000000002" width="120" height="40" as="geometry" />
        </mxCell>
        <mxCell id="GoWqnwifKlF_Yr-xNYbi-45" value="Панель выбора адреса" style="rounded=1;whiteSpace=wrap;html=1;arcSize=22;labelBackgroundColor=none;fillColor=#b0e3e6;strokeColor=#0e8088;" parent="1" vertex="1">
          <mxGeometry x="-760" y="636.25" width="120" height="40" as="geometry" />
        </mxCell>
        <mxCell id="qn3d2HcTWaKksIYHcs9O-7" style="edgeStyle=orthogonalEdgeStyle;rounded=1;orthogonalLoop=1;jettySize=auto;html=1;exitX=1;exitY=0.5;exitDx=0;exitDy=0;entryX=0;entryY=0.5;entryDx=0;entryDy=0;labelBackgroundColor=none;strokeColor=#006658;fontColor=default;curved=1;" parent="1" source="qn3d2HcTWaKksIYHcs9O-5" target="GoWqnwifKlF_Yr-xNYbi-5" edge="1">
          <mxGeometry relative="1" as="geometry">
            <Array as="points">
              <mxPoint x="140" y="470" />
              <mxPoint x="140" y="2100" />
              <mxPoint x="180" y="2100" />
              <mxPoint x="180" y="2213" />
            </Array>
          </mxGeometry>
        </mxCell>
        <mxCell id="OxW7yi1mNQBKnJ8u3WXz-6" style="edgeStyle=none;rounded=1;orthogonalLoop=1;jettySize=auto;html=1;exitX=1;exitY=0.5;exitDx=0;exitDy=0;entryX=0;entryY=0.5;entryDx=0;entryDy=0;labelBackgroundColor=none;strokeColor=#006658;fontColor=default;" parent="1" source="qn3d2HcTWaKksIYHcs9O-5" target="GoWqnwifKlF_Yr-xNYbi-4" edge="1">
          <mxGeometry relative="1" as="geometry">
            <mxPoint x="130" y="590" as="targetPoint" />
          </mxGeometry>
        </mxCell>
        <mxCell id="qn3d2HcTWaKksIYHcs9O-5" value="Логика" style="rounded=1;whiteSpace=wrap;html=1;arcSize=22;labelBackgroundColor=none;fillColor=#21C0A5;strokeColor=#006658;fontColor=#5C5C5C;" parent="1" vertex="1">
          <mxGeometry x="-110" y="450" width="120" height="40" as="geometry" />
        </mxCell>
        <mxCell id="qn3d2HcTWaKksIYHcs9O-14" value="Расчёт времени и стоимости" style="rounded=1;whiteSpace=wrap;html=1;arcSize=22;labelBackgroundColor=none;fillColor=#21C0A5;strokeColor=#006658;fontColor=#5C5C5C;" parent="1" vertex="1">
          <mxGeometry x="230.56" y="3057.34" width="120" height="40" as="geometry" />
        </mxCell>
        <mxCell id="OxW7yi1mNQBKnJ8u3WXz-2" value="Панель выбора&lt;br&gt;вида транспорта и режима" style="rounded=1;whiteSpace=wrap;html=1;arcSize=22;labelBackgroundColor=none;fillColor=#b0e3e6;strokeColor=#0e8088;" parent="1" vertex="1">
          <mxGeometry x="-740" y="1075" width="120" height="40" as="geometry" />
        </mxCell>
        <mxCell id="Jd_oDnFanChOWd87wpwM-2" value="Поле ввода &quot;Откуда&quot;&lt;br&gt;(В старовом состоянии поле ввода&amp;nbsp; адреса пустое)" style="rounded=1;whiteSpace=wrap;html=1;arcSize=22;labelBackgroundColor=none;fillColor=#b0e3e6;strokeColor=#0e8088;" parent="1" vertex="1">
          <mxGeometry x="-1050" y="538.75" width="165" height="60" as="geometry" />
        </mxCell>
        <mxCell id="Jd_oDnFanChOWd87wpwM-80" value="Шапка Логотип Яндекс Маршруты" style="rounded=1;whiteSpace=wrap;html=1;arcSize=22;labelBackgroundColor=none;fillColor=#b0e3e6;strokeColor=#0e8088;" parent="1" vertex="1">
          <mxGeometry x="-760" y="115" width="120" height="40" as="geometry" />
        </mxCell>
        <mxCell id="Jd_oDnFanChOWd87wpwM-81" style="edgeStyle=orthogonalEdgeStyle;rounded=0;orthogonalLoop=1;jettySize=auto;html=1;exitX=0.5;exitY=1;exitDx=0;exitDy=0;labelBackgroundColor=none;fontColor=default;fillColor=#b0e3e6;strokeColor=#0e8088;" parent="1" source="Jd_oDnFanChOWd87wpwM-80" target="Jd_oDnFanChOWd87wpwM-80" edge="1">
          <mxGeometry relative="1" as="geometry" />
        </mxCell>
        <mxCell id="Jd_oDnFanChOWd87wpwM-158" value="" style="endArrow=classic;html=1;rounded=0;entryX=1;entryY=0.5;entryDx=0;entryDy=0;labelBackgroundColor=none;fontColor=default;fillColor=#b0e3e6;strokeColor=#0e8088;edgeStyle=orthogonalEdgeStyle;curved=1;" parent="1" target="enqwQ2bbHpvwQ0kJNUOB-74" edge="1">
          <mxGeometry width="50" height="50" relative="1" as="geometry">
            <mxPoint x="-500" y="470" as="sourcePoint" />
            <mxPoint x="-730" y="1978.21" as="targetPoint" />
            <Array as="points">
              <mxPoint x="-550" y="470" />
              <mxPoint x="-550" y="1200" />
              <mxPoint x="-590" y="1200" />
              <mxPoint x="-590" y="1470" />
              <mxPoint x="-670" y="1470" />
              <mxPoint x="-670" y="1976" />
            </Array>
          </mxGeometry>
        </mxCell>
        <mxCell id="omD7B_j1-jRFqI0TzZg0-20" value="Яндекс" style="rounded=1;whiteSpace=wrap;html=1;arcSize=22;labelBackgroundColor=none;fillColor=#b0e3e6;strokeColor=#0e8088;" parent="1" vertex="1">
          <mxGeometry x="-960" y="75" width="120" height="40" as="geometry" />
        </mxCell>
        <mxCell id="omD7B_j1-jRFqI0TzZg0-22" value="Маршруты" style="rounded=1;whiteSpace=wrap;html=1;arcSize=22;labelBackgroundColor=none;fillColor=#b0e3e6;strokeColor=#0e8088;" parent="1" vertex="1">
          <mxGeometry x="-960" y="145" width="120" height="40" as="geometry" />
        </mxCell>
        <mxCell id="omD7B_j1-jRFqI0TzZg0-35" value="Поле ввода &quot;Откуда&quot;&lt;br style=&quot;border-color: var(--border-color);&quot;&gt;(В старовом состоянии поле ввода&amp;nbsp; адреса пустое)" style="rounded=1;whiteSpace=wrap;html=1;arcSize=22;labelBackgroundColor=none;fillColor=#b0e3e6;strokeColor=#0e8088;" parent="1" vertex="1">
          <mxGeometry x="-1050" y="683.75" width="165" height="60" as="geometry" />
        </mxCell>
        <mxCell id="omD7B_j1-jRFqI0TzZg0-58" value="" style="endArrow=classic;html=1;rounded=0;exitX=0;exitY=0.5;exitDx=0;exitDy=0;entryX=1;entryY=0.5;entryDx=0;entryDy=0;labelBackgroundColor=none;fontColor=default;fillColor=#b0e3e6;strokeColor=#0e8088;edgeStyle=orthogonalEdgeStyle;curved=1;" parent="1" source="Jd_oDnFanChOWd87wpwM-80" target="omD7B_j1-jRFqI0TzZg0-22" edge="1">
          <mxGeometry width="50" height="50" relative="1" as="geometry">
            <mxPoint x="-730" y="285" as="sourcePoint" />
            <mxPoint x="-680" y="235" as="targetPoint" />
          </mxGeometry>
        </mxCell>
        <mxCell id="omD7B_j1-jRFqI0TzZg0-59" value="" style="endArrow=classic;html=1;rounded=0;exitX=0;exitY=0.5;exitDx=0;exitDy=0;entryX=1;entryY=0.5;entryDx=0;entryDy=0;labelBackgroundColor=none;fontColor=default;fillColor=#b0e3e6;strokeColor=#0e8088;edgeStyle=orthogonalEdgeStyle;curved=1;" parent="1" source="Jd_oDnFanChOWd87wpwM-80" target="omD7B_j1-jRFqI0TzZg0-20" edge="1">
          <mxGeometry width="50" height="50" relative="1" as="geometry">
            <mxPoint x="-600" y="125" as="sourcePoint" />
            <mxPoint x="-550" y="75" as="targetPoint" />
          </mxGeometry>
        </mxCell>
        <mxCell id="A5lYPsGRQJ1GHH2UrvJ9-7" value="Панель выбора времени" style="rounded=1;whiteSpace=wrap;html=1;arcSize=22;labelBackgroundColor=none;fillColor=#b0e3e6;strokeColor=#0e8088;" parent="1" vertex="1">
          <mxGeometry x="-760" y="340" width="120" height="40" as="geometry" />
        </mxCell>
        <mxCell id="A5lYPsGRQJ1GHH2UrvJ9-8" value="Поле ввода в часов" style="rounded=1;whiteSpace=wrap;html=1;arcSize=22;labelBackgroundColor=none;fillColor=#b0e3e6;strokeColor=#0e8088;" parent="1" vertex="1">
          <mxGeometry x="-1210" y="280" width="125" height="50" as="geometry" />
        </mxCell>
        <mxCell id="A5lYPsGRQJ1GHH2UrvJ9-9" value="Поле ввода минут" style="rounded=1;whiteSpace=wrap;html=1;arcSize=22;labelBackgroundColor=none;fillColor=#b0e3e6;strokeColor=#0e8088;" parent="1" vertex="1">
          <mxGeometry x="-1212.5" y="400" width="125" height="50" as="geometry" />
        </mxCell>
        <mxCell id="A5lYPsGRQJ1GHH2UrvJ9-10" value="Поле &quot;Время начала поездки&quot;&lt;span id=&quot;docs-internal-guid-bae597ff-7fff-9e70-1db2-52d7c6f0d945&quot;&gt;&lt;/span&gt;&lt;span id=&quot;docs-internal-guid-bae597ff-7fff-9e70-1db2-52d7c6f0d945&quot;&gt;&lt;/span&gt;&lt;span id=&quot;docs-internal-guid-e8826e76-7fff-5067-dbd4-a7ab05a02870&quot;&gt;&lt;/span&gt;" style="rounded=1;whiteSpace=wrap;html=1;arcSize=22;labelBackgroundColor=none;fillColor=#b0e3e6;strokeColor=#0e8088;" parent="1" vertex="1">
          <mxGeometry x="-960" y="335" width="125" height="50" as="geometry" />
        </mxCell>
        <mxCell id="A5lYPsGRQJ1GHH2UrvJ9-11" value="" style="endArrow=classic;html=1;rounded=0;exitX=0;exitY=0.5;exitDx=0;exitDy=0;entryX=1;entryY=0.5;entryDx=0;entryDy=0;labelBackgroundColor=none;fontColor=default;fillColor=#b0e3e6;strokeColor=#0e8088;" parent="1" source="A5lYPsGRQJ1GHH2UrvJ9-7" target="A5lYPsGRQJ1GHH2UrvJ9-10" edge="1">
          <mxGeometry width="50" height="50" relative="1" as="geometry">
            <mxPoint x="-895" y="510" as="sourcePoint" />
            <mxPoint x="-845" y="460" as="targetPoint" />
          </mxGeometry>
        </mxCell>
        <mxCell id="A5lYPsGRQJ1GHH2UrvJ9-14" value="Режим &quot;Оптимальный&quot;" style="rounded=1;whiteSpace=wrap;html=1;arcSize=22;labelBackgroundColor=none;fillColor=#b0e3e6;strokeColor=#0e8088;" parent="1" vertex="1">
          <mxGeometry x="-1162.5" y="935" width="117.5" height="50" as="geometry" />
        </mxCell>
        <mxCell id="A5lYPsGRQJ1GHH2UrvJ9-16" value="Режим &quot;Быстрый&quot;" style="rounded=1;whiteSpace=wrap;html=1;arcSize=22;labelBackgroundColor=none;fillColor=#b0e3e6;strokeColor=#0e8088;" parent="1" vertex="1">
          <mxGeometry x="-1157.5" y="1033.75" width="117.5" height="50" as="geometry" />
        </mxCell>
        <mxCell id="A5lYPsGRQJ1GHH2UrvJ9-20" value="Меню выбора режима маршрутов" style="rounded=1;whiteSpace=wrap;html=1;arcSize=22;labelBackgroundColor=none;fillColor=#b0e3e6;strokeColor=#0e8088;" parent="1" vertex="1">
          <mxGeometry x="-967.5" y="1038.75" width="130" height="40" as="geometry" />
        </mxCell>
        <mxCell id="A5lYPsGRQJ1GHH2UrvJ9-21" value="" style="endArrow=classic;html=1;rounded=0;exitX=0;exitY=0.5;exitDx=0;exitDy=0;entryX=1;entryY=0.5;entryDx=0;entryDy=0;labelBackgroundColor=none;fontColor=default;fillColor=#b0e3e6;strokeColor=#0e8088;edgeStyle=orthogonalEdgeStyle;curved=1;" parent="1" source="OxW7yi1mNQBKnJ8u3WXz-2" target="A5lYPsGRQJ1GHH2UrvJ9-20" edge="1">
          <mxGeometry width="50" height="50" relative="1" as="geometry">
            <mxPoint x="-587.5" y="1137.5" as="sourcePoint" />
            <mxPoint x="-537.5" y="1087.5" as="targetPoint" />
          </mxGeometry>
        </mxCell>
        <mxCell id="A5lYPsGRQJ1GHH2UrvJ9-22" value="" style="endArrow=classic;html=1;rounded=0;exitX=0;exitY=0.5;exitDx=0;exitDy=0;entryX=1;entryY=0.5;entryDx=0;entryDy=0;labelBackgroundColor=none;fontColor=default;fillColor=#b0e3e6;strokeColor=#0e8088;edgeStyle=orthogonalEdgeStyle;curved=1;" parent="1" source="A5lYPsGRQJ1GHH2UrvJ9-20" target="A5lYPsGRQJ1GHH2UrvJ9-14" edge="1">
          <mxGeometry width="50" height="50" relative="1" as="geometry">
            <mxPoint x="-1047.5" y="1020.0000000000001" as="sourcePoint" />
            <mxPoint x="-1037.5" y="960" as="targetPoint" />
          </mxGeometry>
        </mxCell>
        <mxCell id="A5lYPsGRQJ1GHH2UrvJ9-24" value="" style="endArrow=classic;html=1;rounded=0;entryX=1;entryY=0.5;entryDx=0;entryDy=0;exitX=0;exitY=0.5;exitDx=0;exitDy=0;labelBackgroundColor=none;fontColor=default;fillColor=#b0e3e6;strokeColor=#0e8088;" parent="1" source="A5lYPsGRQJ1GHH2UrvJ9-20" target="A5lYPsGRQJ1GHH2UrvJ9-16" edge="1">
          <mxGeometry width="50" height="50" relative="1" as="geometry">
            <mxPoint x="-987.5" y="1020.0000000000001" as="sourcePoint" />
            <mxPoint x="-927.5" y="1120" as="targetPoint" />
          </mxGeometry>
        </mxCell>
        <mxCell id="A5lYPsGRQJ1GHH2UrvJ9-40" value="Карта" style="rounded=1;whiteSpace=wrap;html=1;arcSize=22;labelBackgroundColor=none;fillColor=#b0e3e6;strokeColor=#0e8088;" parent="1" vertex="1">
          <mxGeometry x="-770" y="2477.4399999999996" width="120" height="40" as="geometry" />
        </mxCell>
        <mxCell id="A5lYPsGRQJ1GHH2UrvJ9-41" value="Отображение маршрута" style="rounded=1;whiteSpace=wrap;html=1;arcSize=22;labelBackgroundColor=none;fillColor=#b0e3e6;strokeColor=#0e8088;" parent="1" vertex="1">
          <mxGeometry x="-1028.75" y="2462.4399999999996" width="120" height="40" as="geometry" />
        </mxCell>
        <mxCell id="A5lYPsGRQJ1GHH2UrvJ9-42" value="" style="endArrow=classic;html=1;rounded=0;exitX=0;exitY=0.5;exitDx=0;exitDy=0;entryX=1;entryY=0.5;entryDx=0;entryDy=0;labelBackgroundColor=none;fontColor=default;fillColor=#b0e3e6;strokeColor=#0e8088;edgeStyle=orthogonalEdgeStyle;curved=1;" parent="1" source="A5lYPsGRQJ1GHH2UrvJ9-40" target="A5lYPsGRQJ1GHH2UrvJ9-41" edge="1">
          <mxGeometry width="50" height="50" relative="1" as="geometry">
            <mxPoint x="-760" y="2674.9399999999996" as="sourcePoint" />
            <mxPoint x="-710" y="2624.9399999999996" as="targetPoint" />
          </mxGeometry>
        </mxCell>
        <mxCell id="A5lYPsGRQJ1GHH2UrvJ9-43" value="Точка &quot;А&quot;&amp;nbsp;" style="rounded=1;whiteSpace=wrap;html=1;arcSize=22;labelBackgroundColor=none;fillColor=#b0e3e6;strokeColor=#0e8088;" parent="1" vertex="1">
          <mxGeometry x="-1220" y="2397.4399999999996" width="80" height="40" as="geometry" />
        </mxCell>
        <mxCell id="A5lYPsGRQJ1GHH2UrvJ9-44" value="Точка &quot;B&quot;" style="rounded=1;whiteSpace=wrap;html=1;arcSize=22;labelBackgroundColor=none;fillColor=#b0e3e6;strokeColor=#0e8088;" parent="1" vertex="1">
          <mxGeometry x="-1220" y="2602.4399999999996" width="80" height="40" as="geometry" />
        </mxCell>
        <mxCell id="A5lYPsGRQJ1GHH2UrvJ9-45" value="Траектория маршрута" style="rounded=1;whiteSpace=wrap;html=1;arcSize=22;labelBackgroundColor=none;fillColor=#b0e3e6;strokeColor=#0e8088;" parent="1" vertex="1">
          <mxGeometry x="-1230" y="2802.13" width="80" height="40" as="geometry" />
        </mxCell>
        <mxCell id="A5lYPsGRQJ1GHH2UrvJ9-46" value="" style="endArrow=classic;html=1;rounded=0;exitX=0;exitY=0.5;exitDx=0;exitDy=0;entryX=1;entryY=0.5;entryDx=0;entryDy=0;labelBackgroundColor=none;fontColor=default;fillColor=#b0e3e6;strokeColor=#0e8088;edgeStyle=orthogonalEdgeStyle;curved=1;" parent="1" source="A5lYPsGRQJ1GHH2UrvJ9-41" target="A5lYPsGRQJ1GHH2UrvJ9-43" edge="1">
          <mxGeometry width="50" height="50" relative="1" as="geometry">
            <mxPoint x="-1060" y="2632.4399999999996" as="sourcePoint" />
            <mxPoint x="-1010" y="2582.4399999999996" as="targetPoint" />
          </mxGeometry>
        </mxCell>
        <mxCell id="A5lYPsGRQJ1GHH2UrvJ9-47" value="" style="endArrow=classic;html=1;rounded=0;exitX=0;exitY=0.5;exitDx=0;exitDy=0;entryX=1;entryY=0.5;entryDx=0;entryDy=0;labelBackgroundColor=none;fontColor=default;fillColor=#b0e3e6;strokeColor=#0e8088;edgeStyle=orthogonalEdgeStyle;curved=1;" parent="1" source="A5lYPsGRQJ1GHH2UrvJ9-41" target="A5lYPsGRQJ1GHH2UrvJ9-44" edge="1">
          <mxGeometry width="50" height="50" relative="1" as="geometry">
            <mxPoint x="-1070" y="2622.4399999999996" as="sourcePoint" />
            <mxPoint x="-1020" y="2572.4399999999996" as="targetPoint" />
          </mxGeometry>
        </mxCell>
        <mxCell id="A5lYPsGRQJ1GHH2UrvJ9-48" value="" style="endArrow=classic;html=1;rounded=0;exitX=0;exitY=0.5;exitDx=0;exitDy=0;entryX=1;entryY=0.5;entryDx=0;entryDy=0;labelBackgroundColor=none;fontColor=default;fillColor=#b0e3e6;strokeColor=#0e8088;edgeStyle=orthogonalEdgeStyle;curved=1;" parent="1" source="A5lYPsGRQJ1GHH2UrvJ9-41" target="A5lYPsGRQJ1GHH2UrvJ9-45" edge="1">
          <mxGeometry width="50" height="50" relative="1" as="geometry">
            <mxPoint x="-1070" y="2622.4399999999996" as="sourcePoint" />
            <mxPoint x="-1020" y="2572.4399999999996" as="targetPoint" />
            <Array as="points">
              <mxPoint x="-1076.25" y="2512.4399999999996" />
              <mxPoint x="-1076.25" y="2822.4399999999996" />
            </Array>
          </mxGeometry>
        </mxCell>
        <mxCell id="A5lYPsGRQJ1GHH2UrvJ9-49" value="Кнопка отдалить карту" style="rounded=1;whiteSpace=wrap;html=1;arcSize=22;labelBackgroundColor=none;fillColor=#b0e3e6;strokeColor=#0e8088;" parent="1" vertex="1">
          <mxGeometry x="-1410" y="2985.4399999999996" width="150" height="50" as="geometry" />
        </mxCell>
        <mxCell id="A5lYPsGRQJ1GHH2UrvJ9-50" value="Кнопка приблизить карту" style="rounded=1;whiteSpace=wrap;html=1;arcSize=22;labelBackgroundColor=none;fillColor=#b0e3e6;strokeColor=#0e8088;" parent="1" vertex="1">
          <mxGeometry x="-1410" y="2915.4399999999996" width="150" height="40" as="geometry" />
        </mxCell>
        <mxCell id="A5lYPsGRQJ1GHH2UrvJ9-53" value="Ползунок" style="rounded=1;whiteSpace=wrap;html=1;arcSize=22;labelBackgroundColor=none;fillColor=#b0e3e6;strokeColor=#0e8088;" parent="1" vertex="1">
          <mxGeometry x="-1410" y="3067.4399999999996" width="150" height="40" as="geometry" />
        </mxCell>
        <mxCell id="A5lYPsGRQJ1GHH2UrvJ9-59" value="" style="endArrow=classic;html=1;rounded=0;entryX=1;entryY=0.5;entryDx=0;entryDy=0;exitX=0;exitY=0.5;exitDx=0;exitDy=0;labelBackgroundColor=none;fontColor=default;fillColor=#b0e3e6;strokeColor=#0e8088;edgeStyle=orthogonalEdgeStyle;curved=1;" parent="1" source="GoWqnwifKlF_Yr-xNYbi-3" target="A5lYPsGRQJ1GHH2UrvJ9-40" edge="1">
          <mxGeometry width="50" height="50" relative="1" as="geometry">
            <mxPoint x="-540" y="1430" as="sourcePoint" />
            <mxPoint x="-490" y="1380" as="targetPoint" />
            <Array as="points">
              <mxPoint x="-540" y="470" />
              <mxPoint x="-540" y="1850" />
              <mxPoint x="-510" y="1850" />
              <mxPoint x="-510" y="2230" />
              <mxPoint x="-520" y="2230" />
              <mxPoint x="-520" y="2340" />
              <mxPoint x="-590" y="2340" />
              <mxPoint x="-590" y="2430" />
              <mxPoint x="-620" y="2430" />
              <mxPoint x="-620" y="2497" />
            </Array>
          </mxGeometry>
        </mxCell>
        <mxCell id="A5lYPsGRQJ1GHH2UrvJ9-61" value="Поле ввода &quot;времени&quot;" style="rounded=1;whiteSpace=wrap;html=1;arcSize=22;labelBackgroundColor=none;fillColor=#21C0A5;strokeColor=#006658;fontColor=#5C5C5C;" parent="1" vertex="1">
          <mxGeometry x="330" y="610" width="120" height="40" as="geometry" />
        </mxCell>
        <mxCell id="A5lYPsGRQJ1GHH2UrvJ9-62" value="Поле ввода &quot;адреса&quot;" style="rounded=1;whiteSpace=wrap;html=1;arcSize=22;labelBackgroundColor=none;fillColor=#21C0A5;strokeColor=#006658;fontColor=#5C5C5C;" parent="1" vertex="1">
          <mxGeometry x="230.56" y="1281.25" width="120" height="40" as="geometry" />
        </mxCell>
        <mxCell id="A5lYPsGRQJ1GHH2UrvJ9-63" value="Шапка Логотип Яндекс.Маршруты" style="rounded=1;whiteSpace=wrap;html=1;arcSize=22;labelBackgroundColor=none;fillColor=#21C0A5;strokeColor=#006658;fontColor=#5C5C5C;" parent="1" vertex="1">
          <mxGeometry x="88.75" y="135" width="120" height="40" as="geometry" />
        </mxCell>
        <mxCell id="A5lYPsGRQJ1GHH2UrvJ9-64" style="edgeStyle=orthogonalEdgeStyle;rounded=0;orthogonalLoop=1;jettySize=auto;html=1;exitX=0.5;exitY=1;exitDx=0;exitDy=0;labelBackgroundColor=none;strokeColor=#006658;fontColor=default;" parent="1" source="A5lYPsGRQJ1GHH2UrvJ9-63" target="A5lYPsGRQJ1GHH2UrvJ9-63" edge="1">
          <mxGeometry relative="1" as="geometry" />
        </mxCell>
        <mxCell id="A5lYPsGRQJ1GHH2UrvJ9-65" value="Логотип Яндекс" style="rounded=1;whiteSpace=wrap;html=1;arcSize=22;labelBackgroundColor=none;fillColor=#21C0A5;strokeColor=#006658;fontColor=#5C5C5C;" parent="1" vertex="1">
          <mxGeometry x="278.75" y="95" width="120" height="40" as="geometry" />
        </mxCell>
        <mxCell id="A5lYPsGRQJ1GHH2UrvJ9-66" value="Логотип Маршруты" style="rounded=1;whiteSpace=wrap;html=1;arcSize=22;labelBackgroundColor=none;fillColor=#21C0A5;strokeColor=#006658;fontColor=#5C5C5C;" parent="1" vertex="1">
          <mxGeometry x="278.75" y="185" width="120" height="40" as="geometry" />
        </mxCell>
        <mxCell id="A5lYPsGRQJ1GHH2UrvJ9-67" value="" style="endArrow=classic;html=1;rounded=0;exitX=1;exitY=0.5;exitDx=0;exitDy=0;entryX=0;entryY=0.5;entryDx=0;entryDy=0;labelBackgroundColor=none;strokeColor=#006658;fontColor=default;edgeStyle=orthogonalEdgeStyle;curved=1;" parent="1" source="A5lYPsGRQJ1GHH2UrvJ9-63" target="A5lYPsGRQJ1GHH2UrvJ9-66" edge="1">
          <mxGeometry width="50" height="50" relative="1" as="geometry">
            <mxPoint x="108.75" y="330" as="sourcePoint" />
            <mxPoint x="258.75" y="175" as="targetPoint" />
          </mxGeometry>
        </mxCell>
        <mxCell id="A5lYPsGRQJ1GHH2UrvJ9-68" value="" style="endArrow=classic;html=1;rounded=0;entryX=0;entryY=0.5;entryDx=0;entryDy=0;exitX=1;exitY=0.5;exitDx=0;exitDy=0;labelBackgroundColor=none;strokeColor=#006658;fontColor=default;edgeStyle=orthogonalEdgeStyle;curved=1;" parent="1" source="A5lYPsGRQJ1GHH2UrvJ9-63" target="A5lYPsGRQJ1GHH2UrvJ9-65" edge="1">
          <mxGeometry width="50" height="50" relative="1" as="geometry">
            <mxPoint x="218.75" y="155" as="sourcePoint" />
            <mxPoint x="288.75" y="120" as="targetPoint" />
          </mxGeometry>
        </mxCell>
        <mxCell id="A5lYPsGRQJ1GHH2UrvJ9-71" value="" style="endArrow=classic;html=1;rounded=0;entryX=0;entryY=0.5;entryDx=0;entryDy=0;exitX=1;exitY=0.5;exitDx=0;exitDy=0;labelBackgroundColor=none;strokeColor=#006658;fontColor=default;edgeStyle=orthogonalEdgeStyle;curved=1;" parent="1" source="qn3d2HcTWaKksIYHcs9O-5" target="A5lYPsGRQJ1GHH2UrvJ9-63" edge="1">
          <mxGeometry width="50" height="50" relative="1" as="geometry">
            <mxPoint x="50" y="360" as="sourcePoint" />
            <mxPoint x="100" y="310" as="targetPoint" />
          </mxGeometry>
        </mxCell>
        <mxCell id="A5lYPsGRQJ1GHH2UrvJ9-77" value="Поле &quot;часы&quot;" style="rounded=1;whiteSpace=wrap;html=1;arcSize=22;labelBackgroundColor=none;fillColor=#21C0A5;strokeColor=#006658;fontColor=#5C5C5C;" parent="1" vertex="1">
          <mxGeometry x="566.25" y="443.75" width="120" height="40" as="geometry" />
        </mxCell>
        <mxCell id="A5lYPsGRQJ1GHH2UrvJ9-87" value="" style="endArrow=classic;html=1;rounded=0;entryX=0;entryY=0.5;entryDx=0;entryDy=0;labelBackgroundColor=none;strokeColor=#006658;fontColor=default;exitX=1;exitY=0.5;exitDx=0;exitDy=0;" parent="1" source="b9gM4gOocdvL3oOeD4PQ-16" target="s1LpaKvmIa9BUWUZ4o1i-129" edge="1">
          <mxGeometry width="50" height="50" relative="1" as="geometry">
            <mxPoint x="1202.43" y="549.25" as="sourcePoint" />
            <mxPoint x="1292.43" y="413.7499999999998" as="targetPoint" />
          </mxGeometry>
        </mxCell>
        <mxCell id="A5lYPsGRQJ1GHH2UrvJ9-103" value="Поле &quot;Откуда&quot;" style="rounded=1;whiteSpace=wrap;html=1;arcSize=22;labelBackgroundColor=none;fillColor=#21C0A5;strokeColor=#006658;fontColor=#5C5C5C;" parent="1" vertex="1">
          <mxGeometry x="566.25" y="1268.75" width="120" height="40" as="geometry" />
        </mxCell>
        <mxCell id="A5lYPsGRQJ1GHH2UrvJ9-104" value="" style="endArrow=classic;html=1;rounded=0;exitX=1;exitY=0.5;exitDx=0;exitDy=0;entryX=0;entryY=0.5;entryDx=0;entryDy=0;labelBackgroundColor=none;strokeColor=#006658;fontColor=default;edgeStyle=orthogonalEdgeStyle;curved=1;" parent="1" source="A5lYPsGRQJ1GHH2UrvJ9-62" target="A5lYPsGRQJ1GHH2UrvJ9-103" edge="1">
          <mxGeometry width="50" height="50" relative="1" as="geometry">
            <mxPoint x="436.44" y="1286.25" as="sourcePoint" />
            <mxPoint x="456.44" y="1206.25" as="targetPoint" />
          </mxGeometry>
        </mxCell>
        <mxCell id="A5lYPsGRQJ1GHH2UrvJ9-115" value="Ввод валидного значения" style="rounded=1;whiteSpace=wrap;html=1;arcSize=22;labelBackgroundColor=none;fillColor=#21C0A5;strokeColor=#006658;fontColor=#5C5C5C;" parent="1" vertex="1">
          <mxGeometry x="1151.8500000000001" y="1433" width="120" height="40" as="geometry" />
        </mxCell>
        <mxCell id="A5lYPsGRQJ1GHH2UrvJ9-116" value="" style="endArrow=classic;html=1;rounded=0;exitX=1;exitY=0.5;exitDx=0;exitDy=0;entryX=0;entryY=0.5;entryDx=0;entryDy=0;labelBackgroundColor=none;strokeColor=#006658;fontColor=default;edgeStyle=orthogonalEdgeStyle;curved=1;" parent="1" source="A5lYPsGRQJ1GHH2UrvJ9-115" target="A5lYPsGRQJ1GHH2UrvJ9-242" edge="1">
          <mxGeometry width="50" height="50" relative="1" as="geometry">
            <mxPoint x="1368.1000000000001" y="1513" as="sourcePoint" />
            <mxPoint x="1308.1000000000001" y="1453" as="targetPoint" />
          </mxGeometry>
        </mxCell>
        <mxCell id="A5lYPsGRQJ1GHH2UrvJ9-118" style="edgeStyle=orthogonalEdgeStyle;rounded=0;orthogonalLoop=1;jettySize=auto;html=1;exitX=0.5;exitY=1;exitDx=0;exitDy=0;labelBackgroundColor=none;strokeColor=#006658;fontColor=default;" parent="1" edge="1">
          <mxGeometry relative="1" as="geometry">
            <mxPoint x="1415.6500000000003" y="1585.75" as="sourcePoint" />
            <mxPoint x="1415.6500000000003" y="1585.75" as="targetPoint" />
          </mxGeometry>
        </mxCell>
        <mxCell id="A5lYPsGRQJ1GHH2UrvJ9-119" value="Ввод не корректного значения" style="rounded=1;whiteSpace=wrap;html=1;arcSize=22;labelBackgroundColor=none;fillColor=#21C0A5;strokeColor=#006658;fontColor=#5C5C5C;" parent="1" vertex="1">
          <mxGeometry x="1151.2200000000003" y="1529.75" width="123.75" height="40" as="geometry" />
        </mxCell>
        <mxCell id="A5lYPsGRQJ1GHH2UrvJ9-120" value="Ошибка &quot;Вы ввели некорректный адрес&quot;" style="rounded=1;whiteSpace=wrap;html=1;arcSize=22;strokeColor=#006658;labelBackgroundColor=none;fillColor=#21C0A5;fontColor=#5C5C5C;" parent="1" vertex="1">
          <mxGeometry x="1328.15" y="1528.5" width="187.45" height="42.5" as="geometry" />
        </mxCell>
        <mxCell id="A5lYPsGRQJ1GHH2UrvJ9-131" value="Режим &quot;Оптимальный&quot;" style="rounded=1;whiteSpace=wrap;html=1;arcSize=22;labelBackgroundColor=none;fillColor=#21C0A5;strokeColor=#006658;fontColor=#5C5C5C;" parent="1" vertex="1">
          <mxGeometry x="634.5" y="2146.49" width="165.5" height="45" as="geometry" />
        </mxCell>
        <mxCell id="A5lYPsGRQJ1GHH2UrvJ9-133" value="Режим &quot;Свой&quot;" style="rounded=1;whiteSpace=wrap;html=1;arcSize=22;labelBackgroundColor=none;fillColor=#21C0A5;strokeColor=#006658;fontColor=#5C5C5C;" parent="1" vertex="1">
          <mxGeometry x="637.5" y="2752.0200000000004" width="183.75" height="43.5" as="geometry" />
        </mxCell>
        <mxCell id="A5lYPsGRQJ1GHH2UrvJ9-134" value="" style="endArrow=classic;html=1;rounded=0;exitX=1;exitY=0.5;exitDx=0;exitDy=0;entryX=0;entryY=0.5;entryDx=0;entryDy=0;labelBackgroundColor=none;strokeColor=#006658;fontColor=default;edgeStyle=orthogonalEdgeStyle;curved=1;" parent="1" source="b9gM4gOocdvL3oOeD4PQ-210" target="A5lYPsGRQJ1GHH2UrvJ9-133" edge="1">
          <mxGeometry width="50" height="50" relative="1" as="geometry">
            <mxPoint x="224.5" y="2306.4900000000002" as="sourcePoint" />
            <mxPoint x="204.5" y="2221.4900000000002" as="targetPoint" />
            <Array as="points">
              <mxPoint x="565" y="2216.9900000000002" />
              <mxPoint x="565" y="2683.9900000000002" />
              <mxPoint x="585" y="2683.9900000000002" />
              <mxPoint x="585" y="2773.9900000000002" />
            </Array>
          </mxGeometry>
        </mxCell>
        <mxCell id="A5lYPsGRQJ1GHH2UrvJ9-137" value="Система автоматически назначит вид транспорта" style="rounded=1;whiteSpace=wrap;html=1;arcSize=22;labelBackgroundColor=none;fillColor=#21C0A5;strokeColor=#006658;fontColor=#5C5C5C;" parent="1" vertex="1">
          <mxGeometry x="903.25" y="2091.4900000000002" width="157.5" height="31.25" as="geometry" />
        </mxCell>
        <mxCell id="A5lYPsGRQJ1GHH2UrvJ9-138" value="Система автоматически построит маршрут" style="rounded=1;whiteSpace=wrap;html=1;arcSize=22;labelBackgroundColor=none;fillColor=#21C0A5;strokeColor=#006658;fontColor=#5C5C5C;" parent="1" vertex="1">
          <mxGeometry x="903.25" y="2146.49" width="156.75" height="31.25" as="geometry" />
        </mxCell>
        <mxCell id="A5lYPsGRQJ1GHH2UrvJ9-234" value="&lt;font style=&quot;font-size: 10px;&quot; color=&quot;#f20707&quot;&gt;Поле подсвечивается красным&lt;/font&gt;" style="text;strokeColor=none;fillColor=none;html=1;fontSize=24;fontStyle=1;verticalAlign=middle;align=center;labelBackgroundColor=none;fontColor=#5C5C5C;" parent="1" vertex="1">
          <mxGeometry x="1282.43" y="606.25" width="100" height="40" as="geometry" />
        </mxCell>
        <mxCell id="A5lYPsGRQJ1GHH2UrvJ9-242" value="Точка &quot;А&quot; отображается на карте" style="rounded=1;whiteSpace=wrap;html=1;arcSize=22;fillColor=#21C0A5;labelBackgroundColor=none;strokeColor=#006658;fontColor=#5C5C5C;" parent="1" vertex="1">
          <mxGeometry x="1328.3500000000001" y="1428" width="190" height="50" as="geometry" />
        </mxCell>
        <mxCell id="A5lYPsGRQJ1GHH2UrvJ9-243" value="&lt;span style=&quot;color: rgb(242, 7, 7); font-family: Helvetica; font-size: 10px; font-style: normal; font-variant-ligatures: normal; font-variant-caps: normal; font-weight: 700; letter-spacing: normal; orphans: 2; text-align: center; text-indent: 0px; text-transform: none; widows: 2; word-spacing: 0px; -webkit-text-stroke-width: 0px; background-color: rgb(251, 251, 251); text-decoration-thickness: initial; text-decoration-style: initial; text-decoration-color: initial; float: none; display: inline !important;&quot;&gt;Поле подсвечивается красным&lt;/span&gt;" style="text;whiteSpace=wrap;html=1;labelBackgroundColor=none;fontColor=#5C5C5C;" parent="1" vertex="1">
          <mxGeometry x="1336.9" y="1498" width="190" height="56" as="geometry" />
        </mxCell>
        <mxCell id="A5lYPsGRQJ1GHH2UrvJ9-250" value="Карта" style="rounded=1;whiteSpace=wrap;html=1;arcSize=22;labelBackgroundColor=none;fillColor=#21C0A5;strokeColor=#006658;fontColor=#5C5C5C;" parent="1" vertex="1">
          <mxGeometry x="185.45" y="3766" width="120" height="40" as="geometry" />
        </mxCell>
        <mxCell id="A5lYPsGRQJ1GHH2UrvJ9-251" style="edgeStyle=orthogonalEdgeStyle;rounded=0;orthogonalLoop=1;jettySize=auto;html=1;exitX=0.5;exitY=1;exitDx=0;exitDy=0;labelBackgroundColor=none;strokeColor=#006658;fontColor=default;" parent="1" edge="1">
          <mxGeometry relative="1" as="geometry">
            <mxPoint x="456.99000000000007" y="3030.6100000000006" as="sourcePoint" />
            <mxPoint x="456.99000000000007" y="3030.6100000000006" as="targetPoint" />
          </mxGeometry>
        </mxCell>
        <mxCell id="A5lYPsGRQJ1GHH2UrvJ9-254" value="Гиперссылка&lt;br&gt;&quot;Условия использования&quot;" style="rounded=1;whiteSpace=wrap;html=1;arcSize=22;labelBackgroundColor=none;fillColor=#21C0A5;strokeColor=#006658;fontColor=#5C5C5C;" parent="1" vertex="1">
          <mxGeometry x="471.2" y="4170" width="160" height="50" as="geometry" />
        </mxCell>
        <mxCell id="A5lYPsGRQJ1GHH2UrvJ9-256" value="Клик по кнопке &quot;+&quot; для увеличения масштаба" style="rounded=1;whiteSpace=wrap;html=1;arcSize=22;labelBackgroundColor=none;fillColor=#21C0A5;strokeColor=#006658;fontColor=#5C5C5C;" parent="1" vertex="1">
          <mxGeometry x="1143.44" y="3991.25" width="120" height="40" as="geometry" />
        </mxCell>
        <mxCell id="A5lYPsGRQJ1GHH2UrvJ9-257" value="Клик по кнопке &quot;-&quot; для уменьшения масштаба" style="rounded=1;whiteSpace=wrap;html=1;arcSize=22;labelBackgroundColor=none;fillColor=#21C0A5;strokeColor=#006658;fontColor=#5C5C5C;" parent="1" vertex="1">
          <mxGeometry x="1140.94" y="4071.25" width="120" height="42.5" as="geometry" />
        </mxCell>
        <mxCell id="A5lYPsGRQJ1GHH2UrvJ9-258" value="" style="endArrow=classic;html=1;rounded=0;exitX=1;exitY=0.5;exitDx=0;exitDy=0;entryX=0;entryY=0.5;entryDx=0;entryDy=0;labelBackgroundColor=none;strokeColor=#025157;fontColor=default;fillColor=#008a00;" parent="1" source="b9gM4gOocdvL3oOeD4PQ-259" target="A5lYPsGRQJ1GHH2UrvJ9-256" edge="1">
          <mxGeometry width="50" height="50" relative="1" as="geometry">
            <mxPoint x="1341.63" y="4003.75" as="sourcePoint" />
            <mxPoint x="1566.63" y="4083.75" as="targetPoint" />
          </mxGeometry>
        </mxCell>
        <mxCell id="A5lYPsGRQJ1GHH2UrvJ9-260" value="Перемещения ползунка вверх для увеличения масштаба" style="rounded=1;whiteSpace=wrap;html=1;arcSize=22;labelBackgroundColor=none;fillColor=#21C0A5;strokeColor=#006658;fontColor=#5C5C5C;" parent="1" vertex="1">
          <mxGeometry x="1140.94" y="4141.25" width="120" height="60" as="geometry" />
        </mxCell>
        <mxCell id="A5lYPsGRQJ1GHH2UrvJ9-265" value="Перемещения ползунка вниз для уменьшения масштаба" style="rounded=1;whiteSpace=wrap;html=1;arcSize=22;labelBackgroundColor=none;fillColor=#21C0A5;strokeColor=#006658;fontColor=#5C5C5C;" parent="1" vertex="1">
          <mxGeometry x="1143.44" y="4221.25" width="120" height="60" as="geometry" />
        </mxCell>
        <mxCell id="A5lYPsGRQJ1GHH2UrvJ9-268" value="Отображение маршрута" style="rounded=1;whiteSpace=wrap;html=1;arcSize=22;labelBackgroundColor=none;fillColor=#21C0A5;strokeColor=#006658;fontColor=#5C5C5C;" parent="1" vertex="1">
          <mxGeometry x="561.7" y="3679.5" width="120" height="40" as="geometry" />
        </mxCell>
        <mxCell id="A5lYPsGRQJ1GHH2UrvJ9-271" value="Построенный маршрут отображается в виде непрерывной фиолетовой линии между точками &quot;А&quot; и &quot;В&quot;" style="rounded=1;whiteSpace=wrap;html=1;arcSize=22;labelBackgroundColor=none;fillColor=#21C0A5;strokeColor=#006658;fontColor=#5C5C5C;" parent="1" vertex="1">
          <mxGeometry x="768.33" y="3850" width="221.62" height="70" as="geometry" />
        </mxCell>
        <mxCell id="s1LpaKvmIa9BUWUZ4o1i-22" value="" style="endArrow=classic;html=1;rounded=0;exitX=0;exitY=0.5;exitDx=0;exitDy=0;entryX=1;entryY=0.5;entryDx=0;entryDy=0;labelBackgroundColor=none;fontColor=default;fillColor=#b0e3e6;strokeColor=#0e8088;edgeStyle=orthogonalEdgeStyle;curved=1;" parent="1" source="A5lYPsGRQJ1GHH2UrvJ9-10" target="A5lYPsGRQJ1GHH2UrvJ9-8" edge="1">
          <mxGeometry width="50" height="50" relative="1" as="geometry">
            <mxPoint x="-1270" y="380" as="sourcePoint" />
            <mxPoint x="-1230" y="330" as="targetPoint" />
          </mxGeometry>
        </mxCell>
        <mxCell id="s1LpaKvmIa9BUWUZ4o1i-23" value="" style="endArrow=classic;html=1;rounded=0;exitX=0;exitY=0.5;exitDx=0;exitDy=0;labelBackgroundColor=none;fontColor=default;fillColor=#b0e3e6;strokeColor=#0e8088;entryX=1;entryY=0.4;entryDx=0;entryDy=0;entryPerimeter=0;edgeStyle=orthogonalEdgeStyle;curved=1;" parent="1" source="A5lYPsGRQJ1GHH2UrvJ9-10" target="A5lYPsGRQJ1GHH2UrvJ9-9" edge="1">
          <mxGeometry width="50" height="50" relative="1" as="geometry">
            <mxPoint x="-940" y="450" as="sourcePoint" />
            <mxPoint x="-1010" y="418" as="targetPoint" />
          </mxGeometry>
        </mxCell>
        <mxCell id="s1LpaKvmIa9BUWUZ4o1i-37" value="Белая буква &quot;А&quot; в красном кружке" style="rounded=1;whiteSpace=wrap;html=1;arcSize=22;labelBackgroundColor=none;fillColor=#b0e3e6;strokeColor=#0e8088;" parent="1" vertex="1">
          <mxGeometry x="-1390" y="2364.9399999999996" width="120" height="40" as="geometry" />
        </mxCell>
        <mxCell id="s1LpaKvmIa9BUWUZ4o1i-38" value="" style="endArrow=classic;html=1;rounded=0;exitX=0;exitY=0.5;exitDx=0;exitDy=0;entryX=1;entryY=0.5;entryDx=0;entryDy=0;labelBackgroundColor=none;fontColor=default;fillColor=#b0e3e6;strokeColor=#0e8088;edgeStyle=orthogonalEdgeStyle;curved=1;" parent="1" source="A5lYPsGRQJ1GHH2UrvJ9-43" target="s1LpaKvmIa9BUWUZ4o1i-37" edge="1">
          <mxGeometry width="50" height="50" relative="1" as="geometry">
            <mxPoint x="-1320" y="2582.4399999999996" as="sourcePoint" />
            <mxPoint x="-1270" y="2387.4399999999996" as="targetPoint" />
          </mxGeometry>
        </mxCell>
        <mxCell id="s1LpaKvmIa9BUWUZ4o1i-39" value="Белая буква &quot;В&quot; в синем кружке" style="rounded=1;whiteSpace=wrap;html=1;arcSize=22;labelBackgroundColor=none;fillColor=#b0e3e6;strokeColor=#0e8088;" parent="1" vertex="1">
          <mxGeometry x="-1390" y="2562.4399999999996" width="120" height="40" as="geometry" />
        </mxCell>
        <mxCell id="s1LpaKvmIa9BUWUZ4o1i-40" value="" style="endArrow=classic;html=1;rounded=0;exitX=0;exitY=0.5;exitDx=0;exitDy=0;entryX=1;entryY=0.5;entryDx=0;entryDy=0;labelBackgroundColor=none;fontColor=default;fillColor=#b0e3e6;strokeColor=#0e8088;edgeStyle=orthogonalEdgeStyle;curved=1;" parent="1" source="A5lYPsGRQJ1GHH2UrvJ9-44" target="s1LpaKvmIa9BUWUZ4o1i-39" edge="1">
          <mxGeometry width="50" height="50" relative="1" as="geometry">
            <mxPoint x="-1230" y="2522.4399999999996" as="sourcePoint" />
            <mxPoint x="-1290" y="2562.4399999999996" as="targetPoint" />
          </mxGeometry>
        </mxCell>
        <mxCell id="s1LpaKvmIa9BUWUZ4o1i-41" value="Маршрут отображается линией фиолетового цвета" style="rounded=1;whiteSpace=wrap;html=1;arcSize=22;labelBackgroundColor=none;fillColor=#b0e3e6;strokeColor=#0e8088;" parent="1" vertex="1">
          <mxGeometry x="-1410" y="2793.88" width="130" height="56.5" as="geometry" />
        </mxCell>
        <mxCell id="s1LpaKvmIa9BUWUZ4o1i-43" value="" style="endArrow=classic;html=1;rounded=0;exitX=0;exitY=0.5;exitDx=0;exitDy=0;entryX=1;entryY=0.5;entryDx=0;entryDy=0;labelBackgroundColor=none;fontColor=default;fillColor=#b0e3e6;strokeColor=#0e8088;edgeStyle=orthogonalEdgeStyle;curved=1;" parent="1" source="A5lYPsGRQJ1GHH2UrvJ9-43" target="b9gM4gOocdvL3oOeD4PQ-242" edge="1">
          <mxGeometry width="50" height="50" relative="1" as="geometry">
            <mxPoint x="-1460" y="2532.4399999999996" as="sourcePoint" />
            <mxPoint x="-1270" y="2457.4399999999996" as="targetPoint" />
          </mxGeometry>
        </mxCell>
        <mxCell id="s1LpaKvmIa9BUWUZ4o1i-44" value="Название улицы и номер дома,&lt;br&gt;&amp;nbsp;отображается черными буквами на белом фоне" style="rounded=1;whiteSpace=wrap;html=1;arcSize=22;labelBackgroundColor=none;fillColor=#b0e3e6;strokeColor=#0e8088;" parent="1" vertex="1">
          <mxGeometry x="-1570" y="2642.4399999999996" width="300" height="40" as="geometry" />
        </mxCell>
        <mxCell id="s1LpaKvmIa9BUWUZ4o1i-45" value="" style="endArrow=classic;html=1;rounded=0;exitX=0;exitY=0.5;exitDx=0;exitDy=0;entryX=1;entryY=0.5;entryDx=0;entryDy=0;labelBackgroundColor=none;fontColor=default;fillColor=#b0e3e6;strokeColor=#0e8088;edgeStyle=orthogonalEdgeStyle;curved=1;" parent="1" source="A5lYPsGRQJ1GHH2UrvJ9-44" target="s1LpaKvmIa9BUWUZ4o1i-44" edge="1">
          <mxGeometry width="50" height="50" relative="1" as="geometry">
            <mxPoint x="-1010" y="2692.4399999999996" as="sourcePoint" />
            <mxPoint x="-960" y="2642.4399999999996" as="targetPoint" />
          </mxGeometry>
        </mxCell>
        <mxCell id="s1LpaKvmIa9BUWUZ4o1i-46" value="" style="endArrow=classic;html=1;rounded=0;exitX=0;exitY=0.5;exitDx=0;exitDy=0;entryX=1;entryY=0.5;entryDx=0;entryDy=0;labelBackgroundColor=none;fontColor=default;fillColor=#b0e3e6;strokeColor=#0e8088;" parent="1" source="A5lYPsGRQJ1GHH2UrvJ9-45" target="s1LpaKvmIa9BUWUZ4o1i-41" edge="1">
          <mxGeometry width="50" height="50" relative="1" as="geometry">
            <mxPoint x="-1220" y="2907.13" as="sourcePoint" />
            <mxPoint x="-1170" y="2857.13" as="targetPoint" />
          </mxGeometry>
        </mxCell>
        <mxCell id="s1LpaKvmIa9BUWUZ4o1i-55" value="Белый квадрат с знаком&lt;br&gt;&amp;nbsp;&quot;+&quot;" style="rounded=1;whiteSpace=wrap;html=1;arcSize=22;labelBackgroundColor=none;fillColor=#b0e3e6;strokeColor=#0e8088;" parent="1" vertex="1">
          <mxGeometry x="-1570" y="2917.9399999999996" width="110" height="37.5" as="geometry" />
        </mxCell>
        <mxCell id="s1LpaKvmIa9BUWUZ4o1i-61" value="Белый квадрат с знаком&lt;br&gt;&amp;nbsp;&quot;-&quot;" style="rounded=1;whiteSpace=wrap;html=1;arcSize=22;labelBackgroundColor=none;fillColor=#b0e3e6;strokeColor=#0e8088;" parent="1" vertex="1">
          <mxGeometry x="-1570" y="2990.4399999999996" width="110" height="40" as="geometry" />
        </mxCell>
        <mxCell id="s1LpaKvmIa9BUWUZ4o1i-62" value="" style="endArrow=classic;html=1;rounded=0;exitX=0;exitY=0.5;exitDx=0;exitDy=0;entryX=1;entryY=0.5;entryDx=0;entryDy=0;labelBackgroundColor=none;fontColor=default;fillColor=#b0e3e6;strokeColor=#0e8088;" parent="1" source="A5lYPsGRQJ1GHH2UrvJ9-50" target="s1LpaKvmIa9BUWUZ4o1i-55" edge="1">
          <mxGeometry width="50" height="50" relative="1" as="geometry">
            <mxPoint x="-1440" y="2917.9399999999996" as="sourcePoint" />
            <mxPoint x="-1390" y="2867.9399999999996" as="targetPoint" />
          </mxGeometry>
        </mxCell>
        <mxCell id="s1LpaKvmIa9BUWUZ4o1i-63" value="" style="endArrow=classic;html=1;rounded=0;exitX=0;exitY=0.5;exitDx=0;exitDy=0;entryX=1;entryY=0.5;entryDx=0;entryDy=0;labelBackgroundColor=none;fontColor=default;fillColor=#b0e3e6;strokeColor=#0e8088;" parent="1" source="A5lYPsGRQJ1GHH2UrvJ9-49" target="s1LpaKvmIa9BUWUZ4o1i-61" edge="1">
          <mxGeometry width="50" height="50" relative="1" as="geometry">
            <mxPoint x="-1570" y="3117.9399999999996" as="sourcePoint" />
            <mxPoint x="-1520" y="3067.9399999999996" as="targetPoint" />
          </mxGeometry>
        </mxCell>
        <mxCell id="s1LpaKvmIa9BUWUZ4o1i-64" value="Белый прямоугольник на прозрачной шкале" style="rounded=1;whiteSpace=wrap;html=1;arcSize=22;labelBackgroundColor=none;fillColor=#b0e3e6;strokeColor=#0e8088;" parent="1" vertex="1">
          <mxGeometry x="-1570" y="3067.4399999999996" width="110" height="40" as="geometry" />
        </mxCell>
        <mxCell id="s1LpaKvmIa9BUWUZ4o1i-65" value="" style="endArrow=classic;html=1;rounded=0;exitX=0;exitY=0.5;exitDx=0;exitDy=0;entryX=1;entryY=0.5;entryDx=0;entryDy=0;labelBackgroundColor=none;fontColor=default;fillColor=#b0e3e6;strokeColor=#0e8088;" parent="1" source="A5lYPsGRQJ1GHH2UrvJ9-53" target="s1LpaKvmIa9BUWUZ4o1i-64" edge="1">
          <mxGeometry width="50" height="50" relative="1" as="geometry">
            <mxPoint x="-1570" y="3209.9399999999996" as="sourcePoint" />
            <mxPoint x="-1520" y="3159.9399999999996" as="targetPoint" />
          </mxGeometry>
        </mxCell>
        <mxCell id="s1LpaKvmIa9BUWUZ4o1i-66" value="© &lt;b&gt;Яндекс&lt;/b&gt;&amp;nbsp;&lt;u&gt;Условия использования&lt;/u&gt;" style="rounded=1;whiteSpace=wrap;html=1;arcSize=22;labelBackgroundColor=none;fillColor=#b0e3e6;strokeColor=#0e8088;" parent="1" vertex="1">
          <mxGeometry x="-1410" y="3194.9399999999996" width="220" height="40" as="geometry" />
        </mxCell>
        <mxCell id="s1LpaKvmIa9BUWUZ4o1i-76" value="&quot;0&quot; перед однозначным числом систем выставляет автоматически" style="rounded=1;whiteSpace=wrap;html=1;arcSize=22;labelBackgroundColor=none;fillColor=#21C0A5;strokeColor=#006658;fontColor=#5C5C5C;" parent="1" vertex="1">
          <mxGeometry x="793.74" y="430" width="240" height="30" as="geometry" />
        </mxCell>
        <mxCell id="s1LpaKvmIa9BUWUZ4o1i-77" value="Форрмат 24 часа" style="rounded=1;whiteSpace=wrap;html=1;arcSize=22;labelBackgroundColor=none;fillColor=#21C0A5;strokeColor=#006658;fontColor=#5C5C5C;" parent="1" vertex="1">
          <mxGeometry x="793.74" y="480" width="240" height="25" as="geometry" />
        </mxCell>
        <mxCell id="s1LpaKvmIa9BUWUZ4o1i-78" value="Только целые числа" style="rounded=1;whiteSpace=wrap;html=1;arcSize=22;labelBackgroundColor=none;fillColor=#21C0A5;strokeColor=#006658;fontColor=#5C5C5C;" parent="1" vertex="1">
          <mxGeometry x="793.74" y="325" width="240" height="25" as="geometry" />
        </mxCell>
        <mxCell id="s1LpaKvmIa9BUWUZ4o1i-91" value="Ввод не корректного значения" style="rounded=1;whiteSpace=wrap;html=1;arcSize=22;labelBackgroundColor=none;fillColor=#21C0A5;strokeColor=#006658;fontColor=#5C5C5C;" parent="1" vertex="1">
          <mxGeometry x="1093.68" y="636.25" width="120" height="40" as="geometry" />
        </mxCell>
        <mxCell id="s1LpaKvmIa9BUWUZ4o1i-92" value="Появляется ошибка &quot;Вы ввели некорректное время&quot;" style="rounded=1;whiteSpace=wrap;html=1;arcSize=22;strokeColor=#006658;labelBackgroundColor=none;fillColor=#21C0A5;fontColor=#5C5C5C;" parent="1" vertex="1">
          <mxGeometry x="1251.18" y="636.25" width="162.5" height="40" as="geometry" />
        </mxCell>
        <mxCell id="s1LpaKvmIa9BUWUZ4o1i-129" value="В поле ввода отображается часы" style="rounded=1;whiteSpace=wrap;html=1;arcSize=22;fillColor=#21C0A5;labelBackgroundColor=none;strokeColor=#006658;fontColor=#5C5C5C;" parent="1" vertex="1">
          <mxGeometry x="1246.18" y="530" width="165" height="42.5" as="geometry" />
        </mxCell>
        <mxCell id="s1LpaKvmIa9BUWUZ4o1i-135" value="" style="endArrow=classic;html=1;rounded=0;exitX=1;exitY=0.5;exitDx=0;exitDy=0;entryX=0;entryY=0.5;entryDx=0;entryDy=0;labelBackgroundColor=none;strokeColor=#006658;fontColor=default;edgeStyle=orthogonalEdgeStyle;curved=1;" parent="1" source="A5lYPsGRQJ1GHH2UrvJ9-119" target="A5lYPsGRQJ1GHH2UrvJ9-120" edge="1">
          <mxGeometry width="50" height="50" relative="1" as="geometry">
            <mxPoint x="1277.4700000000003" y="1694.75" as="sourcePoint" />
            <mxPoint x="1317.4700000000003" y="1534.75" as="targetPoint" />
          </mxGeometry>
        </mxCell>
        <mxCell id="s1LpaKvmIa9BUWUZ4o1i-161" value="Количество символов от 1&amp;nbsp; до 50 включительно" style="rounded=1;whiteSpace=wrap;html=1;arcSize=22;labelBackgroundColor=none;fillColor=#21C0A5;strokeColor=#006658;fontColor=#5C5C5C;" parent="1" vertex="1">
          <mxGeometry x="815.6" y="1390.5" width="270" height="20" as="geometry" />
        </mxCell>
        <mxCell id="s1LpaKvmIa9BUWUZ4o1i-162" value="Буквы русского алфавита" style="rounded=1;whiteSpace=wrap;html=1;arcSize=22;labelBackgroundColor=none;fillColor=#21C0A5;strokeColor=#006658;fontColor=#5C5C5C;" parent="1" vertex="1">
          <mxGeometry x="815.6" y="1168" width="270" height="20" as="geometry" />
        </mxCell>
        <mxCell id="s1LpaKvmIa9BUWUZ4o1i-164" value="Цифры" style="rounded=1;whiteSpace=wrap;html=1;arcSize=22;labelBackgroundColor=none;fillColor=#21C0A5;strokeColor=#006658;fontColor=#5C5C5C;" parent="1" vertex="1">
          <mxGeometry x="815.6" y="1206.75" width="270" height="20" as="geometry" />
        </mxCell>
        <mxCell id="s1LpaKvmIa9BUWUZ4o1i-165" value="Тире" style="rounded=1;whiteSpace=wrap;html=1;arcSize=22;labelBackgroundColor=none;fillColor=#21C0A5;strokeColor=#006658;fontColor=#5C5C5C;" parent="1" vertex="1">
          <mxGeometry x="815.6" y="1281.75" width="270" height="20" as="geometry" />
        </mxCell>
        <mxCell id="s1LpaKvmIa9BUWUZ4o1i-166" value="Точка" style="rounded=1;whiteSpace=wrap;html=1;arcSize=22;labelBackgroundColor=none;fillColor=#21C0A5;strokeColor=#006658;fontColor=#5C5C5C;" parent="1" vertex="1">
          <mxGeometry x="815.6" y="1319.25" width="270" height="20" as="geometry" />
        </mxCell>
        <mxCell id="s1LpaKvmIa9BUWUZ4o1i-167" value="Пробел" style="rounded=1;whiteSpace=wrap;html=1;arcSize=22;labelBackgroundColor=none;fillColor=#21C0A5;strokeColor=#006658;fontColor=#5C5C5C;" parent="1" vertex="1">
          <mxGeometry x="815.6" y="1246.75" width="270" height="20" as="geometry" />
        </mxCell>
        <mxCell id="s1LpaKvmIa9BUWUZ4o1i-168" value="Запятая" style="rounded=1;whiteSpace=wrap;html=1;arcSize=22;labelBackgroundColor=none;fillColor=#21C0A5;strokeColor=#006658;fontColor=#5C5C5C;" parent="1" vertex="1">
          <mxGeometry x="815.6" y="1351.75" width="270" height="20" as="geometry" />
        </mxCell>
        <mxCell id="s1LpaKvmIa9BUWUZ4o1i-238" value="Отображается если в поле &quot;Откуда&quot; введены валидные данные" style="rounded=1;whiteSpace=wrap;html=1;arcSize=22;labelBackgroundColor=none;fillColor=#21C0A5;strokeColor=#006658;fontColor=#5C5C5C;" parent="1" vertex="1">
          <mxGeometry x="1057.69" y="3580" width="220.37" height="40" as="geometry" />
        </mxCell>
        <mxCell id="b9gM4gOocdvL3oOeD4PQ-11" value="Проверка валидности&amp;nbsp; при снятии фокуса" style="rounded=1;whiteSpace=wrap;html=1;arcSize=22;labelBackgroundColor=none;fillColor=#21C0A5;strokeColor=#006658;fontColor=#5C5C5C;" parent="1" vertex="1">
          <mxGeometry x="791.1800000000001" y="538.75" width="240" height="25" as="geometry" />
        </mxCell>
        <mxCell id="b9gM4gOocdvL3oOeD4PQ-12" value="" style="endArrow=classic;html=1;rounded=0;strokeColor=#006658;fontColor=#5C5C5C;fillColor=#21C0A5;exitX=1;exitY=0.5;exitDx=0;exitDy=0;entryX=0;entryY=0.5;entryDx=0;entryDy=0;edgeStyle=orthogonalEdgeStyle;curved=1;" parent="1" source="b9gM4gOocdvL3oOeD4PQ-11" target="b9gM4gOocdvL3oOeD4PQ-16" edge="1">
          <mxGeometry width="50" height="50" relative="1" as="geometry">
            <mxPoint x="944.9300000000001" y="711.25" as="sourcePoint" />
            <mxPoint x="1044.93" y="593.7550000000001" as="targetPoint" />
          </mxGeometry>
        </mxCell>
        <mxCell id="b9gM4gOocdvL3oOeD4PQ-14" value="" style="endArrow=classic;html=1;rounded=0;strokeColor=#006658;fontColor=#5C5C5C;fillColor=#21C0A5;exitX=1;exitY=0.5;exitDx=0;exitDy=0;entryX=0;entryY=0.5;entryDx=0;entryDy=0;" parent="1" source="s1LpaKvmIa9BUWUZ4o1i-91" target="s1LpaKvmIa9BUWUZ4o1i-92" edge="1">
          <mxGeometry width="50" height="50" relative="1" as="geometry">
            <mxPoint x="1284.93" y="786.25" as="sourcePoint" />
            <mxPoint x="1334.93" y="736.25" as="targetPoint" />
          </mxGeometry>
        </mxCell>
        <mxCell id="b9gM4gOocdvL3oOeD4PQ-15" value="" style="endArrow=classic;html=1;rounded=0;strokeColor=#006658;fontColor=#5C5C5C;fillColor=#21C0A5;exitX=1;exitY=0.5;exitDx=0;exitDy=0;entryX=0;entryY=0.5;entryDx=0;entryDy=0;edgeStyle=orthogonalEdgeStyle;curved=1;" parent="1" source="b9gM4gOocdvL3oOeD4PQ-11" target="s1LpaKvmIa9BUWUZ4o1i-91" edge="1">
          <mxGeometry width="50" height="50" relative="1" as="geometry">
            <mxPoint x="994.9300000000001" y="831.25" as="sourcePoint" />
            <mxPoint x="1024.93" y="691.25" as="targetPoint" />
          </mxGeometry>
        </mxCell>
        <mxCell id="b9gM4gOocdvL3oOeD4PQ-16" value="Ввод корректного значения" style="rounded=1;whiteSpace=wrap;html=1;arcSize=22;labelBackgroundColor=none;fillColor=#21C0A5;strokeColor=#006658;fontColor=#5C5C5C;" parent="1" vertex="1">
          <mxGeometry x="1092.43" y="532.5" width="120" height="40" as="geometry" />
        </mxCell>
        <mxCell id="b9gM4gOocdvL3oOeD4PQ-18" value="Поле &quot;минуты&quot;" style="rounded=1;whiteSpace=wrap;html=1;arcSize=22;labelBackgroundColor=none;fillColor=#21C0A5;strokeColor=#006658;fontColor=#5C5C5C;" parent="1" vertex="1">
          <mxGeometry x="550" y="860" width="120" height="40" as="geometry" />
        </mxCell>
        <mxCell id="b9gM4gOocdvL3oOeD4PQ-19" value="" style="endArrow=classic;html=1;rounded=0;entryX=0;entryY=0.5;entryDx=0;entryDy=0;labelBackgroundColor=none;strokeColor=#006658;fontColor=default;exitX=1;exitY=0.5;exitDx=0;exitDy=0;" parent="1" source="b9gM4gOocdvL3oOeD4PQ-36" target="b9gM4gOocdvL3oOeD4PQ-28" edge="1">
          <mxGeometry width="50" height="50" relative="1" as="geometry">
            <mxPoint x="1221.25" y="951.7499999999999" as="sourcePoint" />
            <mxPoint x="1311.25" y="816.2499999999998" as="targetPoint" />
          </mxGeometry>
        </mxCell>
        <mxCell id="b9gM4gOocdvL3oOeD4PQ-20" value="&lt;font style=&quot;font-size: 10px;&quot; color=&quot;#f20707&quot;&gt;Поле подсвечивается красным&lt;/font&gt;" style="text;strokeColor=none;fillColor=none;html=1;fontSize=24;fontStyle=1;verticalAlign=middle;align=center;labelBackgroundColor=none;fontColor=#5C5C5C;" parent="1" vertex="1">
          <mxGeometry x="1306.25" y="1005.0000000000002" width="100" height="40" as="geometry" />
        </mxCell>
        <mxCell id="b9gM4gOocdvL3oOeD4PQ-22" value="&quot;0&quot; перед однозначным числом систем выставляет автоматически" style="rounded=1;whiteSpace=wrap;html=1;arcSize=22;labelBackgroundColor=none;fillColor=#21C0A5;strokeColor=#006658;fontColor=#5C5C5C;" parent="1" vertex="1">
          <mxGeometry x="806.18" y="880" width="240" height="33.12" as="geometry" />
        </mxCell>
        <mxCell id="b9gM4gOocdvL3oOeD4PQ-24" value="Только целые числа" style="rounded=1;whiteSpace=wrap;html=1;arcSize=22;labelBackgroundColor=none;fillColor=#21C0A5;strokeColor=#006658;fontColor=#5C5C5C;" parent="1" vertex="1">
          <mxGeometry x="810" y="775" width="240" height="25" as="geometry" />
        </mxCell>
        <mxCell id="b9gM4gOocdvL3oOeD4PQ-25" value="Ввод не корректного значения" style="rounded=1;whiteSpace=wrap;html=1;arcSize=22;labelBackgroundColor=none;fillColor=#21C0A5;strokeColor=#006658;fontColor=#5C5C5C;" parent="1" vertex="1">
          <mxGeometry x="1112.5" y="1035.0000000000002" width="120" height="40" as="geometry" />
        </mxCell>
        <mxCell id="b9gM4gOocdvL3oOeD4PQ-26" value="Появляется ошибка &quot;Вы ввели некорректное время&quot;" style="rounded=1;whiteSpace=wrap;html=1;arcSize=22;strokeColor=#006658;labelBackgroundColor=none;fillColor=#21C0A5;fontColor=#5C5C5C;" parent="1" vertex="1">
          <mxGeometry x="1270" y="1035.0000000000002" width="160" height="40" as="geometry" />
        </mxCell>
        <mxCell id="b9gM4gOocdvL3oOeD4PQ-28" value="В поле ввода отображается минуты" style="rounded=1;whiteSpace=wrap;html=1;arcSize=22;fillColor=#21C0A5;labelBackgroundColor=none;strokeColor=#006658;fontColor=#5C5C5C;" parent="1" vertex="1">
          <mxGeometry x="1265" y="929.9999999999999" width="170" height="42.5" as="geometry" />
        </mxCell>
        <mxCell id="b9gM4gOocdvL3oOeD4PQ-32" value="Проверка валидности&amp;nbsp; при снятии фокуса" style="rounded=1;whiteSpace=wrap;html=1;arcSize=22;labelBackgroundColor=none;fillColor=#21C0A5;strokeColor=#006658;fontColor=#5C5C5C;" parent="1" vertex="1">
          <mxGeometry x="810" y="938.75" width="240" height="25" as="geometry" />
        </mxCell>
        <mxCell id="b9gM4gOocdvL3oOeD4PQ-33" value="" style="endArrow=classic;html=1;rounded=0;strokeColor=#006658;fontColor=#5C5C5C;fillColor=#21C0A5;exitX=1;exitY=0.5;exitDx=0;exitDy=0;entryX=0;entryY=0.5;entryDx=0;entryDy=0;edgeStyle=orthogonalEdgeStyle;curved=1;" parent="1" source="b9gM4gOocdvL3oOeD4PQ-32" target="b9gM4gOocdvL3oOeD4PQ-36" edge="1">
          <mxGeometry width="50" height="50" relative="1" as="geometry">
            <mxPoint x="970" y="1068.7500000000002" as="sourcePoint" />
            <mxPoint x="1070" y="951.255" as="targetPoint" />
          </mxGeometry>
        </mxCell>
        <mxCell id="b9gM4gOocdvL3oOeD4PQ-34" value="" style="endArrow=classic;html=1;rounded=0;strokeColor=#006658;fontColor=#5C5C5C;fillColor=#21C0A5;exitX=1;exitY=0.5;exitDx=0;exitDy=0;entryX=0;entryY=0.5;entryDx=0;entryDy=0;" parent="1" source="b9gM4gOocdvL3oOeD4PQ-25" target="b9gM4gOocdvL3oOeD4PQ-26" edge="1">
          <mxGeometry width="50" height="50" relative="1" as="geometry">
            <mxPoint x="1303.75" y="1185.0000000000002" as="sourcePoint" />
            <mxPoint x="1353.75" y="1135.0000000000002" as="targetPoint" />
          </mxGeometry>
        </mxCell>
        <mxCell id="b9gM4gOocdvL3oOeD4PQ-35" value="" style="endArrow=classic;html=1;rounded=0;strokeColor=#006658;fontColor=#5C5C5C;fillColor=#21C0A5;exitX=1;exitY=0.5;exitDx=0;exitDy=0;entryX=0;entryY=0.5;entryDx=0;entryDy=0;edgeStyle=orthogonalEdgeStyle;curved=1;" parent="1" source="b9gM4gOocdvL3oOeD4PQ-32" target="b9gM4gOocdvL3oOeD4PQ-25" edge="1">
          <mxGeometry width="50" height="50" relative="1" as="geometry">
            <mxPoint x="1020" y="1188.7500000000002" as="sourcePoint" />
            <mxPoint x="1050" y="1048.7500000000002" as="targetPoint" />
          </mxGeometry>
        </mxCell>
        <mxCell id="b9gM4gOocdvL3oOeD4PQ-36" value="Ввод некорректного значения" style="rounded=1;whiteSpace=wrap;html=1;arcSize=22;labelBackgroundColor=none;fillColor=#21C0A5;strokeColor=#006658;fontColor=#5C5C5C;" parent="1" vertex="1">
          <mxGeometry x="1111.25" y="932.4999999999999" width="120" height="40" as="geometry" />
        </mxCell>
        <mxCell id="b9gM4gOocdvL3oOeD4PQ-37" value="" style="endArrow=classic;html=1;rounded=0;strokeColor=#006658;fontColor=#5C5C5C;fillColor=#21C0A5;exitX=1;exitY=0.5;exitDx=0;exitDy=0;entryX=0;entryY=0.5;entryDx=0;entryDy=0;edgeStyle=orthogonalEdgeStyle;curved=1;" parent="1" source="A5lYPsGRQJ1GHH2UrvJ9-61" target="b9gM4gOocdvL3oOeD4PQ-18" edge="1">
          <mxGeometry width="50" height="50" relative="1" as="geometry">
            <mxPoint x="380" y="600" as="sourcePoint" />
            <mxPoint x="430" y="550" as="targetPoint" />
          </mxGeometry>
        </mxCell>
        <mxCell id="b9gM4gOocdvL3oOeD4PQ-48" value="Числа&amp;nbsp; от 0 да 23 включительно" style="rounded=1;whiteSpace=wrap;html=1;arcSize=22;labelBackgroundColor=none;fillColor=#21C0A5;strokeColor=#006658;fontColor=#5C5C5C;" parent="1" vertex="1">
          <mxGeometry x="791.44" y="380" width="240" height="25" as="geometry" />
        </mxCell>
        <mxCell id="b9gM4gOocdvL3oOeD4PQ-56" value="Диапазон от 0 до 59" style="rounded=1;whiteSpace=wrap;html=1;arcSize=22;labelBackgroundColor=none;fillColor=#21C0A5;strokeColor=#006658;fontColor=#5C5C5C;" parent="1" vertex="1">
          <mxGeometry x="810" y="830" width="240" height="25" as="geometry" />
        </mxCell>
        <mxCell id="b9gM4gOocdvL3oOeD4PQ-74" value="" style="endArrow=classic;html=1;rounded=0;strokeColor=#006658;fontColor=#5C5C5C;fillColor=#21C0A5;exitX=0;exitY=0.5;exitDx=0;exitDy=0;entryX=1;entryY=0.5;entryDx=0;entryDy=0;edgeStyle=orthogonalEdgeStyle;curved=1;" parent="1" source="GoWqnwifKlF_Yr-xNYbi-45" target="Jd_oDnFanChOWd87wpwM-2" edge="1">
          <mxGeometry width="50" height="50" relative="1" as="geometry">
            <mxPoint x="-770" y="620" as="sourcePoint" />
            <mxPoint x="-720" y="570" as="targetPoint" />
          </mxGeometry>
        </mxCell>
        <mxCell id="b9gM4gOocdvL3oOeD4PQ-75" value="" style="endArrow=classic;html=1;rounded=0;strokeColor=#006658;fontColor=#5C5C5C;fillColor=#21C0A5;exitX=0;exitY=0.5;exitDx=0;exitDy=0;entryX=1;entryY=0.5;entryDx=0;entryDy=0;edgeStyle=orthogonalEdgeStyle;curved=1;" parent="1" source="GoWqnwifKlF_Yr-xNYbi-45" target="omD7B_j1-jRFqI0TzZg0-35" edge="1">
          <mxGeometry width="50" height="50" relative="1" as="geometry">
            <mxPoint x="-790" y="780" as="sourcePoint" />
            <mxPoint x="-740" y="730" as="targetPoint" />
          </mxGeometry>
        </mxCell>
        <mxCell id="b9gM4gOocdvL3oOeD4PQ-76" value="" style="endArrow=classic;html=1;rounded=0;strokeColor=#006658;fontColor=#5C5C5C;fillColor=#21C0A5;exitX=0;exitY=0.5;exitDx=0;exitDy=0;edgeStyle=orthogonalEdgeStyle;curved=1;entryX=1;entryY=0.5;entryDx=0;entryDy=0;" parent="1" source="Jd_oDnFanChOWd87wpwM-2" target="b9gM4gOocdvL3oOeD4PQ-77" edge="1">
          <mxGeometry width="50" height="50" relative="1" as="geometry">
            <mxPoint x="-1170" y="640" as="sourcePoint" />
            <mxPoint x="-1090" y="570" as="targetPoint" />
          </mxGeometry>
        </mxCell>
        <mxCell id="b9gM4gOocdvL3oOeD4PQ-77" value="Отображается красным кружком и буквой &quot;А&quot;" style="rounded=1;whiteSpace=wrap;html=1;arcSize=22;labelBackgroundColor=none;fillColor=#b0e3e6;strokeColor=#0e8088;" parent="1" vertex="1">
          <mxGeometry x="-1350" y="538.75" width="187.5" height="60" as="geometry" />
        </mxCell>
        <mxCell id="b9gM4gOocdvL3oOeD4PQ-78" value="Отображается синим кружком и буквой &quot;В&quot;" style="rounded=1;whiteSpace=wrap;html=1;arcSize=22;labelBackgroundColor=none;fillColor=#b0e3e6;strokeColor=#0e8088;" parent="1" vertex="1">
          <mxGeometry x="-1350" y="683.75" width="187.5" height="60" as="geometry" />
        </mxCell>
        <mxCell id="b9gM4gOocdvL3oOeD4PQ-79" value="" style="endArrow=classic;html=1;rounded=0;strokeColor=#006658;fontColor=#5C5C5C;fillColor=#21C0A5;exitX=0;exitY=0.5;exitDx=0;exitDy=0;entryX=1;entryY=0.5;entryDx=0;entryDy=0;edgeStyle=orthogonalEdgeStyle;curved=1;" parent="1" source="omD7B_j1-jRFqI0TzZg0-35" target="b9gM4gOocdvL3oOeD4PQ-78" edge="1">
          <mxGeometry width="50" height="50" relative="1" as="geometry">
            <mxPoint x="-1010" y="910" as="sourcePoint" />
            <mxPoint x="-960" y="860" as="targetPoint" />
          </mxGeometry>
        </mxCell>
        <mxCell id="b9gM4gOocdvL3oOeD4PQ-82" value="При снятии фокуса с поля ввода пробелы до и после адреса удаляются" style="rounded=1;whiteSpace=wrap;html=1;arcSize=22;labelBackgroundColor=none;fillColor=#21C0A5;strokeColor=#006658;fontColor=#5C5C5C;" parent="1" vertex="1">
          <mxGeometry x="815.6" y="1438" width="270" height="30" as="geometry" />
        </mxCell>
        <mxCell id="b9gM4gOocdvL3oOeD4PQ-94" value="" style="endArrow=classic;html=1;rounded=0;strokeColor=#006658;fontColor=#5C5C5C;fillColor=#21C0A5;exitX=1;exitY=0.5;exitDx=0;exitDy=0;entryX=0;entryY=0.5;entryDx=0;entryDy=0;edgeStyle=orthogonalEdgeStyle;curved=1;" parent="1" source="b9gM4gOocdvL3oOeD4PQ-82" target="A5lYPsGRQJ1GHH2UrvJ9-115" edge="1">
          <mxGeometry width="50" height="50" relative="1" as="geometry">
            <mxPoint x="1045.6000000000001" y="1578" as="sourcePoint" />
            <mxPoint x="1095.6000000000001" y="1528" as="targetPoint" />
          </mxGeometry>
        </mxCell>
        <mxCell id="b9gM4gOocdvL3oOeD4PQ-95" value="" style="endArrow=classic;html=1;rounded=0;strokeColor=#006658;fontColor=#5C5C5C;fillColor=#21C0A5;exitX=1;exitY=0.5;exitDx=0;exitDy=0;entryX=0;entryY=0.5;entryDx=0;entryDy=0;edgeStyle=orthogonalEdgeStyle;curved=1;" parent="1" source="b9gM4gOocdvL3oOeD4PQ-82" target="A5lYPsGRQJ1GHH2UrvJ9-119" edge="1">
          <mxGeometry width="50" height="50" relative="1" as="geometry">
            <mxPoint x="1065.6000000000001" y="1588" as="sourcePoint" />
            <mxPoint x="1115.6000000000001" y="1538" as="targetPoint" />
          </mxGeometry>
        </mxCell>
        <mxCell id="b9gM4gOocdvL3oOeD4PQ-96" value="Поле &quot;Куда&quot;" style="rounded=1;whiteSpace=wrap;html=1;arcSize=22;labelBackgroundColor=none;fillColor=#21C0A5;strokeColor=#006658;fontColor=#5C5C5C;" parent="1" vertex="1">
          <mxGeometry x="566.25" y="1767" width="120" height="40" as="geometry" />
        </mxCell>
        <mxCell id="b9gM4gOocdvL3oOeD4PQ-97" value="Ввод валидного значения" style="rounded=1;whiteSpace=wrap;html=1;arcSize=22;labelBackgroundColor=none;fillColor=#21C0A5;strokeColor=#006658;fontColor=#5C5C5C;" parent="1" vertex="1">
          <mxGeometry x="1152" y="1922" width="120" height="40" as="geometry" />
        </mxCell>
        <mxCell id="b9gM4gOocdvL3oOeD4PQ-98" value="" style="endArrow=classic;html=1;rounded=0;exitX=1;exitY=0.5;exitDx=0;exitDy=0;entryX=0;entryY=0.5;entryDx=0;entryDy=0;labelBackgroundColor=none;strokeColor=#006658;fontColor=default;edgeStyle=orthogonalEdgeStyle;curved=1;" parent="1" source="b9gM4gOocdvL3oOeD4PQ-97" target="b9gM4gOocdvL3oOeD4PQ-102" edge="1">
          <mxGeometry width="50" height="50" relative="1" as="geometry">
            <mxPoint x="1368.25" y="2002" as="sourcePoint" />
            <mxPoint x="1308.25" y="1942" as="targetPoint" />
          </mxGeometry>
        </mxCell>
        <mxCell id="b9gM4gOocdvL3oOeD4PQ-99" style="edgeStyle=orthogonalEdgeStyle;rounded=0;orthogonalLoop=1;jettySize=auto;html=1;exitX=0.5;exitY=1;exitDx=0;exitDy=0;labelBackgroundColor=none;strokeColor=#006658;fontColor=default;" parent="1" edge="1">
          <mxGeometry relative="1" as="geometry">
            <mxPoint x="1425.8000000000002" y="2091.5" as="sourcePoint" />
            <mxPoint x="1425.8000000000002" y="2091.5" as="targetPoint" />
          </mxGeometry>
        </mxCell>
        <mxCell id="b9gM4gOocdvL3oOeD4PQ-100" value="Ввод не корректного значения" style="rounded=1;whiteSpace=wrap;html=1;arcSize=22;labelBackgroundColor=none;fillColor=#21C0A5;strokeColor=#006658;fontColor=#5C5C5C;" parent="1" vertex="1">
          <mxGeometry x="1152" y="2035.75" width="123.75" height="40" as="geometry" />
        </mxCell>
        <mxCell id="b9gM4gOocdvL3oOeD4PQ-101" value="Ошибка &quot;Вы ввели некорректный адрес&quot;" style="rounded=1;whiteSpace=wrap;html=1;arcSize=22;strokeColor=#006658;labelBackgroundColor=none;fillColor=#21C0A5;fontColor=#5C5C5C;" parent="1" vertex="1">
          <mxGeometry x="1340.17" y="2034.5" width="182.5" height="42.5" as="geometry" />
        </mxCell>
        <mxCell id="b9gM4gOocdvL3oOeD4PQ-102" value="Точка &quot;В&quot; отображается на карте" style="rounded=1;whiteSpace=wrap;html=1;arcSize=22;fillColor=#21C0A5;labelBackgroundColor=none;strokeColor=#006658;fontColor=#5C5C5C;" parent="1" vertex="1">
          <mxGeometry x="1338.3" y="1917" width="191.7" height="50" as="geometry" />
        </mxCell>
        <mxCell id="b9gM4gOocdvL3oOeD4PQ-103" value="&lt;span style=&quot;color: rgb(242, 7, 7); font-family: Helvetica; font-size: 10px; font-style: normal; font-variant-ligatures: normal; font-variant-caps: normal; font-weight: 700; letter-spacing: normal; orphans: 2; text-align: center; text-indent: 0px; text-transform: none; widows: 2; word-spacing: 0px; -webkit-text-stroke-width: 0px; background-color: rgb(251, 251, 251); text-decoration-thickness: initial; text-decoration-style: initial; text-decoration-color: initial; float: none; display: inline !important;&quot;&gt;Поле подсвечивается красным&lt;/span&gt;" style="text;whiteSpace=wrap;html=1;labelBackgroundColor=none;fontColor=#5C5C5C;" parent="1" vertex="1">
          <mxGeometry x="1344.74" y="2005.75" width="195.26" height="71.25" as="geometry" />
        </mxCell>
        <mxCell id="b9gM4gOocdvL3oOeD4PQ-104" value="" style="endArrow=classic;html=1;rounded=0;exitX=1;exitY=0.5;exitDx=0;exitDy=0;entryX=0;entryY=0.5;entryDx=0;entryDy=0;labelBackgroundColor=none;strokeColor=#006658;fontColor=default;edgeStyle=orthogonalEdgeStyle;curved=1;" parent="1" source="b9gM4gOocdvL3oOeD4PQ-100" target="b9gM4gOocdvL3oOeD4PQ-101" edge="1">
          <mxGeometry width="50" height="50" relative="1" as="geometry">
            <mxPoint x="1282.0000000000005" y="2262" as="sourcePoint" />
            <mxPoint x="1322.0000000000005" y="2102" as="targetPoint" />
          </mxGeometry>
        </mxCell>
        <mxCell id="b9gM4gOocdvL3oOeD4PQ-107" value="Количество символов от 1 до 50 включительно" style="rounded=1;whiteSpace=wrap;html=1;arcSize=22;labelBackgroundColor=none;fillColor=#21C0A5;strokeColor=#006658;fontColor=#5C5C5C;" parent="1" vertex="1">
          <mxGeometry x="815.75" y="1845.75" width="270" height="20" as="geometry" />
        </mxCell>
        <mxCell id="b9gM4gOocdvL3oOeD4PQ-108" value="Буквы русского алфавита" style="rounded=1;whiteSpace=wrap;html=1;arcSize=22;labelBackgroundColor=none;fillColor=#21C0A5;strokeColor=#006658;fontColor=#5C5C5C;" parent="1" vertex="1">
          <mxGeometry x="815.75" y="1623.25" width="270" height="20" as="geometry" />
        </mxCell>
        <mxCell id="b9gM4gOocdvL3oOeD4PQ-109" value="Цифры" style="rounded=1;whiteSpace=wrap;html=1;arcSize=22;labelBackgroundColor=none;fillColor=#21C0A5;strokeColor=#006658;fontColor=#5C5C5C;" parent="1" vertex="1">
          <mxGeometry x="815.75" y="1662" width="270" height="20" as="geometry" />
        </mxCell>
        <mxCell id="b9gM4gOocdvL3oOeD4PQ-110" value="Тире" style="rounded=1;whiteSpace=wrap;html=1;arcSize=22;labelBackgroundColor=none;fillColor=#21C0A5;strokeColor=#006658;fontColor=#5C5C5C;" parent="1" vertex="1">
          <mxGeometry x="815.75" y="1737" width="270" height="20" as="geometry" />
        </mxCell>
        <mxCell id="b9gM4gOocdvL3oOeD4PQ-111" value="Точка" style="rounded=1;whiteSpace=wrap;html=1;arcSize=22;labelBackgroundColor=none;fillColor=#21C0A5;strokeColor=#006658;fontColor=#5C5C5C;" parent="1" vertex="1">
          <mxGeometry x="815.75" y="1774.5" width="270" height="20" as="geometry" />
        </mxCell>
        <mxCell id="b9gM4gOocdvL3oOeD4PQ-112" value="Пробел" style="rounded=1;whiteSpace=wrap;html=1;arcSize=22;labelBackgroundColor=none;fillColor=#21C0A5;strokeColor=#006658;fontColor=#5C5C5C;" parent="1" vertex="1">
          <mxGeometry x="815.75" y="1702" width="270" height="20" as="geometry" />
        </mxCell>
        <mxCell id="b9gM4gOocdvL3oOeD4PQ-113" value="Запятая" style="rounded=1;whiteSpace=wrap;html=1;arcSize=22;labelBackgroundColor=none;fillColor=#21C0A5;strokeColor=#006658;fontColor=#5C5C5C;" parent="1" vertex="1">
          <mxGeometry x="815.75" y="1807" width="270" height="20" as="geometry" />
        </mxCell>
        <mxCell id="b9gM4gOocdvL3oOeD4PQ-115" value="Обязательность заполнения поля" style="rounded=1;whiteSpace=wrap;html=1;arcSize=22;labelBackgroundColor=none;fillColor=#21C0A5;strokeColor=#006658;fontColor=#5C5C5C;" parent="1" vertex="1">
          <mxGeometry x="815.75" y="1883.25" width="270" height="27.5" as="geometry" />
        </mxCell>
        <mxCell id="b9gM4gOocdvL3oOeD4PQ-116" value="При снятии фокуса с поля ввода пробелы до и после адреса удаляются" style="rounded=1;whiteSpace=wrap;html=1;arcSize=22;labelBackgroundColor=none;fillColor=#21C0A5;strokeColor=#006658;fontColor=#5C5C5C;" parent="1" vertex="1">
          <mxGeometry x="815.75" y="1927" width="270" height="30" as="geometry" />
        </mxCell>
        <mxCell id="b9gM4gOocdvL3oOeD4PQ-128" value="" style="endArrow=classic;html=1;rounded=0;strokeColor=#006658;fontColor=#5C5C5C;fillColor=#21C0A5;exitX=1;exitY=0.5;exitDx=0;exitDy=0;entryX=0;entryY=0.5;entryDx=0;entryDy=0;" parent="1" source="b9gM4gOocdvL3oOeD4PQ-116" target="b9gM4gOocdvL3oOeD4PQ-97" edge="1">
          <mxGeometry width="50" height="50" relative="1" as="geometry">
            <mxPoint x="1045.75" y="2067" as="sourcePoint" />
            <mxPoint x="1095.75" y="2017" as="targetPoint" />
          </mxGeometry>
        </mxCell>
        <mxCell id="b9gM4gOocdvL3oOeD4PQ-129" value="" style="endArrow=classic;html=1;rounded=0;strokeColor=#006658;fontColor=#5C5C5C;fillColor=#21C0A5;exitX=1;exitY=0.5;exitDx=0;exitDy=0;entryX=0;entryY=0.5;entryDx=0;entryDy=0;edgeStyle=orthogonalEdgeStyle;curved=1;" parent="1" source="b9gM4gOocdvL3oOeD4PQ-116" target="b9gM4gOocdvL3oOeD4PQ-100" edge="1">
          <mxGeometry width="50" height="50" relative="1" as="geometry">
            <mxPoint x="1065.75" y="2077" as="sourcePoint" />
            <mxPoint x="1115.75" y="2027" as="targetPoint" />
          </mxGeometry>
        </mxCell>
        <mxCell id="b9gM4gOocdvL3oOeD4PQ-130" value="" style="endArrow=classic;html=1;rounded=0;strokeColor=#006658;fontColor=#5C5C5C;fillColor=#21C0A5;entryX=0;entryY=0.5;entryDx=0;entryDy=0;exitX=1;exitY=0.5;exitDx=0;exitDy=0;edgeStyle=orthogonalEdgeStyle;curved=1;" parent="1" source="A5lYPsGRQJ1GHH2UrvJ9-62" target="b9gM4gOocdvL3oOeD4PQ-96" edge="1">
          <mxGeometry width="50" height="50" relative="1" as="geometry">
            <mxPoint x="270" y="1650" as="sourcePoint" />
            <mxPoint x="370" y="1990" as="targetPoint" />
          </mxGeometry>
        </mxCell>
        <mxCell id="b9gM4gOocdvL3oOeD4PQ-144" value="Система укажет время поездки" style="rounded=1;whiteSpace=wrap;html=1;arcSize=22;labelBackgroundColor=none;fillColor=#21C0A5;strokeColor=#006658;fontColor=#5C5C5C;" parent="1" vertex="1">
          <mxGeometry x="903.25" y="2192.7400000000002" width="157.5" height="31.25" as="geometry" />
        </mxCell>
        <mxCell id="b9gM4gOocdvL3oOeD4PQ-146" value="Система укажет стоимость поездки" style="rounded=1;whiteSpace=wrap;html=1;arcSize=22;labelBackgroundColor=none;fillColor=#21C0A5;strokeColor=#006658;fontColor=#5C5C5C;" parent="1" vertex="1">
          <mxGeometry x="905.75" y="2242.74" width="154.25" height="31.25" as="geometry" />
        </mxCell>
        <mxCell id="b9gM4gOocdvL3oOeD4PQ-167" value="" style="endArrow=classic;html=1;rounded=0;strokeColor=#006658;fontColor=#5C5C5C;fillColor=#21C0A5;exitX=1;exitY=0.5;exitDx=0;exitDy=0;entryX=0;entryY=0.5;entryDx=0;entryDy=0;edgeStyle=orthogonalEdgeStyle;curved=1;" parent="1" source="b9gM4gOocdvL3oOeD4PQ-96" target="b9gM4gOocdvL3oOeD4PQ-108" edge="1">
          <mxGeometry width="50" height="50" relative="1" as="geometry">
            <mxPoint x="709.5" y="1683.25" as="sourcePoint" />
            <mxPoint x="759.5" y="1633.25" as="targetPoint" />
            <Array as="points">
              <mxPoint x="686" y="1787" />
              <mxPoint x="730" y="1787" />
              <mxPoint x="730" y="1633" />
            </Array>
          </mxGeometry>
        </mxCell>
        <mxCell id="b9gM4gOocdvL3oOeD4PQ-169" value="" style="endArrow=classic;html=1;rounded=0;strokeColor=#006658;fontColor=#5C5C5C;fillColor=#21C0A5;exitX=1;exitY=0.5;exitDx=0;exitDy=0;entryX=0;entryY=0.5;entryDx=0;entryDy=0;edgeStyle=orthogonalEdgeStyle;curved=1;" parent="1" source="b9gM4gOocdvL3oOeD4PQ-96" target="b9gM4gOocdvL3oOeD4PQ-112" edge="1">
          <mxGeometry width="50" height="50" relative="1" as="geometry">
            <mxPoint x="739.5" y="1893.25" as="sourcePoint" />
            <mxPoint x="789.5" y="1843.25" as="targetPoint" />
            <Array as="points">
              <mxPoint x="686" y="1787" />
              <mxPoint x="770" y="1787" />
              <mxPoint x="770" y="1712" />
            </Array>
          </mxGeometry>
        </mxCell>
        <mxCell id="b9gM4gOocdvL3oOeD4PQ-170" value="" style="endArrow=classic;html=1;rounded=0;strokeColor=#006658;fontColor=#5C5C5C;fillColor=#21C0A5;exitX=1;exitY=0.5;exitDx=0;exitDy=0;entryX=0;entryY=0.5;entryDx=0;entryDy=0;edgeStyle=orthogonalEdgeStyle;curved=1;" parent="1" source="b9gM4gOocdvL3oOeD4PQ-96" target="b9gM4gOocdvL3oOeD4PQ-109" edge="1">
          <mxGeometry width="50" height="50" relative="1" as="geometry">
            <mxPoint x="719.5" y="1903.25" as="sourcePoint" />
            <mxPoint x="769.5" y="1853.25" as="targetPoint" />
          </mxGeometry>
        </mxCell>
        <mxCell id="b9gM4gOocdvL3oOeD4PQ-171" value="" style="endArrow=classic;html=1;rounded=0;strokeColor=#006658;fontColor=#5C5C5C;fillColor=#21C0A5;entryX=0;entryY=0.5;entryDx=0;entryDy=0;exitX=1;exitY=0.5;exitDx=0;exitDy=0;edgeStyle=orthogonalEdgeStyle;curved=1;" parent="1" source="b9gM4gOocdvL3oOeD4PQ-96" target="b9gM4gOocdvL3oOeD4PQ-111" edge="1">
          <mxGeometry width="50" height="50" relative="1" as="geometry">
            <mxPoint x="589.5" y="1943.25" as="sourcePoint" />
            <mxPoint x="639.5" y="1893.25" as="targetPoint" />
          </mxGeometry>
        </mxCell>
        <mxCell id="b9gM4gOocdvL3oOeD4PQ-172" value="" style="endArrow=classic;html=1;rounded=0;strokeColor=#006658;fontColor=#5C5C5C;fillColor=#21C0A5;exitX=1;exitY=0.5;exitDx=0;exitDy=0;entryX=0;entryY=0.5;entryDx=0;entryDy=0;edgeStyle=orthogonalEdgeStyle;curved=1;" parent="1" source="b9gM4gOocdvL3oOeD4PQ-96" target="b9gM4gOocdvL3oOeD4PQ-113" edge="1">
          <mxGeometry width="50" height="50" relative="1" as="geometry">
            <mxPoint x="699.5" y="1943.25" as="sourcePoint" />
            <mxPoint x="749.5" y="1893.25" as="targetPoint" />
          </mxGeometry>
        </mxCell>
        <mxCell id="b9gM4gOocdvL3oOeD4PQ-173" value="" style="endArrow=classic;html=1;rounded=0;strokeColor=#006658;fontColor=#5C5C5C;fillColor=#21C0A5;exitX=1;exitY=0.5;exitDx=0;exitDy=0;entryX=0;entryY=0.5;entryDx=0;entryDy=0;edgeStyle=orthogonalEdgeStyle;curved=1;" parent="1" source="b9gM4gOocdvL3oOeD4PQ-96" target="b9gM4gOocdvL3oOeD4PQ-107" edge="1">
          <mxGeometry width="50" height="50" relative="1" as="geometry">
            <mxPoint x="729.5" y="1923.25" as="sourcePoint" />
            <mxPoint x="779.5" y="1873.25" as="targetPoint" />
          </mxGeometry>
        </mxCell>
        <mxCell id="b9gM4gOocdvL3oOeD4PQ-174" value="" style="endArrow=classic;html=1;rounded=0;strokeColor=#006658;fontColor=#5C5C5C;fillColor=#21C0A5;exitX=1;exitY=0.5;exitDx=0;exitDy=0;entryX=0;entryY=0.5;entryDx=0;entryDy=0;edgeStyle=orthogonalEdgeStyle;curved=1;" parent="1" source="b9gM4gOocdvL3oOeD4PQ-96" target="b9gM4gOocdvL3oOeD4PQ-115" edge="1">
          <mxGeometry width="50" height="50" relative="1" as="geometry">
            <mxPoint x="739.5" y="1943.25" as="sourcePoint" />
            <mxPoint x="789.5" y="1893.25" as="targetPoint" />
            <Array as="points">
              <mxPoint x="686" y="1787" />
              <mxPoint x="730" y="1787" />
              <mxPoint x="730" y="1897" />
            </Array>
          </mxGeometry>
        </mxCell>
        <mxCell id="b9gM4gOocdvL3oOeD4PQ-175" value="" style="endArrow=classic;html=1;rounded=0;strokeColor=#006658;fontColor=#5C5C5C;fillColor=#21C0A5;entryX=0;entryY=0.5;entryDx=0;entryDy=0;exitX=1;exitY=0.5;exitDx=0;exitDy=0;edgeStyle=orthogonalEdgeStyle;curved=1;" parent="1" source="b9gM4gOocdvL3oOeD4PQ-96" target="b9gM4gOocdvL3oOeD4PQ-116" edge="1">
          <mxGeometry width="50" height="50" relative="1" as="geometry">
            <mxPoint x="699.5" y="1983.25" as="sourcePoint" />
            <mxPoint x="749.5" y="1933.25" as="targetPoint" />
            <Array as="points">
              <mxPoint x="686" y="1787" />
              <mxPoint x="720" y="1787" />
              <mxPoint x="720" y="1942" />
            </Array>
          </mxGeometry>
        </mxCell>
        <mxCell id="b9gM4gOocdvL3oOeD4PQ-176" value="" style="endArrow=classic;html=1;rounded=0;strokeColor=#006658;fontColor=#5C5C5C;fillColor=#21C0A5;entryX=0;entryY=0.25;entryDx=0;entryDy=0;exitX=1;exitY=0.5;exitDx=0;exitDy=0;edgeStyle=orthogonalEdgeStyle;curved=1;" parent="1" source="A5lYPsGRQJ1GHH2UrvJ9-131" target="A5lYPsGRQJ1GHH2UrvJ9-137" edge="1">
          <mxGeometry width="50" height="50" relative="1" as="geometry">
            <mxPoint x="740.75" y="2121.4900000000002" as="sourcePoint" />
            <mxPoint x="790.75" y="2071.4900000000002" as="targetPoint" />
          </mxGeometry>
        </mxCell>
        <mxCell id="b9gM4gOocdvL3oOeD4PQ-177" value="" style="endArrow=classic;html=1;rounded=0;strokeColor=#006658;fontColor=#5C5C5C;fillColor=#21C0A5;entryX=0;entryY=0.5;entryDx=0;entryDy=0;exitX=1;exitY=0.5;exitDx=0;exitDy=0;edgeStyle=orthogonalEdgeStyle;curved=1;" parent="1" source="A5lYPsGRQJ1GHH2UrvJ9-131" target="A5lYPsGRQJ1GHH2UrvJ9-138" edge="1">
          <mxGeometry width="50" height="50" relative="1" as="geometry">
            <mxPoint x="750.75" y="2271.4900000000002" as="sourcePoint" />
            <mxPoint x="800.75" y="2221.4900000000002" as="targetPoint" />
          </mxGeometry>
        </mxCell>
        <mxCell id="b9gM4gOocdvL3oOeD4PQ-178" value="" style="endArrow=classic;html=1;rounded=0;strokeColor=#006658;fontColor=#5C5C5C;fillColor=#21C0A5;exitX=1;exitY=0.5;exitDx=0;exitDy=0;entryX=0;entryY=0.5;entryDx=0;entryDy=0;edgeStyle=orthogonalEdgeStyle;curved=1;" parent="1" source="A5lYPsGRQJ1GHH2UrvJ9-131" target="b9gM4gOocdvL3oOeD4PQ-144" edge="1">
          <mxGeometry width="50" height="50" relative="1" as="geometry">
            <mxPoint x="800.75" y="2311.4900000000002" as="sourcePoint" />
            <mxPoint x="850.75" y="2261.4900000000002" as="targetPoint" />
          </mxGeometry>
        </mxCell>
        <mxCell id="b9gM4gOocdvL3oOeD4PQ-179" value="" style="endArrow=classic;html=1;rounded=0;strokeColor=#006658;fontColor=#5C5C5C;fillColor=#21C0A5;exitX=1;exitY=0.5;exitDx=0;exitDy=0;entryX=0;entryY=0.5;entryDx=0;entryDy=0;edgeStyle=orthogonalEdgeStyle;curved=1;" parent="1" source="A5lYPsGRQJ1GHH2UrvJ9-131" target="b9gM4gOocdvL3oOeD4PQ-146" edge="1">
          <mxGeometry width="50" height="50" relative="1" as="geometry">
            <mxPoint x="750.75" y="2371.4900000000002" as="sourcePoint" />
            <mxPoint x="800.75" y="2321.4900000000002" as="targetPoint" />
          </mxGeometry>
        </mxCell>
        <mxCell id="b9gM4gOocdvL3oOeD4PQ-180" value="Режим &quot;Быстрый&quot;" style="rounded=1;whiteSpace=wrap;html=1;arcSize=22;labelBackgroundColor=none;fillColor=#21C0A5;strokeColor=#006658;fontColor=#5C5C5C;" parent="1" vertex="1">
          <mxGeometry x="634.43" y="2362.43" width="165.57" height="45" as="geometry" />
        </mxCell>
        <mxCell id="b9gM4gOocdvL3oOeD4PQ-181" value="Система автоматически назначит вид транспорта" style="rounded=1;whiteSpace=wrap;html=1;arcSize=22;labelBackgroundColor=none;fillColor=#21C0A5;strokeColor=#006658;fontColor=#5C5C5C;" parent="1" vertex="1">
          <mxGeometry x="903.25" y="2305" width="156.75" height="31.25" as="geometry" />
        </mxCell>
        <mxCell id="b9gM4gOocdvL3oOeD4PQ-182" value="Система автоматически построит маршрут" style="rounded=1;whiteSpace=wrap;html=1;arcSize=22;labelBackgroundColor=none;fillColor=#21C0A5;strokeColor=#006658;fontColor=#5C5C5C;" parent="1" vertex="1">
          <mxGeometry x="904.5" y="2362.4300000000003" width="155" height="31.25" as="geometry" />
        </mxCell>
        <mxCell id="b9gM4gOocdvL3oOeD4PQ-183" value="Система укажет время поездки" style="rounded=1;whiteSpace=wrap;html=1;arcSize=22;labelBackgroundColor=none;fillColor=#21C0A5;strokeColor=#006658;fontColor=#5C5C5C;" parent="1" vertex="1">
          <mxGeometry x="902" y="2413.6800000000003" width="157.5" height="31.25" as="geometry" />
        </mxCell>
        <mxCell id="b9gM4gOocdvL3oOeD4PQ-184" value="Система укажет стоимость поездки" style="rounded=1;whiteSpace=wrap;html=1;arcSize=22;labelBackgroundColor=none;fillColor=#21C0A5;strokeColor=#006658;fontColor=#5C5C5C;" parent="1" vertex="1">
          <mxGeometry x="900.5" y="2462.27" width="157.5" height="31.25" as="geometry" />
        </mxCell>
        <mxCell id="b9gM4gOocdvL3oOeD4PQ-185" value="" style="endArrow=classic;html=1;rounded=0;strokeColor=#006658;fontColor=#5C5C5C;fillColor=#21C0A5;entryX=0;entryY=0.5;entryDx=0;entryDy=0;exitX=1;exitY=0.5;exitDx=0;exitDy=0;edgeStyle=orthogonalEdgeStyle;curved=1;" parent="1" source="b9gM4gOocdvL3oOeD4PQ-180" target="b9gM4gOocdvL3oOeD4PQ-181" edge="1">
          <mxGeometry width="50" height="50" relative="1" as="geometry">
            <mxPoint x="729.5" y="2351.4900000000002" as="sourcePoint" />
            <mxPoint x="779.5" y="2301.4900000000002" as="targetPoint" />
          </mxGeometry>
        </mxCell>
        <mxCell id="b9gM4gOocdvL3oOeD4PQ-186" value="" style="endArrow=classic;html=1;rounded=0;strokeColor=#006658;fontColor=#5C5C5C;fillColor=#21C0A5;entryX=0;entryY=0.5;entryDx=0;entryDy=0;exitX=1;exitY=0.5;exitDx=0;exitDy=0;edgeStyle=orthogonalEdgeStyle;curved=1;" parent="1" source="b9gM4gOocdvL3oOeD4PQ-180" target="b9gM4gOocdvL3oOeD4PQ-182" edge="1">
          <mxGeometry width="50" height="50" relative="1" as="geometry">
            <mxPoint x="739.5" y="2501.4900000000002" as="sourcePoint" />
            <mxPoint x="789.5" y="2451.4900000000002" as="targetPoint" />
          </mxGeometry>
        </mxCell>
        <mxCell id="b9gM4gOocdvL3oOeD4PQ-187" value="" style="endArrow=classic;html=1;rounded=0;strokeColor=#006658;fontColor=#5C5C5C;fillColor=#21C0A5;exitX=1;exitY=0.5;exitDx=0;exitDy=0;entryX=0;entryY=0.5;entryDx=0;entryDy=0;edgeStyle=orthogonalEdgeStyle;curved=1;" parent="1" source="b9gM4gOocdvL3oOeD4PQ-180" target="b9gM4gOocdvL3oOeD4PQ-183" edge="1">
          <mxGeometry width="50" height="50" relative="1" as="geometry">
            <mxPoint x="789.5" y="2541.4900000000002" as="sourcePoint" />
            <mxPoint x="839.5" y="2491.4900000000002" as="targetPoint" />
          </mxGeometry>
        </mxCell>
        <mxCell id="b9gM4gOocdvL3oOeD4PQ-188" value="" style="endArrow=classic;html=1;rounded=0;strokeColor=#006658;fontColor=#5C5C5C;fillColor=#21C0A5;exitX=1;exitY=0.5;exitDx=0;exitDy=0;entryX=0;entryY=0.5;entryDx=0;entryDy=0;edgeStyle=orthogonalEdgeStyle;curved=1;" parent="1" source="b9gM4gOocdvL3oOeD4PQ-180" target="b9gM4gOocdvL3oOeD4PQ-184" edge="1">
          <mxGeometry width="50" height="50" relative="1" as="geometry">
            <mxPoint x="739.5" y="2601.4900000000002" as="sourcePoint" />
            <mxPoint x="789.5" y="2551.4900000000002" as="targetPoint" />
          </mxGeometry>
        </mxCell>
        <mxCell id="b9gM4gOocdvL3oOeD4PQ-189" value="" style="endArrow=classic;html=1;rounded=0;strokeColor=#006658;fontColor=#5C5C5C;fillColor=#21C0A5;exitX=1;exitY=0.5;exitDx=0;exitDy=0;entryX=0;entryY=0.5;entryDx=0;entryDy=0;edgeStyle=orthogonalEdgeStyle;curved=1;" parent="1" source="b9gM4gOocdvL3oOeD4PQ-210" target="b9gM4gOocdvL3oOeD4PQ-180" edge="1">
          <mxGeometry width="50" height="50" relative="1" as="geometry">
            <mxPoint x="470.75" y="2501.4900000000002" as="sourcePoint" />
            <mxPoint x="520.75" y="2451.4900000000002" as="targetPoint" />
          </mxGeometry>
        </mxCell>
        <mxCell id="b9gM4gOocdvL3oOeD4PQ-210" value="Блок выбора режимов" style="rounded=1;whiteSpace=wrap;html=1;arcSize=22;labelBackgroundColor=none;fillColor=#21C0A5;strokeColor=#006658;fontColor=#5C5C5C;" parent="1" vertex="1">
          <mxGeometry x="420.75" y="2196.4900000000002" width="120" height="40" as="geometry" />
        </mxCell>
        <mxCell id="b9gM4gOocdvL3oOeD4PQ-212" value="" style="endArrow=classic;html=1;rounded=0;strokeColor=#006658;fontColor=#5C5C5C;fillColor=#21C0A5;exitX=1;exitY=0.5;exitDx=0;exitDy=0;entryX=0;entryY=0.5;entryDx=0;entryDy=0;edgeStyle=orthogonalEdgeStyle;curved=1;" parent="1" source="GoWqnwifKlF_Yr-xNYbi-5" target="b9gM4gOocdvL3oOeD4PQ-210" edge="1">
          <mxGeometry width="50" height="50" relative="1" as="geometry">
            <mxPoint x="405" y="2213.2400000000002" as="sourcePoint" />
            <mxPoint x="455" y="2163.2400000000002" as="targetPoint" />
          </mxGeometry>
        </mxCell>
        <mxCell id="b9gM4gOocdvL3oOeD4PQ-242" value="Название улицы и номер дома,&lt;br&gt;&amp;nbsp;отображается черными буквами на белом фоне" style="rounded=1;whiteSpace=wrap;html=1;arcSize=22;labelBackgroundColor=none;fillColor=#b0e3e6;strokeColor=#0e8088;" parent="1" vertex="1">
          <mxGeometry x="-1570" y="2437.4399999999996" width="300" height="40" as="geometry" />
        </mxCell>
        <mxCell id="b9gM4gOocdvL3oOeD4PQ-249" value="Панель управления масштабом карты" style="rounded=1;whiteSpace=wrap;html=1;arcSize=22;labelBackgroundColor=none;fillColor=#b0e3e6;strokeColor=#0e8088;" parent="1" vertex="1">
          <mxGeometry x="-1128.75" y="2985.4399999999996" width="120" height="40" as="geometry" />
        </mxCell>
        <mxCell id="b9gM4gOocdvL3oOeD4PQ-250" value="" style="endArrow=classic;html=1;rounded=0;strokeColor=#006658;fontColor=#5C5C5C;fillColor=#21C0A5;exitX=0;exitY=0.5;exitDx=0;exitDy=0;entryX=1;entryY=0.5;entryDx=0;entryDy=0;edgeStyle=orthogonalEdgeStyle;curved=1;" parent="1" source="A5lYPsGRQJ1GHH2UrvJ9-40" target="b9gM4gOocdvL3oOeD4PQ-249" edge="1">
          <mxGeometry width="50" height="50" relative="1" as="geometry">
            <mxPoint x="-830" y="2747.4399999999996" as="sourcePoint" />
            <mxPoint x="-780" y="2697.4399999999996" as="targetPoint" />
          </mxGeometry>
        </mxCell>
        <mxCell id="b9gM4gOocdvL3oOeD4PQ-251" value="" style="endArrow=classic;html=1;rounded=0;strokeColor=#006658;fontColor=#5C5C5C;fillColor=#21C0A5;exitX=0;exitY=0.5;exitDx=0;exitDy=0;entryX=1;entryY=0.5;entryDx=0;entryDy=0;edgeStyle=orthogonalEdgeStyle;curved=1;" parent="1" source="b9gM4gOocdvL3oOeD4PQ-249" target="A5lYPsGRQJ1GHH2UrvJ9-50" edge="1">
          <mxGeometry width="50" height="50" relative="1" as="geometry">
            <mxPoint x="-1163.75" y="2955.4399999999996" as="sourcePoint" />
            <mxPoint x="-1113.75" y="2905.4399999999996" as="targetPoint" />
          </mxGeometry>
        </mxCell>
        <mxCell id="b9gM4gOocdvL3oOeD4PQ-252" value="" style="endArrow=classic;html=1;rounded=0;strokeColor=#006658;fontColor=#5C5C5C;fillColor=#21C0A5;exitX=0;exitY=0.5;exitDx=0;exitDy=0;entryX=1;entryY=0.5;entryDx=0;entryDy=0;edgeStyle=orthogonalEdgeStyle;curved=1;" parent="1" source="b9gM4gOocdvL3oOeD4PQ-249" target="A5lYPsGRQJ1GHH2UrvJ9-49" edge="1">
          <mxGeometry width="50" height="50" relative="1" as="geometry">
            <mxPoint x="-1133.75" y="3145.4399999999996" as="sourcePoint" />
            <mxPoint x="-1083.75" y="3095.4399999999996" as="targetPoint" />
          </mxGeometry>
        </mxCell>
        <mxCell id="b9gM4gOocdvL3oOeD4PQ-253" value="" style="endArrow=classic;html=1;rounded=0;strokeColor=#006658;fontColor=#5C5C5C;fillColor=#21C0A5;exitX=0;exitY=0.5;exitDx=0;exitDy=0;entryX=1;entryY=0.5;entryDx=0;entryDy=0;edgeStyle=orthogonalEdgeStyle;curved=1;" parent="1" source="b9gM4gOocdvL3oOeD4PQ-249" target="A5lYPsGRQJ1GHH2UrvJ9-53" edge="1">
          <mxGeometry width="50" height="50" relative="1" as="geometry">
            <mxPoint x="-1183.75" y="3115.4399999999996" as="sourcePoint" />
            <mxPoint x="-1133.75" y="3065.4399999999996" as="targetPoint" />
          </mxGeometry>
        </mxCell>
        <mxCell id="b9gM4gOocdvL3oOeD4PQ-259" value="Панель управления масштабом карты&amp;nbsp;" style="rounded=1;whiteSpace=wrap;html=1;arcSize=22;labelBackgroundColor=none;fillColor=#21C0A5;strokeColor=#006658;fontColor=#5C5C5C;" parent="1" vertex="1">
          <mxGeometry x="892.8800000000001" y="3990" width="120" height="40" as="geometry" />
        </mxCell>
        <mxCell id="MyRRs7XRICA8QSsl9Eci-1" value="Расчет времени поездки &lt;br&gt;происходит по формуле: t = S/V*60" style="rounded=1;whiteSpace=wrap;html=1;arcSize=22;labelBackgroundColor=none;fillColor=#21C0A5;strokeColor=#006658;fontColor=#5C5C5C;" parent="1" vertex="1">
          <mxGeometry x="428.75" y="3052.34" width="240" height="50" as="geometry" />
        </mxCell>
        <mxCell id="MyRRs7XRICA8QSsl9Eci-5" value="Расчет стоимости поездки тарифа за минуту происходит по формуле:&lt;br&gt;&amp;nbsp;P(итоговая) = t * P(за минуту)" style="rounded=1;whiteSpace=wrap;html=1;arcSize=22;labelBackgroundColor=none;fillColor=#21C0A5;strokeColor=#006658;fontColor=#5C5C5C;" parent="1" vertex="1">
          <mxGeometry x="736.8099999999998" y="3052.34" width="246.5" height="50" as="geometry" />
        </mxCell>
        <mxCell id="MyRRs7XRICA8QSsl9Eci-22" value="Клик по кнопке переходит на стартовую страницу Яндекс" style="rounded=1;whiteSpace=wrap;html=1;arcSize=22;labelBackgroundColor=none;fillColor=#21C0A5;strokeColor=#006658;fontColor=#5C5C5C;" parent="1" vertex="1">
          <mxGeometry x="428.75" y="95" width="160" height="40" as="geometry" />
        </mxCell>
        <mxCell id="MyRRs7XRICA8QSsl9Eci-23" value="" style="endArrow=classic;html=1;rounded=0;exitX=1;exitY=0.5;exitDx=0;exitDy=0;entryX=0;entryY=0.5;entryDx=0;entryDy=0;" parent="1" source="A5lYPsGRQJ1GHH2UrvJ9-65" target="MyRRs7XRICA8QSsl9Eci-22" edge="1">
          <mxGeometry width="50" height="50" relative="1" as="geometry">
            <mxPoint x="478.75" y="210" as="sourcePoint" />
            <mxPoint x="528.75" y="160" as="targetPoint" />
          </mxGeometry>
        </mxCell>
        <mxCell id="MyRRs7XRICA8QSsl9Eci-24" value="Клик по кнопке переходит на стартовую&amp;nbsp;страницу Яндекс Маршруты" style="rounded=1;whiteSpace=wrap;html=1;arcSize=22;labelBackgroundColor=none;fillColor=#21C0A5;strokeColor=#006658;fontColor=#5C5C5C;" parent="1" vertex="1">
          <mxGeometry x="428.75" y="185" width="160" height="40" as="geometry" />
        </mxCell>
        <mxCell id="MyRRs7XRICA8QSsl9Eci-25" value="" style="endArrow=classic;html=1;rounded=0;exitX=1;exitY=0.5;exitDx=0;exitDy=0;entryX=0;entryY=0.5;entryDx=0;entryDy=0;" parent="1" source="A5lYPsGRQJ1GHH2UrvJ9-66" target="MyRRs7XRICA8QSsl9Eci-24" edge="1">
          <mxGeometry width="50" height="50" relative="1" as="geometry">
            <mxPoint x="348.75" y="310" as="sourcePoint" />
            <mxPoint x="398.75" y="260" as="targetPoint" />
          </mxGeometry>
        </mxCell>
        <mxCell id="MyRRs7XRICA8QSsl9Eci-29" value="Клик по ссылке переход кна страницу с условиями использования" style="rounded=1;whiteSpace=wrap;html=1;arcSize=22;labelBackgroundColor=none;fillColor=#21C0A5;strokeColor=#006658;fontColor=#5C5C5C;" parent="1" vertex="1">
          <mxGeometry x="751.7" y="4170" width="166.25" height="50" as="geometry" />
        </mxCell>
        <mxCell id="MyRRs7XRICA8QSsl9Eci-30" value="" style="endArrow=classic;html=1;rounded=0;exitX=1;exitY=0.5;exitDx=0;exitDy=0;entryX=0;entryY=0.5;entryDx=0;entryDy=0;strokeColor=#006658;fillColor=#008a00;edgeStyle=orthogonalEdgeStyle;curved=1;" parent="1" source="A5lYPsGRQJ1GHH2UrvJ9-254" target="MyRRs7XRICA8QSsl9Eci-29" edge="1">
          <mxGeometry width="50" height="50" relative="1" as="geometry">
            <mxPoint x="895.2700000000001" y="4260" as="sourcePoint" />
            <mxPoint x="945.2700000000001" y="4210" as="targetPoint" />
          </mxGeometry>
        </mxCell>
        <mxCell id="MyRRs7XRICA8QSsl9Eci-37" value="Открыть в Яндекс Картах" style="rounded=1;whiteSpace=wrap;html=1;arcSize=22;labelBackgroundColor=none;fillColor=#b0e3e6;strokeColor=#0e8088;" parent="1" vertex="1">
          <mxGeometry x="-1410" y="3270" width="220" height="40" as="geometry" />
        </mxCell>
        <mxCell id="MyRRs7XRICA8QSsl9Eci-41" value="Гиперссылка&lt;br&gt;Открыть в Яндекс Картах" style="rounded=1;whiteSpace=wrap;html=1;arcSize=22;labelBackgroundColor=none;fillColor=#21C0A5;strokeColor=#006658;fontColor=#5C5C5C;" parent="1" vertex="1">
          <mxGeometry x="471.2" y="4260" width="160" height="50" as="geometry" />
        </mxCell>
        <mxCell id="MyRRs7XRICA8QSsl9Eci-42" value="Клик по ссылке переход на страницу с Яндекс Картами" style="rounded=1;whiteSpace=wrap;html=1;arcSize=22;labelBackgroundColor=none;fillColor=#21C0A5;strokeColor=#006658;fontColor=#5C5C5C;" parent="1" vertex="1">
          <mxGeometry x="757.95" y="4260" width="160" height="50" as="geometry" />
        </mxCell>
        <mxCell id="MyRRs7XRICA8QSsl9Eci-43" value="" style="endArrow=classic;html=1;rounded=0;entryX=0;entryY=0.5;entryDx=0;entryDy=0;exitX=1;exitY=0.5;exitDx=0;exitDy=0;fillColor=#008a00;strokeColor=#006658;edgeStyle=orthogonalEdgeStyle;curved=1;" parent="1" source="MyRRs7XRICA8QSsl9Eci-41" target="MyRRs7XRICA8QSsl9Eci-42" edge="1">
          <mxGeometry width="50" height="50" relative="1" as="geometry">
            <mxPoint x="631.2" y="4280" as="sourcePoint" />
            <mxPoint x="754.8300000000002" y="4280" as="targetPoint" />
          </mxGeometry>
        </mxCell>
        <mxCell id="MyRRs7XRICA8QSsl9Eci-49" value="Пешком" style="rounded=1;whiteSpace=wrap;html=1;arcSize=22;labelBackgroundColor=none;fillColor=#b0e3e6;strokeColor=#0e8088;" parent="1" vertex="1">
          <mxGeometry x="-1251.25" y="1301.75" width="122.5" height="40" as="geometry" />
        </mxCell>
        <mxCell id="MyRRs7XRICA8QSsl9Eci-50" value="Каршеринг" style="rounded=1;whiteSpace=wrap;html=1;arcSize=22;labelBackgroundColor=none;fillColor=#b0e3e6;strokeColor=#0e8088;" parent="1" vertex="1">
          <mxGeometry x="-1251.25" y="1581.75" width="117.5" height="40" as="geometry" />
        </mxCell>
        <mxCell id="MyRRs7XRICA8QSsl9Eci-51" value="Такси" style="rounded=1;whiteSpace=wrap;html=1;arcSize=22;labelBackgroundColor=none;fillColor=#b0e3e6;strokeColor=#0e8088;" parent="1" vertex="1">
          <mxGeometry x="-1251.25" y="1503" width="117.5" height="40" as="geometry" />
        </mxCell>
        <mxCell id="MyRRs7XRICA8QSsl9Eci-52" value="Самокат" style="rounded=1;whiteSpace=wrap;html=1;arcSize=22;labelBackgroundColor=none;fillColor=#b0e3e6;strokeColor=#0e8088;" parent="1" vertex="1">
          <mxGeometry x="-1251.25" y="1377.75" width="115" height="40" as="geometry" />
        </mxCell>
        <mxCell id="MyRRs7XRICA8QSsl9Eci-53" value="Велосипед" style="rounded=1;whiteSpace=wrap;html=1;arcSize=22;labelBackgroundColor=none;fillColor=#b0e3e6;strokeColor=#0e8088;" parent="1" vertex="1">
          <mxGeometry x="-1251.25" y="1441" width="115" height="40" as="geometry" />
        </mxCell>
        <mxCell id="MyRRs7XRICA8QSsl9Eci-54" value="" style="endArrow=classic;html=1;rounded=0;entryX=1;entryY=0.5;entryDx=0;entryDy=0;exitX=0;exitY=0.5;exitDx=0;exitDy=0;labelBackgroundColor=none;fontColor=default;fillColor=#b0e3e6;strokeColor=#0E8088;edgeStyle=orthogonalEdgeStyle;curved=1;" parent="1" source="MyRRs7XRICA8QSsl9Eci-60" target="MyRRs7XRICA8QSsl9Eci-49" edge="1">
          <mxGeometry width="50" height="50" relative="1" as="geometry">
            <mxPoint x="-710" y="1419.75" as="sourcePoint" />
            <mxPoint x="-650" y="1289.75" as="targetPoint" />
          </mxGeometry>
        </mxCell>
        <mxCell id="MyRRs7XRICA8QSsl9Eci-55" value="" style="endArrow=classic;html=1;rounded=0;exitX=0;exitY=0.5;exitDx=0;exitDy=0;entryX=1;entryY=0.5;entryDx=0;entryDy=0;labelBackgroundColor=none;fontColor=default;fillColor=#b0e3e6;strokeColor=#0e8088;edgeStyle=orthogonalEdgeStyle;curved=1;" parent="1" source="MyRRs7XRICA8QSsl9Eci-60" target="MyRRs7XRICA8QSsl9Eci-52" edge="1">
          <mxGeometry width="50" height="50" relative="1" as="geometry">
            <mxPoint x="-710" y="1419.75" as="sourcePoint" />
            <mxPoint x="-670" y="1459.75" as="targetPoint" />
          </mxGeometry>
        </mxCell>
        <mxCell id="MyRRs7XRICA8QSsl9Eci-56" value="" style="endArrow=classic;html=1;rounded=0;exitX=0;exitY=0.5;exitDx=0;exitDy=0;entryX=1;entryY=0.5;entryDx=0;entryDy=0;labelBackgroundColor=none;fontColor=default;fillColor=#b0e3e6;strokeColor=#0e8088;edgeStyle=orthogonalEdgeStyle;curved=1;" parent="1" source="MyRRs7XRICA8QSsl9Eci-60" target="MyRRs7XRICA8QSsl9Eci-53" edge="1">
          <mxGeometry width="50" height="50" relative="1" as="geometry">
            <mxPoint x="-710" y="1419.75" as="sourcePoint" />
            <mxPoint x="-580" y="1489.75" as="targetPoint" />
          </mxGeometry>
        </mxCell>
        <mxCell id="MyRRs7XRICA8QSsl9Eci-57" value="" style="endArrow=classic;html=1;rounded=0;exitX=0;exitY=0.5;exitDx=0;exitDy=0;entryX=1;entryY=0.5;entryDx=0;entryDy=0;labelBackgroundColor=none;fontColor=default;fillColor=#b0e3e6;strokeColor=#0e8088;edgeStyle=orthogonalEdgeStyle;curved=1;" parent="1" source="MyRRs7XRICA8QSsl9Eci-60" target="MyRRs7XRICA8QSsl9Eci-51" edge="1">
          <mxGeometry width="50" height="50" relative="1" as="geometry">
            <mxPoint x="-710" y="1419.75" as="sourcePoint" />
            <mxPoint x="-580" y="1479.75" as="targetPoint" />
          </mxGeometry>
        </mxCell>
        <mxCell id="MyRRs7XRICA8QSsl9Eci-58" value="" style="endArrow=classic;html=1;rounded=0;exitX=0;exitY=0.5;exitDx=0;exitDy=0;entryX=1;entryY=0.5;entryDx=0;entryDy=0;labelBackgroundColor=none;fontColor=default;fillColor=#b0e3e6;strokeColor=#0E8088;edgeStyle=orthogonalEdgeStyle;curved=1;" parent="1" source="MyRRs7XRICA8QSsl9Eci-60" target="MyRRs7XRICA8QSsl9Eci-50" edge="1">
          <mxGeometry width="50" height="50" relative="1" as="geometry">
            <mxPoint x="-710" y="1419.75" as="sourcePoint" />
            <mxPoint x="-630" y="1469.75" as="targetPoint" />
            <Array as="points">
              <mxPoint x="-1037.5" y="1395.5" />
              <mxPoint x="-1037.5" y="1601.5" />
            </Array>
          </mxGeometry>
        </mxCell>
        <mxCell id="MyRRs7XRICA8QSsl9Eci-60" value="Меню выбора транспорта" style="rounded=1;whiteSpace=wrap;html=1;arcSize=22;labelBackgroundColor=none;fillColor=#b0e3e6;strokeColor=#0e8088;" parent="1" vertex="1">
          <mxGeometry x="-992.5" y="1375.5" width="120" height="40" as="geometry" />
        </mxCell>
        <mxCell id="MyRRs7XRICA8QSsl9Eci-62" value="Отображается белым цветом в сером круге (только в состоянии &quot;выбран&quot;)" style="rounded=1;whiteSpace=wrap;html=1;arcSize=22;labelBackgroundColor=none;fillColor=#b0e3e6;strokeColor=#0e8088;" parent="1" vertex="1">
          <mxGeometry x="-1530" y="1481" width="210" height="44.5" as="geometry" />
        </mxCell>
        <mxCell id="MyRRs7XRICA8QSsl9Eci-66" value="Режим &quot;Свой&quot;" style="rounded=1;whiteSpace=wrap;html=1;arcSize=22;labelBackgroundColor=none;fillColor=#b0e3e6;strokeColor=#0e8088;" parent="1" vertex="1">
          <mxGeometry x="-1162.5" y="1140" width="120" height="40" as="geometry" />
        </mxCell>
        <mxCell id="MyRRs7XRICA8QSsl9Eci-74" value="" style="endArrow=classic;html=1;rounded=0;exitX=0;exitY=0.5;exitDx=0;exitDy=0;entryX=1;entryY=0.5;entryDx=0;entryDy=0;labelBackgroundColor=none;fontColor=default;fillColor=#b0e3e6;strokeColor=#0E8088;edgeStyle=orthogonalEdgeStyle;curved=1;" parent="1" source="A5lYPsGRQJ1GHH2UrvJ9-20" target="MyRRs7XRICA8QSsl9Eci-66" edge="1">
          <mxGeometry width="50" height="50" relative="1" as="geometry">
            <mxPoint x="-869.5" y="1163.75" as="sourcePoint" />
            <mxPoint x="-997.5" y="1240.75" as="targetPoint" />
          </mxGeometry>
        </mxCell>
        <mxCell id="FtCtjgyLYjUNO7c_M10K-1" value="" style="endArrow=classic;html=1;rounded=0;exitX=1;exitY=0.5;exitDx=0;exitDy=0;entryX=0;entryY=0.5;entryDx=0;entryDy=0;edgeStyle=orthogonalEdgeStyle;curved=1;fillColor=#008a00;strokeColor=#025157;" parent="1" source="b9gM4gOocdvL3oOeD4PQ-259" target="A5lYPsGRQJ1GHH2UrvJ9-257" edge="1">
          <mxGeometry width="50" height="50" relative="1" as="geometry">
            <mxPoint x="959.6300000000001" y="4171.25" as="sourcePoint" />
            <mxPoint x="1009.6300000000001" y="4121.25" as="targetPoint" />
          </mxGeometry>
        </mxCell>
        <mxCell id="FtCtjgyLYjUNO7c_M10K-2" value="" style="endArrow=classic;html=1;rounded=0;exitX=1;exitY=0.5;exitDx=0;exitDy=0;entryX=0;entryY=0.5;entryDx=0;entryDy=0;edgeStyle=orthogonalEdgeStyle;curved=1;strokeColor=#007653;fillColor=#60a917;" parent="1" source="b9gM4gOocdvL3oOeD4PQ-259" target="A5lYPsGRQJ1GHH2UrvJ9-260" edge="1">
          <mxGeometry width="50" height="50" relative="1" as="geometry">
            <mxPoint x="909.6300000000001" y="4181.25" as="sourcePoint" />
            <mxPoint x="959.6300000000001" y="4131.25" as="targetPoint" />
          </mxGeometry>
        </mxCell>
        <mxCell id="FtCtjgyLYjUNO7c_M10K-3" value="" style="endArrow=classic;html=1;rounded=0;exitX=1;exitY=0.5;exitDx=0;exitDy=0;entryX=0;entryY=0.5;entryDx=0;entryDy=0;edgeStyle=orthogonalEdgeStyle;curved=1;fillColor=#008a00;strokeColor=#025749;" parent="1" source="b9gM4gOocdvL3oOeD4PQ-259" target="A5lYPsGRQJ1GHH2UrvJ9-265" edge="1">
          <mxGeometry width="50" height="50" relative="1" as="geometry">
            <mxPoint x="999.6300000000001" y="4231.25" as="sourcePoint" />
            <mxPoint x="1049.63" y="4181.25" as="targetPoint" />
            <Array as="points">
              <mxPoint x="1059.63" y="4010.25" />
              <mxPoint x="1059.63" y="4251.25" />
            </Array>
          </mxGeometry>
        </mxCell>
        <mxCell id="FtCtjgyLYjUNO7c_M10K-7" value="Такси" style="rounded=1;whiteSpace=wrap;html=1;arcSize=22;labelBackgroundColor=none;fillColor=#21C0A5;strokeColor=#006658;fontColor=#5C5C5C;" parent="1" vertex="1">
          <mxGeometry x="1328.1499999999996" y="2580" width="151.94" height="43.5" as="geometry" />
        </mxCell>
        <mxCell id="FtCtjgyLYjUNO7c_M10K-27" style="edgeStyle=orthogonalEdgeStyle;rounded=0;orthogonalLoop=1;jettySize=auto;html=1;exitX=0.5;exitY=1;exitDx=0;exitDy=0;labelBackgroundColor=none;strokeColor=#006658;fontColor=default;" parent="1" edge="1">
          <mxGeometry relative="1" as="geometry">
            <mxPoint x="1423.1799999999998" y="2392.6800000000003" as="sourcePoint" />
            <mxPoint x="1423.1799999999998" y="2392.6800000000003" as="targetPoint" />
          </mxGeometry>
        </mxCell>
        <mxCell id="FtCtjgyLYjUNO7c_M10K-28" value="Пешком" style="rounded=1;whiteSpace=wrap;html=1;arcSize=22;labelBackgroundColor=none;fillColor=#21C0A5;strokeColor=#006658;fontColor=#5C5C5C;" parent="1" vertex="1">
          <mxGeometry x="1332.9899999999998" y="2324.1900000000005" width="150" height="37.25" as="geometry" />
        </mxCell>
        <mxCell id="FtCtjgyLYjUNO7c_M10K-29" value="Каршеринг" style="rounded=1;whiteSpace=wrap;html=1;arcSize=22;labelBackgroundColor=none;fillColor=#21C0A5;strokeColor=#006658;fontColor=#5C5C5C;" parent="1" vertex="1">
          <mxGeometry x="1332.9899999999998" y="2670.0000000000005" width="150" height="40" as="geometry" />
        </mxCell>
        <mxCell id="FtCtjgyLYjUNO7c_M10K-31" value="Собственный автомобиль&amp;nbsp;" style="rounded=1;whiteSpace=wrap;html=1;arcSize=22;labelBackgroundColor=none;fillColor=#21C0A5;strokeColor=#006658;fontColor=#5C5C5C;" parent="1" vertex="1">
          <mxGeometry x="1332.9899999999998" y="2764.1800000000003" width="150" height="36" as="geometry" />
        </mxCell>
        <mxCell id="FtCtjgyLYjUNO7c_M10K-32" value="Самокат" style="rounded=1;whiteSpace=wrap;html=1;arcSize=22;labelBackgroundColor=none;fillColor=#21C0A5;strokeColor=#006658;fontColor=#5C5C5C;" parent="1" vertex="1">
          <mxGeometry x="1328.1499999999999" y="2413.6800000000003" width="150" height="37.25" as="geometry" />
        </mxCell>
        <mxCell id="FtCtjgyLYjUNO7c_M10K-33" value="Велосипед" style="rounded=1;whiteSpace=wrap;html=1;arcSize=22;labelBackgroundColor=none;fillColor=#21C0A5;strokeColor=#006658;fontColor=#5C5C5C;" parent="1" vertex="1">
          <mxGeometry x="1326.1799999999998" y="2493.2400000000002" width="150" height="40.75" as="geometry" />
        </mxCell>
        <mxCell id="FtCtjgyLYjUNO7c_M10K-34" style="edgeStyle=orthogonalEdgeStyle;rounded=0;orthogonalLoop=1;jettySize=auto;html=1;exitX=0.5;exitY=1;exitDx=0;exitDy=0;labelBackgroundColor=none;strokeColor=#006658;fontColor=default;" parent="1" source="FtCtjgyLYjUNO7c_M10K-31" target="FtCtjgyLYjUNO7c_M10K-31" edge="1">
          <mxGeometry relative="1" as="geometry" />
        </mxCell>
        <mxCell id="FtCtjgyLYjUNO7c_M10K-35" value="Меню выбора транспорта активно" style="rounded=1;whiteSpace=wrap;html=1;arcSize=22;labelBackgroundColor=none;fillColor=#21C0A5;strokeColor=#006658;fontColor=#5C5C5C;" parent="1" vertex="1">
          <mxGeometry x="1068.24" y="2533.9900000000002" width="145.56" height="40" as="geometry" />
        </mxCell>
        <mxCell id="FtCtjgyLYjUNO7c_M10K-36" value="" style="endArrow=classic;html=1;rounded=0;strokeColor=#006658;fontColor=#5C5C5C;fillColor=#21C0A5;exitX=1;exitY=0.5;exitDx=0;exitDy=0;entryX=0;entryY=0.5;entryDx=0;entryDy=0;edgeStyle=orthogonalEdgeStyle;curved=1;" parent="1" source="FtCtjgyLYjUNO7c_M10K-35" target="FtCtjgyLYjUNO7c_M10K-7" edge="1">
          <mxGeometry width="50" height="50" relative="1" as="geometry">
            <mxPoint x="1349.52" y="2532.5200000000004" as="sourcePoint" />
            <mxPoint x="1453.1399999999999" y="2552.8950000000004" as="targetPoint" />
          </mxGeometry>
        </mxCell>
        <mxCell id="FtCtjgyLYjUNO7c_M10K-37" value="" style="endArrow=classic;html=1;rounded=0;strokeColor=#006658;fontColor=#5C5C5C;fillColor=#21C0A5;exitX=1;exitY=0.5;exitDx=0;exitDy=0;entryX=0;entryY=0.5;entryDx=0;entryDy=0;edgeStyle=orthogonalEdgeStyle;curved=1;" parent="1" source="FtCtjgyLYjUNO7c_M10K-35" target="FtCtjgyLYjUNO7c_M10K-29" edge="1">
          <mxGeometry width="50" height="50" relative="1" as="geometry">
            <mxPoint x="1349.52" y="2532.5200000000004" as="sourcePoint" />
            <mxPoint x="1505.6399999999999" y="2662.5200000000004" as="targetPoint" />
          </mxGeometry>
        </mxCell>
        <mxCell id="FtCtjgyLYjUNO7c_M10K-41" value="" style="endArrow=classic;html=1;rounded=0;strokeColor=#006658;fontColor=#5C5C5C;fillColor=#21C0A5;exitX=1;exitY=0.5;exitDx=0;exitDy=0;entryX=0;entryY=0.5;entryDx=0;entryDy=0;edgeStyle=orthogonalEdgeStyle;curved=1;" parent="1" source="FtCtjgyLYjUNO7c_M10K-35" target="FtCtjgyLYjUNO7c_M10K-31" edge="1">
          <mxGeometry width="50" height="50" relative="1" as="geometry">
            <mxPoint x="1349.52" y="2532.5200000000004" as="sourcePoint" />
            <mxPoint x="1345.6399999999999" y="2622.5200000000004" as="targetPoint" />
          </mxGeometry>
        </mxCell>
        <mxCell id="FtCtjgyLYjUNO7c_M10K-57" style="edgeStyle=orthogonalEdgeStyle;rounded=0;orthogonalLoop=1;jettySize=auto;html=1;exitX=0.5;exitY=1;exitDx=0;exitDy=0;labelBackgroundColor=none;strokeColor=#006658;fontColor=default;" parent="1" edge="1">
          <mxGeometry relative="1" as="geometry">
            <mxPoint x="1230.8" y="2974.7500000000005" as="sourcePoint" />
            <mxPoint x="1230.8" y="2974.7500000000005" as="targetPoint" />
          </mxGeometry>
        </mxCell>
        <mxCell id="FtCtjgyLYjUNO7c_M10K-82" value="Если&amp;nbsp; сменить вид транспорта или поменять значение в любом поле, маршрут перестроится; время и стоимость поездки пересчитается.&lt;span id=&quot;docs-internal-guid-e4b36b28-7fff-cb89-3cd0-6125e9280b09&quot;&gt;&lt;/span&gt;" style="rounded=1;whiteSpace=wrap;html=1;arcSize=22;labelBackgroundColor=none;fillColor=#21C0A5;strokeColor=#006658;fontColor=#5C5C5C;" parent="1" vertex="1">
          <mxGeometry x="1034.25" y="2852.5200000000004" width="280.24" height="60.75" as="geometry" />
        </mxCell>
        <mxCell id="FtCtjgyLYjUNO7c_M10K-85" value="Маршрут строится под выбранный вид транспорта" style="rounded=1;whiteSpace=wrap;html=1;arcSize=22;labelBackgroundColor=none;fillColor=#21C0A5;strokeColor=#006658;fontColor=#5C5C5C;" parent="1" vertex="1">
          <mxGeometry x="1068.24" y="2593.9900000000002" width="145.75" height="40" as="geometry" />
        </mxCell>
        <mxCell id="FtCtjgyLYjUNO7c_M10K-86" value="" style="endArrow=classic;html=1;rounded=0;exitX=1;exitY=0.5;exitDx=0;exitDy=0;entryX=0;entryY=0.5;entryDx=0;entryDy=0;edgeStyle=orthogonalEdgeStyle;curved=1;fillColor=#008a00;strokeColor=#035733;" parent="1" source="A5lYPsGRQJ1GHH2UrvJ9-133" target="FtCtjgyLYjUNO7c_M10K-85" edge="1">
          <mxGeometry width="50" height="50" relative="1" as="geometry">
            <mxPoint x="994.25" y="2772.5200000000004" as="sourcePoint" />
            <mxPoint x="1044.25" y="2722.5200000000004" as="targetPoint" />
            <Array as="points">
              <mxPoint x="865" y="2773.9900000000002" />
              <mxPoint x="865" y="2613.9900000000002" />
            </Array>
          </mxGeometry>
        </mxCell>
        <mxCell id="FtCtjgyLYjUNO7c_M10K-88" value="" style="endArrow=classic;html=1;rounded=0;exitX=1;exitY=0.5;exitDx=0;exitDy=0;entryX=0;entryY=0.5;entryDx=0;entryDy=0;edgeStyle=orthogonalEdgeStyle;curved=1;fillColor=#008a00;strokeColor=#03573E;" parent="1" source="FtCtjgyLYjUNO7c_M10K-35" target="FtCtjgyLYjUNO7c_M10K-32" edge="1">
          <mxGeometry width="50" height="50" relative="1" as="geometry">
            <mxPoint x="1435.8" y="2371.4900000000002" as="sourcePoint" />
            <mxPoint x="1485.8" y="2321.4900000000002" as="targetPoint" />
          </mxGeometry>
        </mxCell>
        <mxCell id="FtCtjgyLYjUNO7c_M10K-89" value="" style="endArrow=classic;html=1;rounded=0;exitX=1;exitY=0.5;exitDx=0;exitDy=0;entryX=0;entryY=0.5;entryDx=0;entryDy=0;strokeColor=#035738;fillColor=#008a00;edgeStyle=orthogonalEdgeStyle;curved=1;" parent="1" source="FtCtjgyLYjUNO7c_M10K-35" target="FtCtjgyLYjUNO7c_M10K-33" edge="1">
          <mxGeometry width="50" height="50" relative="1" as="geometry">
            <mxPoint x="1445.8" y="2371.4900000000002" as="sourcePoint" />
            <mxPoint x="1495.8" y="2321.4900000000002" as="targetPoint" />
          </mxGeometry>
        </mxCell>
        <mxCell id="FtCtjgyLYjUNO7c_M10K-90" value="" style="endArrow=classic;html=1;rounded=0;exitX=1;exitY=0.5;exitDx=0;exitDy=0;entryX=0;entryY=0.5;entryDx=0;entryDy=0;edgeStyle=orthogonalEdgeStyle;curved=1;fillColor=#008a00;strokeColor=#025738;" parent="1" source="A5lYPsGRQJ1GHH2UrvJ9-133" target="FtCtjgyLYjUNO7c_M10K-91" edge="1">
          <mxGeometry width="50" height="50" relative="1" as="geometry">
            <mxPoint x="894.25" y="2822.5200000000004" as="sourcePoint" />
            <mxPoint x="894.25" y="2762.5200000000004" as="targetPoint" />
          </mxGeometry>
        </mxCell>
        <mxCell id="FtCtjgyLYjUNO7c_M10K-91" value="Рассчитывается время поездки" style="rounded=1;whiteSpace=wrap;html=1;arcSize=22;labelBackgroundColor=none;fillColor=#21C0A5;strokeColor=#006658;fontColor=#5C5C5C;" parent="1" vertex="1">
          <mxGeometry x="1068.24" y="2653.9900000000002" width="145.75" height="40" as="geometry" />
        </mxCell>
        <mxCell id="FtCtjgyLYjUNO7c_M10K-92" value="Рассчитывается стоимость поездки" style="rounded=1;whiteSpace=wrap;html=1;arcSize=22;labelBackgroundColor=none;fillColor=#21C0A5;strokeColor=#006658;fontColor=#5C5C5C;" parent="1" vertex="1">
          <mxGeometry x="1065.88" y="2721.8" width="145.75" height="40" as="geometry" />
        </mxCell>
        <mxCell id="FtCtjgyLYjUNO7c_M10K-93" value="" style="endArrow=classic;html=1;rounded=0;exitX=1;exitY=0.5;exitDx=0;exitDy=0;entryX=0;entryY=0.5;entryDx=0;entryDy=0;fillColor=#008a00;strokeColor=#025746;edgeStyle=orthogonalEdgeStyle;curved=1;" parent="1" source="A5lYPsGRQJ1GHH2UrvJ9-133" target="FtCtjgyLYjUNO7c_M10K-92" edge="1">
          <mxGeometry width="50" height="50" relative="1" as="geometry">
            <mxPoint x="764.25" y="2882.5200000000004" as="sourcePoint" />
            <mxPoint x="814.25" y="2832.5200000000004" as="targetPoint" />
          </mxGeometry>
        </mxCell>
        <mxCell id="FtCtjgyLYjUNO7c_M10K-95" value="" style="endArrow=classic;html=1;rounded=0;exitX=1;exitY=0.5;exitDx=0;exitDy=0;entryX=0;entryY=0.5;entryDx=0;entryDy=0;edgeStyle=orthogonalEdgeStyle;curved=1;fillColor=#008a00;strokeColor=#035735;" parent="1" source="A5lYPsGRQJ1GHH2UrvJ9-133" target="FtCtjgyLYjUNO7c_M10K-82" edge="1">
          <mxGeometry width="50" height="50" relative="1" as="geometry">
            <mxPoint x="784.25" y="2902.5200000000004" as="sourcePoint" />
            <mxPoint x="834.25" y="2852.5200000000004" as="targetPoint" />
          </mxGeometry>
        </mxCell>
        <mxCell id="FtCtjgyLYjUNO7c_M10K-96" value="Стоимость зависит от выбранного вида транспорта" style="rounded=1;whiteSpace=wrap;html=1;arcSize=22;labelBackgroundColor=none;fillColor=#21C0A5;strokeColor=#006658;fontColor=#5C5C5C;" parent="1" vertex="1">
          <mxGeometry x="1067.93" y="2783.05" width="145.75" height="40" as="geometry" />
        </mxCell>
        <mxCell id="FtCtjgyLYjUNO7c_M10K-99" value="" style="endArrow=classic;html=1;rounded=0;exitX=1;exitY=0.5;exitDx=0;exitDy=0;entryX=0;entryY=0.5;entryDx=0;entryDy=0;edgeStyle=orthogonalEdgeStyle;curved=1;fillColor=#008a00;strokeColor=#01573D;" parent="1" source="A5lYPsGRQJ1GHH2UrvJ9-133" target="FtCtjgyLYjUNO7c_M10K-96" edge="1">
          <mxGeometry width="50" height="50" relative="1" as="geometry">
            <mxPoint x="894.25" y="2832.5200000000004" as="sourcePoint" />
            <mxPoint x="944.25" y="2782.5200000000004" as="targetPoint" />
          </mxGeometry>
        </mxCell>
        <mxCell id="FtCtjgyLYjUNO7c_M10K-100" value="" style="endArrow=classic;html=1;rounded=0;exitX=1;exitY=0.5;exitDx=0;exitDy=0;entryX=0;entryY=0.5;entryDx=0;entryDy=0;edgeStyle=orthogonalEdgeStyle;curved=1;fillColor=#008a00;strokeColor=#035735;" parent="1" source="A5lYPsGRQJ1GHH2UrvJ9-133" target="FtCtjgyLYjUNO7c_M10K-35" edge="1">
          <mxGeometry width="50" height="50" relative="1" as="geometry">
            <mxPoint x="744.25" y="2682.5200000000004" as="sourcePoint" />
            <mxPoint x="794.25" y="2632.5200000000004" as="targetPoint" />
            <Array as="points">
              <mxPoint x="855" y="2773.9900000000002" />
              <mxPoint x="855" y="2553.9900000000002" />
            </Array>
          </mxGeometry>
        </mxCell>
        <mxCell id="FtCtjgyLYjUNO7c_M10K-108" style="edgeStyle=orthogonalEdgeStyle;rounded=0;orthogonalLoop=1;jettySize=auto;html=1;exitX=0.5;exitY=1;exitDx=0;exitDy=0;labelBackgroundColor=none;strokeColor=#006658;fontColor=default;" parent="1" edge="1">
          <mxGeometry relative="1" as="geometry">
            <mxPoint x="1061.49" y="2970.0000000000005" as="sourcePoint" />
            <mxPoint x="1061.49" y="2970.0000000000005" as="targetPoint" />
          </mxGeometry>
        </mxCell>
        <mxCell id="FtCtjgyLYjUNO7c_M10K-112" value="" style="endArrow=classic;html=1;rounded=0;exitX=1;exitY=0.5;exitDx=0;exitDy=0;entryX=0;entryY=0.5;entryDx=0;entryDy=0;edgeStyle=orthogonalEdgeStyle;curved=1;fillColor=#008a00;strokeColor=#005720;" parent="1" source="FtCtjgyLYjUNO7c_M10K-35" target="FtCtjgyLYjUNO7c_M10K-28" edge="1">
          <mxGeometry width="50" height="50" relative="1" as="geometry">
            <mxPoint x="1155" y="2453.9900000000002" as="sourcePoint" />
            <mxPoint x="1205" y="2403.9900000000002" as="targetPoint" />
            <Array as="points">
              <mxPoint x="1255" y="2554" />
              <mxPoint x="1255" y="2383" />
              <mxPoint x="1310" y="2383" />
              <mxPoint x="1310" y="2343" />
            </Array>
          </mxGeometry>
        </mxCell>
        <mxCell id="enqwQ2bbHpvwQ0kJNUOB-27" value="Расчет стоимости поездки тарифа за минуту происходит по формуле:&lt;br style=&quot;border-color: var(--border-color);&quot;&gt;&amp;nbsp;P(итоговая) = P = S * P(за километр)" style="rounded=1;whiteSpace=wrap;html=1;arcSize=22;labelBackgroundColor=none;fillColor=#21C0A5;strokeColor=#006658;fontColor=#5C5C5C;" parent="1" vertex="1">
          <mxGeometry x="736.25" y="3250.01" width="246.5" height="50" as="geometry" />
        </mxCell>
        <mxCell id="enqwQ2bbHpvwQ0kJNUOB-28" value="Виды транспорта для расчетов" style="rounded=1;whiteSpace=wrap;html=1;arcSize=22;labelBackgroundColor=none;fillColor=#21C0A5;strokeColor=#006658;fontColor=#5C5C5C;" parent="1" vertex="1">
          <mxGeometry x="1043.86" y="3057.34" width="152.5" height="40" as="geometry" />
        </mxCell>
        <mxCell id="enqwQ2bbHpvwQ0kJNUOB-30" value="Такси" style="rounded=1;whiteSpace=wrap;html=1;arcSize=22;labelBackgroundColor=none;fillColor=#21C0A5;strokeColor=#006658;fontColor=#5C5C5C;" parent="1" vertex="1">
          <mxGeometry x="1278.0599999999997" y="3057.34" width="151.94" height="43.5" as="geometry" />
        </mxCell>
        <mxCell id="enqwQ2bbHpvwQ0kJNUOB-31" value="Каршеринг" style="rounded=1;whiteSpace=wrap;html=1;arcSize=22;labelBackgroundColor=none;fillColor=#21C0A5;strokeColor=#006658;fontColor=#5C5C5C;" parent="1" vertex="1">
          <mxGeometry x="1275.7499999999998" y="3141.48" width="150" height="40" as="geometry" />
        </mxCell>
        <mxCell id="enqwQ2bbHpvwQ0kJNUOB-34" value="Виды транспорта для расчетов" style="rounded=1;whiteSpace=wrap;html=1;arcSize=22;labelBackgroundColor=none;fillColor=#21C0A5;strokeColor=#006658;fontColor=#5C5C5C;" parent="1" vertex="1">
          <mxGeometry x="1045.5500000000002" y="3255" width="152.5" height="40" as="geometry" />
        </mxCell>
        <mxCell id="enqwQ2bbHpvwQ0kJNUOB-37" style="edgeStyle=orthogonalEdgeStyle;rounded=0;orthogonalLoop=1;jettySize=auto;html=1;exitX=0.5;exitY=1;exitDx=0;exitDy=0;labelBackgroundColor=none;strokeColor=#006658;fontColor=default;" parent="1" edge="1">
          <mxGeometry relative="1" as="geometry">
            <mxPoint x="1818.9" y="3532.23" as="sourcePoint" />
            <mxPoint x="1818.9" y="3532.23" as="targetPoint" />
          </mxGeometry>
        </mxCell>
        <mxCell id="enqwQ2bbHpvwQ0kJNUOB-38" value="Пешком" style="rounded=1;whiteSpace=wrap;html=1;arcSize=22;labelBackgroundColor=none;fillColor=#21C0A5;strokeColor=#006658;fontColor=#5C5C5C;" parent="1" vertex="1">
          <mxGeometry x="1280.0000000000002" y="3256.38" width="150" height="37.25" as="geometry" />
        </mxCell>
        <mxCell id="enqwQ2bbHpvwQ0kJNUOB-40" value="Собственный автомобиль&amp;nbsp;" style="rounded=1;whiteSpace=wrap;html=1;arcSize=22;labelBackgroundColor=none;fillColor=#21C0A5;strokeColor=#006658;fontColor=#5C5C5C;" parent="1" vertex="1">
          <mxGeometry x="1278.0600000000002" y="3468" width="150" height="36" as="geometry" />
        </mxCell>
        <mxCell id="enqwQ2bbHpvwQ0kJNUOB-41" value="Самокат" style="rounded=1;whiteSpace=wrap;html=1;arcSize=22;labelBackgroundColor=none;fillColor=#21C0A5;strokeColor=#006658;fontColor=#5C5C5C;" parent="1" vertex="1">
          <mxGeometry x="1282.43" y="3331.9" width="150" height="37.25" as="geometry" />
        </mxCell>
        <mxCell id="enqwQ2bbHpvwQ0kJNUOB-42" value="Велосипед" style="rounded=1;whiteSpace=wrap;html=1;arcSize=22;labelBackgroundColor=none;fillColor=#21C0A5;strokeColor=#006658;fontColor=#5C5C5C;" parent="1" vertex="1">
          <mxGeometry x="1280" y="3400" width="150" height="40.75" as="geometry" />
        </mxCell>
        <mxCell id="enqwQ2bbHpvwQ0kJNUOB-43" style="edgeStyle=orthogonalEdgeStyle;rounded=0;orthogonalLoop=1;jettySize=auto;html=1;exitX=0.5;exitY=1;exitDx=0;exitDy=0;labelBackgroundColor=none;strokeColor=#006658;fontColor=default;" parent="1" source="enqwQ2bbHpvwQ0kJNUOB-40" target="enqwQ2bbHpvwQ0kJNUOB-40" edge="1">
          <mxGeometry relative="1" as="geometry" />
        </mxCell>
        <mxCell id="enqwQ2bbHpvwQ0kJNUOB-74" value="Панель информации о поездке" style="rounded=1;whiteSpace=wrap;html=1;arcSize=22;labelBackgroundColor=none;fillColor=#b0e3e6;strokeColor=#0e8088;" parent="1" vertex="1">
          <mxGeometry x="-877.5" y="1956.33" width="120" height="40" as="geometry" />
        </mxCell>
        <mxCell id="enqwQ2bbHpvwQ0kJNUOB-75" value="Отображается стоимость поездки" style="rounded=1;whiteSpace=wrap;html=1;arcSize=22;labelBackgroundColor=none;fillColor=#b0e3e6;strokeColor=#0e8088;" parent="1" vertex="1">
          <mxGeometry x="-1085" y="1893.21" width="120" height="40" as="geometry" />
        </mxCell>
        <mxCell id="enqwQ2bbHpvwQ0kJNUOB-76" value="Кнопка &quot;Вызвать такси&quot; (для такси)" style="rounded=1;whiteSpace=wrap;html=1;arcSize=22;labelBackgroundColor=none;fillColor=#b0e3e6;strokeColor=#0e8088;" parent="1" vertex="1">
          <mxGeometry x="-1085" y="2082.27" width="120" height="40" as="geometry" />
        </mxCell>
        <mxCell id="enqwQ2bbHpvwQ0kJNUOB-77" value="Изображение&amp;nbsp; машины &quot;Такси&quot;(для такси)" style="rounded=1;whiteSpace=wrap;html=1;arcSize=22;labelBackgroundColor=none;fillColor=#b0e3e6;strokeColor=#0e8088;" parent="1" vertex="1">
          <mxGeometry x="-1083.75" y="2146.02" width="120" height="50.47" as="geometry" />
        </mxCell>
        <mxCell id="enqwQ2bbHpvwQ0kJNUOB-78" value="" style="endArrow=classic;html=1;rounded=0;exitX=0;exitY=0.5;exitDx=0;exitDy=0;entryX=1;entryY=0.5;entryDx=0;entryDy=0;edgeStyle=orthogonalEdgeStyle;curved=1;strokeColor=#0E8088;" parent="1" source="enqwQ2bbHpvwQ0kJNUOB-74" target="enqwQ2bbHpvwQ0kJNUOB-75" edge="1">
          <mxGeometry width="50" height="50" relative="1" as="geometry">
            <mxPoint x="-855" y="2099.46" as="sourcePoint" />
            <mxPoint x="-805" y="2049.46" as="targetPoint" />
          </mxGeometry>
        </mxCell>
        <mxCell id="enqwQ2bbHpvwQ0kJNUOB-79" value="" style="endArrow=classic;html=1;rounded=0;exitX=0;exitY=0.5;exitDx=0;exitDy=0;entryX=1;entryY=0.5;entryDx=0;entryDy=0;edgeStyle=orthogonalEdgeStyle;strokeColor=#0E8088;fillColor=#cce5ff;curved=1;" parent="1" source="enqwQ2bbHpvwQ0kJNUOB-74" target="enqwQ2bbHpvwQ0kJNUOB-76" edge="1">
          <mxGeometry width="50" height="50" relative="1" as="geometry">
            <mxPoint x="-835" y="2089.46" as="sourcePoint" />
            <mxPoint x="-785" y="2039.46" as="targetPoint" />
          </mxGeometry>
        </mxCell>
        <mxCell id="enqwQ2bbHpvwQ0kJNUOB-81" value="Отображается время в пути" style="rounded=1;whiteSpace=wrap;html=1;arcSize=22;labelBackgroundColor=none;fillColor=#b0e3e6;strokeColor=#0e8088;" parent="1" vertex="1">
          <mxGeometry x="-1083.75" y="1956.33" width="120" height="40" as="geometry" />
        </mxCell>
        <mxCell id="enqwQ2bbHpvwQ0kJNUOB-82" value="Название вида транспорта&amp;nbsp;" style="rounded=1;whiteSpace=wrap;html=1;arcSize=22;labelBackgroundColor=none;fillColor=#b0e3e6;strokeColor=#0e8088;" parent="1" vertex="1">
          <mxGeometry x="-1083.75" y="2016.33" width="120" height="40" as="geometry" />
        </mxCell>
        <mxCell id="enqwQ2bbHpvwQ0kJNUOB-83" value="" style="endArrow=classic;html=1;rounded=0;exitX=0;exitY=0.5;exitDx=0;exitDy=0;entryX=1;entryY=0.5;entryDx=0;entryDy=0;edgeStyle=orthogonalEdgeStyle;curved=1;strokeColor=#0E8088;" parent="1" source="enqwQ2bbHpvwQ0kJNUOB-74" target="enqwQ2bbHpvwQ0kJNUOB-81" edge="1">
          <mxGeometry width="50" height="50" relative="1" as="geometry">
            <mxPoint x="-753.75" y="2087.58" as="sourcePoint" />
            <mxPoint x="-703.75" y="2037.58" as="targetPoint" />
          </mxGeometry>
        </mxCell>
        <mxCell id="enqwQ2bbHpvwQ0kJNUOB-84" value="" style="endArrow=classic;html=1;rounded=0;exitX=0;exitY=0.5;exitDx=0;exitDy=0;entryX=1;entryY=0.5;entryDx=0;entryDy=0;edgeStyle=orthogonalEdgeStyle;curved=1;strokeColor=#0E8088;" parent="1" source="enqwQ2bbHpvwQ0kJNUOB-74" target="enqwQ2bbHpvwQ0kJNUOB-82" edge="1">
          <mxGeometry width="50" height="50" relative="1" as="geometry">
            <mxPoint x="-753.75" y="2087.58" as="sourcePoint" />
            <mxPoint x="-703.75" y="2037.58" as="targetPoint" />
          </mxGeometry>
        </mxCell>
        <mxCell id="enqwQ2bbHpvwQ0kJNUOB-100" value="" style="endArrow=classic;html=1;rounded=0;exitX=1;exitY=0.5;exitDx=0;exitDy=0;entryX=0;entryY=0.5;entryDx=0;entryDy=0;edgeStyle=orthogonalEdgeStyle;curved=1;strokeColor=#006658;" parent="1" source="A5lYPsGRQJ1GHH2UrvJ9-250" target="b9gM4gOocdvL3oOeD4PQ-259" edge="1">
          <mxGeometry width="50" height="50" relative="1" as="geometry">
            <mxPoint x="375.45" y="3910" as="sourcePoint" />
            <mxPoint x="425.45" y="3860" as="targetPoint" />
          </mxGeometry>
        </mxCell>
        <mxCell id="enqwQ2bbHpvwQ0kJNUOB-104" value="Не отображается если в поле &quot;Откуда&quot; введены невалидные данные" style="rounded=1;whiteSpace=wrap;html=1;arcSize=22;strokeColor=#006658;labelBackgroundColor=none;fillColor=#21C0A5;fontColor=#5C5C5C;" parent="1" vertex="1">
          <mxGeometry x="1059.3100000000002" y="3643.5" width="218.75" height="40" as="geometry" />
        </mxCell>
        <mxCell id="enqwQ2bbHpvwQ0kJNUOB-105" value="Точка начала маршрута &quot;А&quot;" style="rounded=1;whiteSpace=wrap;html=1;arcSize=22;labelBackgroundColor=none;fillColor=#21C0A5;strokeColor=#006658;fontColor=#5C5C5C;" parent="1" vertex="1">
          <mxGeometry x="770.95" y="3603.5" width="213.75" height="40" as="geometry" />
        </mxCell>
        <mxCell id="enqwQ2bbHpvwQ0kJNUOB-108" value="" style="endArrow=classic;html=1;rounded=0;exitX=1;exitY=0.5;exitDx=0;exitDy=0;entryX=0;entryY=0.5;entryDx=0;entryDy=0;edgeStyle=orthogonalEdgeStyle;curved=1;strokeColor=#006658;" parent="1" source="A5lYPsGRQJ1GHH2UrvJ9-250" target="A5lYPsGRQJ1GHH2UrvJ9-268" edge="1">
          <mxGeometry width="50" height="50" relative="1" as="geometry">
            <mxPoint x="435.45" y="3730" as="sourcePoint" />
            <mxPoint x="485.45" y="3680" as="targetPoint" />
          </mxGeometry>
        </mxCell>
        <mxCell id="enqwQ2bbHpvwQ0kJNUOB-109" value="" style="endArrow=classic;html=1;rounded=0;exitX=1;exitY=0.5;exitDx=0;exitDy=0;entryX=0;entryY=0.5;entryDx=0;entryDy=0;edgeStyle=orthogonalEdgeStyle;curved=1;strokeColor=#006658;" parent="1" source="A5lYPsGRQJ1GHH2UrvJ9-268" target="enqwQ2bbHpvwQ0kJNUOB-105" edge="1">
          <mxGeometry width="50" height="50" relative="1" as="geometry">
            <mxPoint x="676.7" y="3813.5" as="sourcePoint" />
            <mxPoint x="726.7" y="3763.5" as="targetPoint" />
          </mxGeometry>
        </mxCell>
        <mxCell id="enqwQ2bbHpvwQ0kJNUOB-110" value="" style="endArrow=classic;html=1;rounded=0;exitX=1;exitY=0.5;exitDx=0;exitDy=0;entryX=0;entryY=0.5;entryDx=0;entryDy=0;edgeStyle=orthogonalEdgeStyle;curved=1;strokeColor=#006658;" parent="1" source="A5lYPsGRQJ1GHH2UrvJ9-268" target="enqwQ2bbHpvwQ0kJNUOB-119" edge="1">
          <mxGeometry width="50" height="50" relative="1" as="geometry">
            <mxPoint x="706.7" y="3863.5" as="sourcePoint" />
            <mxPoint x="766.7" y="3803.5" as="targetPoint" />
            <Array as="points">
              <mxPoint x="735.45" y="3700" />
              <mxPoint x="735.45" y="3760" />
            </Array>
          </mxGeometry>
        </mxCell>
        <mxCell id="enqwQ2bbHpvwQ0kJNUOB-111" value="" style="endArrow=classic;html=1;rounded=0;exitX=1;exitY=0.5;exitDx=0;exitDy=0;entryX=0;entryY=0.5;entryDx=0;entryDy=0;edgeStyle=orthogonalEdgeStyle;curved=1;strokeColor=#006658;" parent="1" source="enqwQ2bbHpvwQ0kJNUOB-105" target="s1LpaKvmIa9BUWUZ4o1i-238" edge="1">
          <mxGeometry width="50" height="50" relative="1" as="geometry">
            <mxPoint x="1038.8300000000002" y="3743.5" as="sourcePoint" />
            <mxPoint x="1088.8300000000002" y="3693.5" as="targetPoint" />
          </mxGeometry>
        </mxCell>
        <mxCell id="enqwQ2bbHpvwQ0kJNUOB-113" value="" style="endArrow=classic;html=1;rounded=0;exitX=1;exitY=0.5;exitDx=0;exitDy=0;entryX=0;entryY=0.5;entryDx=0;entryDy=0;edgeStyle=orthogonalEdgeStyle;curved=1;strokeColor=#006658;" parent="1" source="enqwQ2bbHpvwQ0kJNUOB-105" target="enqwQ2bbHpvwQ0kJNUOB-104" edge="1">
          <mxGeometry width="50" height="50" relative="1" as="geometry">
            <mxPoint x="1058.8300000000002" y="3803.5" as="sourcePoint" />
            <mxPoint x="1108.8300000000002" y="3753.5" as="targetPoint" />
          </mxGeometry>
        </mxCell>
        <mxCell id="enqwQ2bbHpvwQ0kJNUOB-117" value="Отображается если в поле &quot;Куда&quot; введены валидные данные" style="rounded=1;whiteSpace=wrap;html=1;arcSize=22;labelBackgroundColor=none;fillColor=#21C0A5;strokeColor=#006658;fontColor=#5C5C5C;" parent="1" vertex="1">
          <mxGeometry x="1061" y="3719.5" width="215.37" height="40" as="geometry" />
        </mxCell>
        <mxCell id="enqwQ2bbHpvwQ0kJNUOB-118" value="Не отображается если в поле &quot;Куда&quot; введены невалидные данные" style="rounded=1;whiteSpace=wrap;html=1;arcSize=22;strokeColor=#006658;labelBackgroundColor=none;fillColor=#21C0A5;fontColor=#5C5C5C;" parent="1" vertex="1">
          <mxGeometry x="1061.63" y="3790" width="212.13" height="40" as="geometry" />
        </mxCell>
        <mxCell id="enqwQ2bbHpvwQ0kJNUOB-119" value="Точка окончания маршрута &quot;В&quot;" style="rounded=1;whiteSpace=wrap;html=1;arcSize=22;labelBackgroundColor=none;fillColor=#21C0A5;strokeColor=#006658;fontColor=#5C5C5C;" parent="1" vertex="1">
          <mxGeometry x="776.1999999999999" y="3740" width="213.75" height="40" as="geometry" />
        </mxCell>
        <mxCell id="enqwQ2bbHpvwQ0kJNUOB-120" value="" style="endArrow=classic;html=1;rounded=0;exitX=1;exitY=0.5;exitDx=0;exitDy=0;entryX=0;entryY=0.5;entryDx=0;entryDy=0;edgeStyle=orthogonalEdgeStyle;curved=1;strokeColor=#006658;" parent="1" source="enqwQ2bbHpvwQ0kJNUOB-119" target="enqwQ2bbHpvwQ0kJNUOB-117" edge="1">
          <mxGeometry width="50" height="50" relative="1" as="geometry">
            <mxPoint x="1047.14" y="3893" as="sourcePoint" />
            <mxPoint x="1097.14" y="3843" as="targetPoint" />
          </mxGeometry>
        </mxCell>
        <mxCell id="enqwQ2bbHpvwQ0kJNUOB-121" value="" style="endArrow=classic;html=1;rounded=0;exitX=1;exitY=0.5;exitDx=0;exitDy=0;entryX=0;entryY=0.5;entryDx=0;entryDy=0;edgeStyle=orthogonalEdgeStyle;curved=1;strokeColor=#006658;" parent="1" source="enqwQ2bbHpvwQ0kJNUOB-119" target="enqwQ2bbHpvwQ0kJNUOB-118" edge="1">
          <mxGeometry width="50" height="50" relative="1" as="geometry">
            <mxPoint x="1067.14" y="3953" as="sourcePoint" />
            <mxPoint x="1046.6299999999999" y="3813" as="targetPoint" />
          </mxGeometry>
        </mxCell>
        <mxCell id="enqwQ2bbHpvwQ0kJNUOB-122" value="" style="endArrow=classic;html=1;rounded=0;exitX=1;exitY=0.5;exitDx=0;exitDy=0;entryX=0;entryY=0.5;entryDx=0;entryDy=0;strokeColor=#006658;edgeStyle=orthogonalEdgeStyle;curved=1;" parent="1" source="A5lYPsGRQJ1GHH2UrvJ9-268" target="A5lYPsGRQJ1GHH2UrvJ9-271" edge="1">
          <mxGeometry width="50" height="50" relative="1" as="geometry">
            <mxPoint x="635.45" y="3860" as="sourcePoint" />
            <mxPoint x="685.45" y="3810" as="targetPoint" />
          </mxGeometry>
        </mxCell>
        <mxCell id="enqwQ2bbHpvwQ0kJNUOB-124" value="" style="endArrow=classic;html=1;rounded=0;exitX=1;exitY=0.5;exitDx=0;exitDy=0;entryX=0;entryY=0.5;entryDx=0;entryDy=0;entryPerimeter=0;edgeStyle=orthogonalEdgeStyle;curved=1;strokeColor=#006658;" parent="1" source="A5lYPsGRQJ1GHH2UrvJ9-250" target="A5lYPsGRQJ1GHH2UrvJ9-254" edge="1">
          <mxGeometry width="50" height="50" relative="1" as="geometry">
            <mxPoint x="375.45" y="4200" as="sourcePoint" />
            <mxPoint x="425.45" y="4150" as="targetPoint" />
          </mxGeometry>
        </mxCell>
        <mxCell id="enqwQ2bbHpvwQ0kJNUOB-125" value="" style="endArrow=classic;html=1;rounded=0;exitX=1;exitY=0.5;exitDx=0;exitDy=0;entryX=0;entryY=0.5;entryDx=0;entryDy=0;edgeStyle=orthogonalEdgeStyle;curved=1;strokeColor=#006658;" parent="1" source="A5lYPsGRQJ1GHH2UrvJ9-250" edge="1">
          <mxGeometry width="50" height="50" relative="1" as="geometry">
            <mxPoint x="385.45" y="4330" as="sourcePoint" />
            <mxPoint x="471.2" y="4280" as="targetPoint" />
            <Array as="points">
              <mxPoint x="356" y="3786" />
              <mxPoint x="356" y="4280" />
            </Array>
          </mxGeometry>
        </mxCell>
        <mxCell id="enqwQ2bbHpvwQ0kJNUOB-131" value="" style="endArrow=classic;html=1;rounded=0;exitX=0;exitY=0.5;exitDx=0;exitDy=0;entryX=1;entryY=0.5;entryDx=0;entryDy=0;edgeStyle=orthogonalEdgeStyle;curved=1;strokeColor=#0E8088;" parent="1" source="enqwQ2bbHpvwQ0kJNUOB-74" target="enqwQ2bbHpvwQ0kJNUOB-77" edge="1">
          <mxGeometry width="50" height="50" relative="1" as="geometry">
            <mxPoint x="-873.75" y="2137.58" as="sourcePoint" />
            <mxPoint x="-823.75" y="2087.58" as="targetPoint" />
            <Array as="points">
              <mxPoint x="-913.75" y="1978.58" />
              <mxPoint x="-913.75" y="2171.58" />
            </Array>
          </mxGeometry>
        </mxCell>
        <mxCell id="1z1GyBZzmO6tCQzVJL07-1" value="" style="endArrow=classic;html=1;rounded=0;entryX=0;entryY=0.5;entryDx=0;entryDy=0;exitX=1;exitY=0.5;exitDx=0;exitDy=0;edgeStyle=orthogonalEdgeStyle;curved=1;strokeColor=#006658;" parent="1" source="A5lYPsGRQJ1GHH2UrvJ9-61" target="A5lYPsGRQJ1GHH2UrvJ9-77" edge="1">
          <mxGeometry width="50" height="50" relative="1" as="geometry">
            <mxPoint x="410" y="620" as="sourcePoint" />
            <mxPoint x="530" y="550" as="targetPoint" />
          </mxGeometry>
        </mxCell>
        <mxCell id="1z1GyBZzmO6tCQzVJL07-4" value="" style="endArrow=classic;html=1;rounded=0;entryX=0;entryY=0.5;entryDx=0;entryDy=0;exitX=1;exitY=0.5;exitDx=0;exitDy=0;edgeStyle=orthogonalEdgeStyle;curved=1;strokeColor=#006658;" parent="1" source="A5lYPsGRQJ1GHH2UrvJ9-77" target="s1LpaKvmIa9BUWUZ4o1i-78" edge="1">
          <mxGeometry width="50" height="50" relative="1" as="geometry">
            <mxPoint x="690" y="460" as="sourcePoint" />
            <mxPoint x="720" y="350" as="targetPoint" />
            <Array as="points">
              <mxPoint x="710" y="464" />
              <mxPoint x="710" y="338" />
            </Array>
          </mxGeometry>
        </mxCell>
        <mxCell id="1z1GyBZzmO6tCQzVJL07-8" value="" style="endArrow=classic;html=1;rounded=0;exitX=1;exitY=0.5;exitDx=0;exitDy=0;entryX=0;entryY=0.5;entryDx=0;entryDy=0;edgeStyle=orthogonalEdgeStyle;curved=1;strokeColor=#006658;" parent="1" source="A5lYPsGRQJ1GHH2UrvJ9-77" target="b9gM4gOocdvL3oOeD4PQ-11" edge="1">
          <mxGeometry width="50" height="50" relative="1" as="geometry">
            <mxPoint x="680" y="640" as="sourcePoint" />
            <mxPoint x="730" y="590" as="targetPoint" />
            <Array as="points">
              <mxPoint x="700" y="464" />
              <mxPoint x="700" y="531" />
              <mxPoint x="750" y="531" />
              <mxPoint x="750" y="551" />
            </Array>
          </mxGeometry>
        </mxCell>
        <mxCell id="1z1GyBZzmO6tCQzVJL07-9" value="" style="endArrow=classic;html=1;rounded=0;exitX=1;exitY=0.5;exitDx=0;exitDy=0;entryX=0;entryY=0.5;entryDx=0;entryDy=0;edgeStyle=orthogonalEdgeStyle;curved=1;strokeColor=#006658;" parent="1" source="b9gM4gOocdvL3oOeD4PQ-18" target="b9gM4gOocdvL3oOeD4PQ-24" edge="1">
          <mxGeometry width="50" height="50" relative="1" as="geometry">
            <mxPoint x="710" y="800" as="sourcePoint" />
            <mxPoint x="760" y="750" as="targetPoint" />
          </mxGeometry>
        </mxCell>
        <mxCell id="1z1GyBZzmO6tCQzVJL07-10" value="" style="endArrow=classic;html=1;rounded=0;exitX=1;exitY=0.5;exitDx=0;exitDy=0;entryX=0;entryY=0.5;entryDx=0;entryDy=0;edgeStyle=orthogonalEdgeStyle;curved=1;strokeColor=#006658;" parent="1" source="b9gM4gOocdvL3oOeD4PQ-18" target="b9gM4gOocdvL3oOeD4PQ-56" edge="1">
          <mxGeometry width="50" height="50" relative="1" as="geometry">
            <mxPoint x="690" y="990" as="sourcePoint" />
            <mxPoint x="740" y="940" as="targetPoint" />
          </mxGeometry>
        </mxCell>
        <mxCell id="1z1GyBZzmO6tCQzVJL07-11" value="" style="endArrow=classic;html=1;rounded=0;exitX=1;exitY=0.5;exitDx=0;exitDy=0;edgeStyle=orthogonalEdgeStyle;curved=1;strokeColor=#006658;" parent="1" source="b9gM4gOocdvL3oOeD4PQ-18" target="b9gM4gOocdvL3oOeD4PQ-22" edge="1">
          <mxGeometry width="50" height="50" relative="1" as="geometry">
            <mxPoint x="700" y="990" as="sourcePoint" />
            <mxPoint x="750" y="940" as="targetPoint" />
          </mxGeometry>
        </mxCell>
        <mxCell id="1z1GyBZzmO6tCQzVJL07-13" value="" style="endArrow=classic;html=1;rounded=0;exitX=1;exitY=0.5;exitDx=0;exitDy=0;entryX=0;entryY=0.5;entryDx=0;entryDy=0;edgeStyle=orthogonalEdgeStyle;curved=1;strokeColor=#006658;" parent="1" source="b9gM4gOocdvL3oOeD4PQ-18" target="b9gM4gOocdvL3oOeD4PQ-32" edge="1">
          <mxGeometry width="50" height="50" relative="1" as="geometry">
            <mxPoint x="740" y="1030" as="sourcePoint" />
            <mxPoint x="790" y="980" as="targetPoint" />
          </mxGeometry>
        </mxCell>
        <mxCell id="1z1GyBZzmO6tCQzVJL07-14" value="" style="endArrow=classic;html=1;rounded=0;exitX=1;exitY=0.5;exitDx=0;exitDy=0;entryX=0;entryY=0.5;entryDx=0;entryDy=0;edgeStyle=orthogonalEdgeStyle;curved=1;strokeColor=#006658;" parent="1" source="A5lYPsGRQJ1GHH2UrvJ9-103" target="s1LpaKvmIa9BUWUZ4o1i-162" edge="1">
          <mxGeometry width="50" height="50" relative="1" as="geometry">
            <mxPoint x="640" y="1180" as="sourcePoint" />
            <mxPoint x="690" y="1130" as="targetPoint" />
            <Array as="points">
              <mxPoint x="740" y="1289" />
              <mxPoint x="740" y="1178" />
            </Array>
          </mxGeometry>
        </mxCell>
        <mxCell id="1z1GyBZzmO6tCQzVJL07-15" value="" style="endArrow=classic;html=1;rounded=0;exitX=1;exitY=0.5;exitDx=0;exitDy=0;entryX=0;entryY=0.5;entryDx=0;entryDy=0;edgeStyle=orthogonalEdgeStyle;curved=1;strokeColor=#006658;" parent="1" source="A5lYPsGRQJ1GHH2UrvJ9-103" target="s1LpaKvmIa9BUWUZ4o1i-164" edge="1">
          <mxGeometry width="50" height="50" relative="1" as="geometry">
            <mxPoint x="590" y="1220" as="sourcePoint" />
            <mxPoint x="640" y="1170" as="targetPoint" />
          </mxGeometry>
        </mxCell>
        <mxCell id="1z1GyBZzmO6tCQzVJL07-16" value="" style="endArrow=classic;html=1;rounded=0;exitX=1;exitY=0.5;exitDx=0;exitDy=0;entryX=0;entryY=0.5;entryDx=0;entryDy=0;edgeStyle=orthogonalEdgeStyle;curved=1;strokeColor=#006658;" parent="1" source="A5lYPsGRQJ1GHH2UrvJ9-77" target="b9gM4gOocdvL3oOeD4PQ-48" edge="1">
          <mxGeometry width="50" height="50" relative="1" as="geometry">
            <mxPoint x="650" y="610" as="sourcePoint" />
            <mxPoint x="700" y="560" as="targetPoint" />
          </mxGeometry>
        </mxCell>
        <mxCell id="1z1GyBZzmO6tCQzVJL07-17" value="" style="endArrow=classic;html=1;rounded=0;exitX=1;exitY=0.5;exitDx=0;exitDy=0;entryX=0;entryY=0.5;entryDx=0;entryDy=0;edgeStyle=orthogonalEdgeStyle;curved=1;strokeColor=#006658;" parent="1" source="A5lYPsGRQJ1GHH2UrvJ9-77" target="s1LpaKvmIa9BUWUZ4o1i-76" edge="1">
          <mxGeometry width="50" height="50" relative="1" as="geometry">
            <mxPoint x="660" y="590" as="sourcePoint" />
            <mxPoint x="710" y="540" as="targetPoint" />
          </mxGeometry>
        </mxCell>
        <mxCell id="1z1GyBZzmO6tCQzVJL07-18" value="" style="endArrow=classic;html=1;rounded=0;exitX=1;exitY=0.5;exitDx=0;exitDy=0;entryX=0;entryY=0.5;entryDx=0;entryDy=0;edgeStyle=orthogonalEdgeStyle;curved=1;strokeColor=#006658;" parent="1" source="A5lYPsGRQJ1GHH2UrvJ9-77" target="s1LpaKvmIa9BUWUZ4o1i-77" edge="1">
          <mxGeometry width="50" height="50" relative="1" as="geometry">
            <mxPoint x="710" y="580" as="sourcePoint" />
            <mxPoint x="760" y="530" as="targetPoint" />
          </mxGeometry>
        </mxCell>
        <mxCell id="1z1GyBZzmO6tCQzVJL07-19" value="" style="endArrow=classic;html=1;rounded=0;exitX=1;exitY=0.5;exitDx=0;exitDy=0;entryX=0;entryY=0.5;entryDx=0;entryDy=0;edgeStyle=orthogonalEdgeStyle;curved=1;strokeColor=#006658;" parent="1" source="A5lYPsGRQJ1GHH2UrvJ9-103" target="s1LpaKvmIa9BUWUZ4o1i-165" edge="1">
          <mxGeometry width="50" height="50" relative="1" as="geometry">
            <mxPoint x="670" y="1470" as="sourcePoint" />
            <mxPoint x="720" y="1420" as="targetPoint" />
          </mxGeometry>
        </mxCell>
        <mxCell id="1z1GyBZzmO6tCQzVJL07-20" value="" style="endArrow=classic;html=1;rounded=0;exitX=1;exitY=0.5;exitDx=0;exitDy=0;entryX=0;entryY=0.5;entryDx=0;entryDy=0;edgeStyle=orthogonalEdgeStyle;curved=1;strokeColor=#006658;" parent="1" source="A5lYPsGRQJ1GHH2UrvJ9-103" target="s1LpaKvmIa9BUWUZ4o1i-166" edge="1">
          <mxGeometry width="50" height="50" relative="1" as="geometry">
            <mxPoint x="660" y="1400" as="sourcePoint" />
            <mxPoint x="710" y="1350" as="targetPoint" />
          </mxGeometry>
        </mxCell>
        <mxCell id="1z1GyBZzmO6tCQzVJL07-21" value="" style="endArrow=classic;html=1;rounded=0;exitX=1;exitY=0.5;exitDx=0;exitDy=0;entryX=0;entryY=0.5;entryDx=0;entryDy=0;edgeStyle=orthogonalEdgeStyle;elbow=vertical;curved=1;strokeColor=#006658;" parent="1" source="A5lYPsGRQJ1GHH2UrvJ9-103" target="s1LpaKvmIa9BUWUZ4o1i-168" edge="1">
          <mxGeometry width="50" height="50" relative="1" as="geometry">
            <mxPoint x="700" y="1470" as="sourcePoint" />
            <mxPoint x="750" y="1420" as="targetPoint" />
            <Array as="points">
              <mxPoint x="750" y="1289" />
              <mxPoint x="750" y="1362" />
            </Array>
          </mxGeometry>
        </mxCell>
        <mxCell id="1z1GyBZzmO6tCQzVJL07-22" value="" style="endArrow=classic;html=1;rounded=0;exitX=1;exitY=0.5;exitDx=0;exitDy=0;entryX=0;entryY=0.5;entryDx=0;entryDy=0;edgeStyle=orthogonalEdgeStyle;curved=1;strokeColor=#006658;" parent="1" source="A5lYPsGRQJ1GHH2UrvJ9-103" target="s1LpaKvmIa9BUWUZ4o1i-161" edge="1">
          <mxGeometry width="50" height="50" relative="1" as="geometry">
            <mxPoint x="680" y="1460" as="sourcePoint" />
            <mxPoint x="730" y="1410" as="targetPoint" />
            <Array as="points">
              <mxPoint x="740" y="1289" />
              <mxPoint x="740" y="1401" />
            </Array>
          </mxGeometry>
        </mxCell>
        <mxCell id="1z1GyBZzmO6tCQzVJL07-23" value="" style="endArrow=classic;html=1;rounded=0;exitX=1;exitY=0.5;exitDx=0;exitDy=0;entryX=0;entryY=0.5;entryDx=0;entryDy=0;edgeStyle=orthogonalEdgeStyle;curved=1;strokeColor=#006658;" parent="1" source="A5lYPsGRQJ1GHH2UrvJ9-103" target="b9gM4gOocdvL3oOeD4PQ-82" edge="1">
          <mxGeometry width="50" height="50" relative="1" as="geometry">
            <mxPoint x="670" y="1500" as="sourcePoint" />
            <mxPoint x="720" y="1450" as="targetPoint" />
            <Array as="points">
              <mxPoint x="730" y="1289" />
              <mxPoint x="730" y="1453" />
            </Array>
          </mxGeometry>
        </mxCell>
        <mxCell id="1z1GyBZzmO6tCQzVJL07-25" value="" style="endArrow=classic;html=1;rounded=0;exitX=0;exitY=0.5;exitDx=0;exitDy=0;entryX=1;entryY=0.5;entryDx=0;entryDy=0;edgeStyle=orthogonalEdgeStyle;curved=1;strokeColor=#006658;" parent="1" source="A5lYPsGRQJ1GHH2UrvJ9-40" target="s1LpaKvmIa9BUWUZ4o1i-66" edge="1">
          <mxGeometry width="50" height="50" relative="1" as="geometry">
            <mxPoint x="-870" y="3104.9399999999996" as="sourcePoint" />
            <mxPoint x="-820" y="3054.9399999999996" as="targetPoint" />
            <Array as="points">
              <mxPoint x="-820" y="2524.9399999999996" />
              <mxPoint x="-820" y="3214.9399999999996" />
            </Array>
          </mxGeometry>
        </mxCell>
        <mxCell id="1z1GyBZzmO6tCQzVJL07-26" value="" style="endArrow=classic;html=1;rounded=0;exitX=0;exitY=0.5;exitDx=0;exitDy=0;entryX=1;entryY=0.5;entryDx=0;entryDy=0;edgeStyle=orthogonalEdgeStyle;curved=1;strokeColor=#006658;" parent="1" source="A5lYPsGRQJ1GHH2UrvJ9-40" edge="1">
          <mxGeometry width="50" height="50" relative="1" as="geometry">
            <mxPoint x="-900" y="3274.9399999999996" as="sourcePoint" />
            <mxPoint x="-1190" y="3294.9399999999996" as="targetPoint" />
            <Array as="points">
              <mxPoint x="-790" y="2524.9399999999996" />
              <mxPoint x="-790" y="3294.9399999999996" />
            </Array>
          </mxGeometry>
        </mxCell>
        <mxCell id="eW1SipSEMxq0wr1F8UN7-1" value="Свой автомобиль" style="rounded=1;whiteSpace=wrap;html=1;arcSize=22;labelBackgroundColor=none;fillColor=#b0e3e6;strokeColor=#0e8088;" parent="1" vertex="1">
          <mxGeometry x="-1248.75" y="1662" width="118.75" height="38" as="geometry" />
        </mxCell>
        <mxCell id="eW1SipSEMxq0wr1F8UN7-2" value="" style="endArrow=classic;html=1;rounded=0;exitX=0;exitY=0.5;exitDx=0;exitDy=0;entryX=1;entryY=0.5;entryDx=0;entryDy=0;edgeStyle=orthogonalEdgeStyle;curved=1;strokeColor=#0E8088;" parent="1" source="MyRRs7XRICA8QSsl9Eci-60" target="eW1SipSEMxq0wr1F8UN7-1" edge="1">
          <mxGeometry width="50" height="50" relative="1" as="geometry">
            <mxPoint x="-887.5" y="1625.5" as="sourcePoint" />
            <mxPoint x="-837.5" y="1575.5" as="targetPoint" />
            <Array as="points">
              <mxPoint x="-1027" y="1396" />
              <mxPoint x="-1027" y="1679" />
              <mxPoint x="-1110" y="1679" />
              <mxPoint x="-1110" y="1681" />
            </Array>
          </mxGeometry>
        </mxCell>
        <mxCell id="eW1SipSEMxq0wr1F8UN7-13" value="" style="endArrow=classic;html=1;rounded=0;exitX=0;exitY=0.5;exitDx=0;exitDy=0;entryX=1;entryY=0.5;entryDx=0;entryDy=0;edgeStyle=orthogonalEdgeStyle;curved=1;strokeColor=#0E8088;" parent="1" source="OxW7yi1mNQBKnJ8u3WXz-2" target="MyRRs7XRICA8QSsl9Eci-60" edge="1">
          <mxGeometry width="50" height="50" relative="1" as="geometry">
            <mxPoint x="-790" y="1350" as="sourcePoint" />
            <mxPoint x="-740" y="1300" as="targetPoint" />
          </mxGeometry>
        </mxCell>
        <mxCell id="eW1SipSEMxq0wr1F8UN7-18" value="Отображается белым цветом в синем овале (только в состоянии &quot;выбран&quot;)" style="rounded=1;whiteSpace=wrap;html=1;arcSize=22;labelBackgroundColor=none;fillColor=#b0e3e6;strokeColor=#0e8088;" parent="1" vertex="1">
          <mxGeometry x="-1460" y="1038.75" width="215" height="40" as="geometry" />
        </mxCell>
        <mxCell id="eW1SipSEMxq0wr1F8UN7-25" value="" style="endArrow=classic;html=1;rounded=0;exitX=0;exitY=0.5;exitDx=0;exitDy=0;" parent="1" source="enqwQ2bbHpvwQ0kJNUOB-76" edge="1">
          <mxGeometry width="50" height="50" relative="1" as="geometry">
            <mxPoint x="-1200" y="2130" as="sourcePoint" />
            <mxPoint x="-1160" y="2102" as="targetPoint" />
          </mxGeometry>
        </mxCell>
        <mxCell id="eW1SipSEMxq0wr1F8UN7-26" value="Отображается текстом белого цвета в синем овале" style="rounded=1;whiteSpace=wrap;html=1;arcSize=22;labelBackgroundColor=none;fillColor=#b0e3e6;strokeColor=#0e8088;" parent="1" vertex="1">
          <mxGeometry x="-1300" y="2082.27" width="150" height="40" as="geometry" />
        </mxCell>
        <mxCell id="eW1SipSEMxq0wr1F8UN7-42" value="Клик по кнопке переход на Яндекс.такси" style="rounded=1;whiteSpace=wrap;html=1;arcSize=22;labelBackgroundColor=none;fillColor=#21C0A5;strokeColor=#006658;fontColor=#5C5C5C;" parent="1" vertex="1">
          <mxGeometry x="1718.2299999999993" y="3057.34" width="151.94" height="43.5" as="geometry" />
        </mxCell>
        <mxCell id="eW1SipSEMxq0wr1F8UN7-43" value="Кнопка вызвать такси" style="rounded=1;whiteSpace=wrap;html=1;arcSize=22;labelBackgroundColor=none;fillColor=#21C0A5;strokeColor=#006658;fontColor=#5C5C5C;" parent="1" vertex="1">
          <mxGeometry x="1515.5999999999995" y="3057.34" width="151.94" height="43.5" as="geometry" />
        </mxCell>
        <mxCell id="eW1SipSEMxq0wr1F8UN7-44" value="" style="endArrow=classic;html=1;rounded=0;exitX=1;exitY=0.5;exitDx=0;exitDy=0;edgeStyle=orthogonalEdgeStyle;curved=1;strokeColor=#005720;" parent="1" source="eW1SipSEMxq0wr1F8UN7-43" target="eW1SipSEMxq0wr1F8UN7-42" edge="1">
          <mxGeometry width="50" height="50" relative="1" as="geometry">
            <mxPoint x="1735.6" y="3107.34" as="sourcePoint" />
            <mxPoint x="1723.6599999999999" y="3079.0899999999997" as="targetPoint" />
          </mxGeometry>
        </mxCell>
        <mxCell id="eW1SipSEMxq0wr1F8UN7-45" value="Отображается картинка такси" style="rounded=1;whiteSpace=wrap;html=1;arcSize=22;labelBackgroundColor=none;fillColor=#21C0A5;strokeColor=#006658;fontColor=#5C5C5C;" parent="1" vertex="1">
          <mxGeometry x="1515.5999999999995" y="3140" width="151.94" height="43.5" as="geometry" />
        </mxCell>
        <mxCell id="eW1SipSEMxq0wr1F8UN7-46" value="" style="endArrow=classic;html=1;rounded=0;entryX=0;entryY=0.5;entryDx=0;entryDy=0;strokeColor=#035735;" parent="1" target="MyRRs7XRICA8QSsl9Eci-1" edge="1">
          <mxGeometry width="50" height="50" relative="1" as="geometry">
            <mxPoint x="351.81" y="3076.86" as="sourcePoint" />
            <mxPoint x="411.81" y="3145.86" as="targetPoint" />
          </mxGeometry>
        </mxCell>
        <mxCell id="eW1SipSEMxq0wr1F8UN7-48" value="" style="endArrow=classic;html=1;rounded=0;exitX=1;exitY=0.5;exitDx=0;exitDy=0;edgeStyle=orthogonalEdgeStyle;curved=1;strokeColor=#035735;" parent="1" source="MyRRs7XRICA8QSsl9Eci-1" target="MyRRs7XRICA8QSsl9Eci-5" edge="1">
          <mxGeometry width="50" height="50" relative="1" as="geometry">
            <mxPoint x="670" y="3210" as="sourcePoint" />
            <mxPoint x="720" y="3160" as="targetPoint" />
          </mxGeometry>
        </mxCell>
        <mxCell id="eW1SipSEMxq0wr1F8UN7-49" value="" style="endArrow=classic;html=1;rounded=0;exitX=1;exitY=0.5;exitDx=0;exitDy=0;entryX=0;entryY=0.5;entryDx=0;entryDy=0;edgeStyle=orthogonalEdgeStyle;curved=1;strokeColor=#035735;" parent="1" source="enqwQ2bbHpvwQ0kJNUOB-28" target="enqwQ2bbHpvwQ0kJNUOB-30" edge="1">
          <mxGeometry width="50" height="50" relative="1" as="geometry">
            <mxPoint x="1240" y="3200" as="sourcePoint" />
            <mxPoint x="1290" y="3150" as="targetPoint" />
          </mxGeometry>
        </mxCell>
        <mxCell id="eW1SipSEMxq0wr1F8UN7-50" value="" style="endArrow=classic;html=1;rounded=0;exitX=1;exitY=0.5;exitDx=0;exitDy=0;entryX=0;entryY=0.5;entryDx=0;entryDy=0;edgeStyle=orthogonalEdgeStyle;curved=1;strokeColor=#035735;" parent="1" source="enqwQ2bbHpvwQ0kJNUOB-28" target="enqwQ2bbHpvwQ0kJNUOB-31" edge="1">
          <mxGeometry width="50" height="50" relative="1" as="geometry">
            <mxPoint x="1150" y="3280" as="sourcePoint" />
            <mxPoint x="1200" y="3230" as="targetPoint" />
          </mxGeometry>
        </mxCell>
        <mxCell id="eW1SipSEMxq0wr1F8UN7-52" value="" style="endArrow=classic;html=1;rounded=0;exitX=1;exitY=0.5;exitDx=0;exitDy=0;entryX=0;entryY=0.5;entryDx=0;entryDy=0;edgeStyle=orthogonalEdgeStyle;curved=1;" parent="1" source="enqwQ2bbHpvwQ0kJNUOB-30" target="eW1SipSEMxq0wr1F8UN7-43" edge="1">
          <mxGeometry width="50" height="50" relative="1" as="geometry">
            <mxPoint x="1710" y="3220" as="sourcePoint" />
            <mxPoint x="1760" y="3170" as="targetPoint" />
          </mxGeometry>
        </mxCell>
        <mxCell id="eW1SipSEMxq0wr1F8UN7-53" value="" style="endArrow=classic;html=1;rounded=0;exitX=1;exitY=0.5;exitDx=0;exitDy=0;entryX=0;entryY=0.5;entryDx=0;entryDy=0;edgeStyle=orthogonalEdgeStyle;curved=1;strokeColor=#035735;" parent="1" source="enqwQ2bbHpvwQ0kJNUOB-27" target="enqwQ2bbHpvwQ0kJNUOB-34" edge="1">
          <mxGeometry width="50" height="50" relative="1" as="geometry">
            <mxPoint x="880" y="3410" as="sourcePoint" />
            <mxPoint x="930" y="3360" as="targetPoint" />
          </mxGeometry>
        </mxCell>
        <mxCell id="eW1SipSEMxq0wr1F8UN7-54" value="" style="endArrow=classic;html=1;rounded=0;exitX=1;exitY=0.5;exitDx=0;exitDy=0;entryX=0;entryY=0.5;entryDx=0;entryDy=0;edgeStyle=orthogonalEdgeStyle;curved=1;strokeColor=#035735;" parent="1" source="MyRRs7XRICA8QSsl9Eci-1" target="enqwQ2bbHpvwQ0kJNUOB-27" edge="1">
          <mxGeometry width="50" height="50" relative="1" as="geometry">
            <mxPoint x="710" y="3230" as="sourcePoint" />
            <mxPoint x="760" y="3180" as="targetPoint" />
          </mxGeometry>
        </mxCell>
        <mxCell id="eW1SipSEMxq0wr1F8UN7-55" value="" style="endArrow=classic;html=1;rounded=0;exitX=1;exitY=0.5;exitDx=0;exitDy=0;entryX=0;entryY=0.5;entryDx=0;entryDy=0;edgeStyle=orthogonalEdgeStyle;curved=1;strokeColor=#035735;" parent="1" source="enqwQ2bbHpvwQ0kJNUOB-34" target="enqwQ2bbHpvwQ0kJNUOB-38" edge="1">
          <mxGeometry width="50" height="50" relative="1" as="geometry">
            <mxPoint x="1200" y="3380" as="sourcePoint" />
            <mxPoint x="1250" y="3330" as="targetPoint" />
          </mxGeometry>
        </mxCell>
        <mxCell id="eW1SipSEMxq0wr1F8UN7-56" value="" style="endArrow=classic;html=1;rounded=0;exitX=1;exitY=0.5;exitDx=0;exitDy=0;entryX=0;entryY=0.5;entryDx=0;entryDy=0;edgeStyle=orthogonalEdgeStyle;curved=1;strokeColor=#035735;" parent="1" source="enqwQ2bbHpvwQ0kJNUOB-34" target="enqwQ2bbHpvwQ0kJNUOB-41" edge="1">
          <mxGeometry width="50" height="50" relative="1" as="geometry">
            <mxPoint x="1170" y="3440" as="sourcePoint" />
            <mxPoint x="1220" y="3390" as="targetPoint" />
          </mxGeometry>
        </mxCell>
        <mxCell id="eW1SipSEMxq0wr1F8UN7-57" value="" style="endArrow=classic;html=1;rounded=0;exitX=1;exitY=0.5;exitDx=0;exitDy=0;entryX=0;entryY=0.5;entryDx=0;entryDy=0;edgeStyle=orthogonalEdgeStyle;curved=1;strokeColor=#035735;" parent="1" source="enqwQ2bbHpvwQ0kJNUOB-34" target="enqwQ2bbHpvwQ0kJNUOB-42" edge="1">
          <mxGeometry width="50" height="50" relative="1" as="geometry">
            <mxPoint x="1190" y="3480" as="sourcePoint" />
            <mxPoint x="1240" y="3430" as="targetPoint" />
          </mxGeometry>
        </mxCell>
        <mxCell id="eW1SipSEMxq0wr1F8UN7-58" value="" style="endArrow=classic;html=1;rounded=0;exitX=1;exitY=0.5;exitDx=0;exitDy=0;entryX=0;entryY=0.5;entryDx=0;entryDy=0;edgeStyle=orthogonalEdgeStyle;curved=1;strokeColor=#035735;" parent="1" source="enqwQ2bbHpvwQ0kJNUOB-34" target="enqwQ2bbHpvwQ0kJNUOB-40" edge="1">
          <mxGeometry width="50" height="50" relative="1" as="geometry">
            <mxPoint x="1210" y="3520" as="sourcePoint" />
            <mxPoint x="1260" y="3470" as="targetPoint" />
            <Array as="points">
              <mxPoint x="1220" y="3275" />
              <mxPoint x="1220" y="3486" />
            </Array>
          </mxGeometry>
        </mxCell>
        <mxCell id="eW1SipSEMxq0wr1F8UN7-59" value="" style="endArrow=classic;html=1;rounded=0;exitX=1;exitY=0.5;exitDx=0;exitDy=0;entryX=0;entryY=0.5;entryDx=0;entryDy=0;edgeStyle=orthogonalEdgeStyle;curved=1;strokeColor=#035735;" parent="1" source="enqwQ2bbHpvwQ0kJNUOB-30" target="eW1SipSEMxq0wr1F8UN7-45" edge="1">
          <mxGeometry width="50" height="50" relative="1" as="geometry">
            <mxPoint x="1550" y="3300" as="sourcePoint" />
            <mxPoint x="1600" y="3250" as="targetPoint" />
          </mxGeometry>
        </mxCell>
        <mxCell id="eW1SipSEMxq0wr1F8UN7-60" value="" style="endArrow=classic;html=1;rounded=0;exitX=1;exitY=0.5;exitDx=0;exitDy=0;entryX=0;entryY=0.5;entryDx=0;entryDy=0;edgeStyle=orthogonalEdgeStyle;curved=1;strokeColor=#035735;" parent="1" source="MyRRs7XRICA8QSsl9Eci-5" target="enqwQ2bbHpvwQ0kJNUOB-28" edge="1">
          <mxGeometry width="50" height="50" relative="1" as="geometry">
            <mxPoint x="1080" y="3210" as="sourcePoint" />
            <mxPoint x="1130" y="3160" as="targetPoint" />
          </mxGeometry>
        </mxCell>
        <mxCell id="eW1SipSEMxq0wr1F8UN7-61" value="" style="shape=curlyBracket;whiteSpace=wrap;html=1;rounded=1;flipH=1;labelPosition=right;verticalLabelPosition=middle;align=left;verticalAlign=middle;" parent="1" vertex="1">
          <mxGeometry x="1502" y="3260" width="20" height="240" as="geometry" />
        </mxCell>
        <mxCell id="eW1SipSEMxq0wr1F8UN7-62" value="Отображение стоимости и времени поездки" style="rounded=1;whiteSpace=wrap;html=1;arcSize=22;labelBackgroundColor=none;fillColor=#21C0A5;strokeColor=#006658;fontColor=#5C5C5C;" parent="1" vertex="1">
          <mxGeometry x="1550.0000000000002" y="3361.37" width="150" height="37.25" as="geometry" />
        </mxCell>
        <mxCell id="eW1SipSEMxq0wr1F8UN7-63" value="" style="shape=curlyBracket;whiteSpace=wrap;html=1;rounded=1;flipH=1;labelPosition=right;verticalLabelPosition=middle;align=left;verticalAlign=middle;" parent="1" vertex="1">
          <mxGeometry x="1900" y="3050" width="20" height="130" as="geometry" />
        </mxCell>
        <mxCell id="eW1SipSEMxq0wr1F8UN7-64" value="Отображение стоимости и времени поездки" style="rounded=1;whiteSpace=wrap;html=1;arcSize=22;labelBackgroundColor=none;fillColor=#21C0A5;strokeColor=#006658;fontColor=#5C5C5C;" parent="1" vertex="1">
          <mxGeometry x="1948.0000000000002" y="3101.37" width="150" height="37.25" as="geometry" />
        </mxCell>
        <mxCell id="eW1SipSEMxq0wr1F8UN7-65" value="" style="endArrow=classic;html=1;rounded=0;exitX=1;exitY=0.5;exitDx=0;exitDy=0;entryX=0;entryY=0.5;entryDx=0;entryDy=0;edgeStyle=orthogonalEdgeStyle;curved=1;strokeColor=#035735;" parent="1" source="qn3d2HcTWaKksIYHcs9O-5" target="qn3d2HcTWaKksIYHcs9O-14" edge="1">
          <mxGeometry width="50" height="50" relative="1" as="geometry">
            <mxPoint x="120" y="640" as="sourcePoint" />
            <mxPoint x="170" y="590" as="targetPoint" />
          </mxGeometry>
        </mxCell>
        <mxCell id="eW1SipSEMxq0wr1F8UN7-66" value="" style="endArrow=classic;html=1;rounded=0;exitX=1;exitY=0.5;exitDx=0;exitDy=0;entryX=0;entryY=0.5;entryDx=0;entryDy=0;edgeStyle=orthogonalEdgeStyle;curved=1;strokeColor=#006658;" parent="1" source="qn3d2HcTWaKksIYHcs9O-5" target="A5lYPsGRQJ1GHH2UrvJ9-250" edge="1">
          <mxGeometry width="50" height="50" relative="1" as="geometry">
            <mxPoint x="30" y="570" as="sourcePoint" />
            <mxPoint x="80" y="520" as="targetPoint" />
          </mxGeometry>
        </mxCell>
        <mxCell id="R5M3E8LM8zKVikx2kEW8-1" value="" style="shape=curlyBracket;whiteSpace=wrap;html=1;rounded=1;labelPosition=left;verticalLabelPosition=middle;align=right;verticalAlign=middle;" parent="1" vertex="1">
          <mxGeometry x="-1300" y="1301.75" width="20" height="398.25" as="geometry" />
        </mxCell>
        <mxCell id="R5M3E8LM8zKVikx2kEW8-2" value="" style="shape=curlyBracket;whiteSpace=wrap;html=1;rounded=1;labelPosition=left;verticalLabelPosition=middle;align=right;verticalAlign=middle;" parent="1" vertex="1">
          <mxGeometry x="-1210" y="940" width="20" height="240" as="geometry" />
        </mxCell>
      </root>
    </mxGraphModel>
  </diagram>
</mxfile>
